G75*
%MOIN*%
%OFA0B0*%
%FSLAX25Y25*%
%IPPOS*%
%LPD*%
%AMOC8*
5,1,8,0,0,1.08239X$1,22.5*
%
%ADD10C,0.00800*%
D10*
X0006600Y0001600D02*
X0029337Y0001600D01*
X0006600Y0001600D01*
X0006600Y0256600D01*
X0029337Y0256600D01*
X0015937Y0243200D01*
X0015000Y0242263D01*
X0015000Y0015937D01*
X0029337Y0001600D01*
X0028539Y0002399D02*
X0006600Y0002399D01*
X0006600Y0003197D02*
X0027740Y0003197D01*
X0026942Y0003996D02*
X0006600Y0003996D01*
X0006600Y0004794D02*
X0026143Y0004794D01*
X0025345Y0005593D02*
X0006600Y0005593D01*
X0006600Y0006391D02*
X0024546Y0006391D01*
X0023748Y0007190D02*
X0006600Y0007190D01*
X0006600Y0007988D02*
X0022949Y0007988D01*
X0022151Y0008787D02*
X0006600Y0008787D01*
X0006600Y0009585D02*
X0021352Y0009585D01*
X0020554Y0010384D02*
X0006600Y0010384D01*
X0006600Y0011182D02*
X0019755Y0011182D01*
X0018957Y0011981D02*
X0006600Y0011981D01*
X0006600Y0012779D02*
X0018158Y0012779D01*
X0017360Y0013578D02*
X0006600Y0013578D01*
X0006600Y0014376D02*
X0016561Y0014376D01*
X0015763Y0015175D02*
X0006600Y0015175D01*
X0006600Y0015973D02*
X0015000Y0015973D01*
X0015000Y0016772D02*
X0006600Y0016772D01*
X0006600Y0017570D02*
X0015000Y0017570D01*
X0015000Y0018369D02*
X0006600Y0018369D01*
X0006600Y0019167D02*
X0015000Y0019167D01*
X0015000Y0019966D02*
X0006600Y0019966D01*
X0006600Y0020764D02*
X0015000Y0020764D01*
X0015000Y0021563D02*
X0006600Y0021563D01*
X0006600Y0022361D02*
X0015000Y0022361D01*
X0015000Y0023160D02*
X0006600Y0023160D01*
X0006600Y0023958D02*
X0015000Y0023958D01*
X0015000Y0024757D02*
X0006600Y0024757D01*
X0006600Y0025555D02*
X0015000Y0025555D01*
X0015000Y0026354D02*
X0006600Y0026354D01*
X0006600Y0027152D02*
X0015000Y0027152D01*
X0015000Y0027951D02*
X0006600Y0027951D01*
X0006600Y0028749D02*
X0015000Y0028749D01*
X0015000Y0029548D02*
X0006600Y0029548D01*
X0006600Y0030346D02*
X0015000Y0030346D01*
X0015000Y0031145D02*
X0006600Y0031145D01*
X0006600Y0031943D02*
X0015000Y0031943D01*
X0015000Y0032742D02*
X0006600Y0032742D01*
X0006600Y0033540D02*
X0015000Y0033540D01*
X0015000Y0034339D02*
X0006600Y0034339D01*
X0006600Y0035137D02*
X0015000Y0035137D01*
X0015000Y0035936D02*
X0006600Y0035936D01*
X0006600Y0036734D02*
X0015000Y0036734D01*
X0015000Y0037533D02*
X0006600Y0037533D01*
X0006600Y0038332D02*
X0015000Y0038332D01*
X0015000Y0039130D02*
X0006600Y0039130D01*
X0006600Y0039929D02*
X0015000Y0039929D01*
X0015000Y0040727D02*
X0006600Y0040727D01*
X0006600Y0041526D02*
X0015000Y0041526D01*
X0015000Y0042324D02*
X0006600Y0042324D01*
X0006600Y0043123D02*
X0015000Y0043123D01*
X0015000Y0043921D02*
X0006600Y0043921D01*
X0006600Y0044720D02*
X0015000Y0044720D01*
X0015000Y0045518D02*
X0006600Y0045518D01*
X0006600Y0046317D02*
X0015000Y0046317D01*
X0015000Y0047115D02*
X0006600Y0047115D01*
X0006600Y0047914D02*
X0015000Y0047914D01*
X0015000Y0048712D02*
X0006600Y0048712D01*
X0006600Y0049511D02*
X0015000Y0049511D01*
X0015000Y0050309D02*
X0006600Y0050309D01*
X0006600Y0051108D02*
X0015000Y0051108D01*
X0015000Y0051906D02*
X0006600Y0051906D01*
X0006600Y0052705D02*
X0015000Y0052705D01*
X0015000Y0053503D02*
X0006600Y0053503D01*
X0006600Y0054302D02*
X0015000Y0054302D01*
X0015000Y0055100D02*
X0006600Y0055100D01*
X0006600Y0055899D02*
X0015000Y0055899D01*
X0015000Y0056697D02*
X0006600Y0056697D01*
X0006600Y0057496D02*
X0015000Y0057496D01*
X0015000Y0058294D02*
X0006600Y0058294D01*
X0006600Y0059093D02*
X0015000Y0059093D01*
X0015000Y0059891D02*
X0006600Y0059891D01*
X0006600Y0060690D02*
X0015000Y0060690D01*
X0015000Y0061488D02*
X0006600Y0061488D01*
X0006600Y0062287D02*
X0015000Y0062287D01*
X0015000Y0063085D02*
X0006600Y0063085D01*
X0006600Y0063884D02*
X0015000Y0063884D01*
X0015000Y0064682D02*
X0006600Y0064682D01*
X0006600Y0065481D02*
X0015000Y0065481D01*
X0015000Y0066279D02*
X0006600Y0066279D01*
X0006600Y0067078D02*
X0015000Y0067078D01*
X0015000Y0067876D02*
X0006600Y0067876D01*
X0006600Y0068675D02*
X0015000Y0068675D01*
X0015000Y0069473D02*
X0006600Y0069473D01*
X0006600Y0070272D02*
X0015000Y0070272D01*
X0015000Y0071070D02*
X0006600Y0071070D01*
X0006600Y0071869D02*
X0015000Y0071869D01*
X0015000Y0072668D02*
X0006600Y0072668D01*
X0006600Y0073466D02*
X0015000Y0073466D01*
X0015000Y0074265D02*
X0006600Y0074265D01*
X0006600Y0075063D02*
X0015000Y0075063D01*
X0015000Y0075862D02*
X0006600Y0075862D01*
X0006600Y0076660D02*
X0015000Y0076660D01*
X0015000Y0077459D02*
X0006600Y0077459D01*
X0006600Y0078257D02*
X0015000Y0078257D01*
X0015000Y0079056D02*
X0006600Y0079056D01*
X0006600Y0079854D02*
X0015000Y0079854D01*
X0015000Y0080653D02*
X0006600Y0080653D01*
X0006600Y0081451D02*
X0015000Y0081451D01*
X0015000Y0082250D02*
X0006600Y0082250D01*
X0006600Y0083048D02*
X0015000Y0083048D01*
X0015000Y0083847D02*
X0006600Y0083847D01*
X0006600Y0084645D02*
X0015000Y0084645D01*
X0015000Y0085444D02*
X0006600Y0085444D01*
X0006600Y0086242D02*
X0015000Y0086242D01*
X0015000Y0087041D02*
X0006600Y0087041D01*
X0006600Y0087839D02*
X0015000Y0087839D01*
X0015000Y0088638D02*
X0006600Y0088638D01*
X0006600Y0089436D02*
X0015000Y0089436D01*
X0015000Y0090235D02*
X0006600Y0090235D01*
X0006600Y0091033D02*
X0015000Y0091033D01*
X0015000Y0091832D02*
X0006600Y0091832D01*
X0006600Y0092630D02*
X0015000Y0092630D01*
X0015000Y0093429D02*
X0006600Y0093429D01*
X0006600Y0094227D02*
X0015000Y0094227D01*
X0015000Y0095026D02*
X0006600Y0095026D01*
X0006600Y0095824D02*
X0015000Y0095824D01*
X0015000Y0096623D02*
X0006600Y0096623D01*
X0006600Y0097421D02*
X0015000Y0097421D01*
X0015000Y0098220D02*
X0006600Y0098220D01*
X0006600Y0099018D02*
X0015000Y0099018D01*
X0015000Y0099817D02*
X0006600Y0099817D01*
X0006600Y0100615D02*
X0015000Y0100615D01*
X0015000Y0101414D02*
X0006600Y0101414D01*
X0006600Y0102212D02*
X0015000Y0102212D01*
X0015000Y0103011D02*
X0006600Y0103011D01*
X0006600Y0103809D02*
X0015000Y0103809D01*
X0015000Y0104608D02*
X0006600Y0104608D01*
X0006600Y0105406D02*
X0015000Y0105406D01*
X0015000Y0106205D02*
X0006600Y0106205D01*
X0006600Y0107003D02*
X0015000Y0107003D01*
X0015000Y0107802D02*
X0006600Y0107802D01*
X0006600Y0108601D02*
X0015000Y0108601D01*
X0015000Y0109399D02*
X0006600Y0109399D01*
X0006600Y0110198D02*
X0015000Y0110198D01*
X0015000Y0110996D02*
X0006600Y0110996D01*
X0006600Y0111795D02*
X0015000Y0111795D01*
X0015000Y0112593D02*
X0006600Y0112593D01*
X0006600Y0113392D02*
X0015000Y0113392D01*
X0015000Y0114190D02*
X0006600Y0114190D01*
X0006600Y0114989D02*
X0015000Y0114989D01*
X0015000Y0115787D02*
X0006600Y0115787D01*
X0006600Y0116586D02*
X0015000Y0116586D01*
X0015000Y0117384D02*
X0006600Y0117384D01*
X0006600Y0118183D02*
X0015000Y0118183D01*
X0015000Y0118981D02*
X0006600Y0118981D01*
X0006600Y0119780D02*
X0015000Y0119780D01*
X0015000Y0120578D02*
X0006600Y0120578D01*
X0006600Y0121377D02*
X0015000Y0121377D01*
X0015000Y0122175D02*
X0006600Y0122175D01*
X0006600Y0122974D02*
X0015000Y0122974D01*
X0015000Y0123772D02*
X0006600Y0123772D01*
X0006600Y0124571D02*
X0015000Y0124571D01*
X0015000Y0125369D02*
X0006600Y0125369D01*
X0006600Y0126168D02*
X0015000Y0126168D01*
X0015000Y0126966D02*
X0006600Y0126966D01*
X0006600Y0127765D02*
X0015000Y0127765D01*
X0015000Y0128563D02*
X0006600Y0128563D01*
X0006600Y0129362D02*
X0015000Y0129362D01*
X0015000Y0130160D02*
X0006600Y0130160D01*
X0006600Y0130959D02*
X0015000Y0130959D01*
X0015000Y0131757D02*
X0006600Y0131757D01*
X0006600Y0132556D02*
X0015000Y0132556D01*
X0015000Y0133354D02*
X0006600Y0133354D01*
X0006600Y0134153D02*
X0015000Y0134153D01*
X0015000Y0134951D02*
X0006600Y0134951D01*
X0006600Y0135750D02*
X0015000Y0135750D01*
X0015000Y0136548D02*
X0006600Y0136548D01*
X0006600Y0137347D02*
X0015000Y0137347D01*
X0015000Y0138145D02*
X0006600Y0138145D01*
X0006600Y0138944D02*
X0015000Y0138944D01*
X0015000Y0139742D02*
X0006600Y0139742D01*
X0006600Y0140541D02*
X0015000Y0140541D01*
X0015000Y0141339D02*
X0006600Y0141339D01*
X0006600Y0142138D02*
X0015000Y0142138D01*
X0015000Y0142937D02*
X0006600Y0142937D01*
X0006600Y0143735D02*
X0015000Y0143735D01*
X0015000Y0144534D02*
X0006600Y0144534D01*
X0006600Y0145332D02*
X0015000Y0145332D01*
X0015000Y0146131D02*
X0006600Y0146131D01*
X0006600Y0146929D02*
X0015000Y0146929D01*
X0015000Y0147728D02*
X0006600Y0147728D01*
X0006600Y0148526D02*
X0015000Y0148526D01*
X0015000Y0149325D02*
X0006600Y0149325D01*
X0006600Y0150123D02*
X0015000Y0150123D01*
X0015000Y0150922D02*
X0006600Y0150922D01*
X0006600Y0151720D02*
X0015000Y0151720D01*
X0015000Y0152519D02*
X0006600Y0152519D01*
X0006600Y0153317D02*
X0015000Y0153317D01*
X0015000Y0154116D02*
X0006600Y0154116D01*
X0006600Y0154914D02*
X0015000Y0154914D01*
X0015000Y0155713D02*
X0006600Y0155713D01*
X0006600Y0156511D02*
X0015000Y0156511D01*
X0015000Y0157310D02*
X0006600Y0157310D01*
X0006600Y0158108D02*
X0015000Y0158108D01*
X0015000Y0158907D02*
X0006600Y0158907D01*
X0006600Y0159705D02*
X0015000Y0159705D01*
X0015000Y0160504D02*
X0006600Y0160504D01*
X0006600Y0161302D02*
X0015000Y0161302D01*
X0015000Y0162101D02*
X0006600Y0162101D01*
X0006600Y0162899D02*
X0015000Y0162899D01*
X0015000Y0163698D02*
X0006600Y0163698D01*
X0006600Y0164496D02*
X0015000Y0164496D01*
X0015000Y0165295D02*
X0006600Y0165295D01*
X0006600Y0166093D02*
X0015000Y0166093D01*
X0015000Y0166892D02*
X0006600Y0166892D01*
X0006600Y0167690D02*
X0015000Y0167690D01*
X0015000Y0168489D02*
X0006600Y0168489D01*
X0006600Y0169287D02*
X0015000Y0169287D01*
X0015000Y0170086D02*
X0006600Y0170086D01*
X0006600Y0170884D02*
X0015000Y0170884D01*
X0015000Y0171683D02*
X0006600Y0171683D01*
X0006600Y0172481D02*
X0015000Y0172481D01*
X0015000Y0173280D02*
X0006600Y0173280D01*
X0006600Y0174078D02*
X0015000Y0174078D01*
X0015000Y0174877D02*
X0006600Y0174877D01*
X0006600Y0175675D02*
X0015000Y0175675D01*
X0015000Y0176474D02*
X0006600Y0176474D01*
X0006600Y0177272D02*
X0015000Y0177272D01*
X0015000Y0178071D02*
X0006600Y0178071D01*
X0006600Y0178870D02*
X0015000Y0178870D01*
X0015000Y0179668D02*
X0006600Y0179668D01*
X0006600Y0180467D02*
X0015000Y0180467D01*
X0015000Y0181265D02*
X0006600Y0181265D01*
X0006600Y0182064D02*
X0015000Y0182064D01*
X0015000Y0182862D02*
X0006600Y0182862D01*
X0006600Y0183661D02*
X0015000Y0183661D01*
X0015000Y0184459D02*
X0006600Y0184459D01*
X0006600Y0185258D02*
X0015000Y0185258D01*
X0015000Y0186056D02*
X0006600Y0186056D01*
X0006600Y0186855D02*
X0015000Y0186855D01*
X0015000Y0187653D02*
X0006600Y0187653D01*
X0006600Y0188452D02*
X0015000Y0188452D01*
X0015000Y0189250D02*
X0006600Y0189250D01*
X0006600Y0190049D02*
X0015000Y0190049D01*
X0015000Y0190847D02*
X0006600Y0190847D01*
X0006600Y0191646D02*
X0015000Y0191646D01*
X0015000Y0192444D02*
X0006600Y0192444D01*
X0006600Y0193243D02*
X0015000Y0193243D01*
X0015000Y0194041D02*
X0006600Y0194041D01*
X0006600Y0194840D02*
X0015000Y0194840D01*
X0015000Y0195638D02*
X0006600Y0195638D01*
X0006600Y0196437D02*
X0015000Y0196437D01*
X0015000Y0197235D02*
X0006600Y0197235D01*
X0006600Y0198034D02*
X0015000Y0198034D01*
X0015000Y0198832D02*
X0006600Y0198832D01*
X0006600Y0199631D02*
X0015000Y0199631D01*
X0015000Y0200429D02*
X0006600Y0200429D01*
X0006600Y0201228D02*
X0015000Y0201228D01*
X0015000Y0202026D02*
X0006600Y0202026D01*
X0006600Y0202825D02*
X0015000Y0202825D01*
X0015000Y0203623D02*
X0006600Y0203623D01*
X0006600Y0204422D02*
X0015000Y0204422D01*
X0015000Y0205220D02*
X0006600Y0205220D01*
X0006600Y0206019D02*
X0015000Y0206019D01*
X0015000Y0206817D02*
X0006600Y0206817D01*
X0006600Y0207616D02*
X0015000Y0207616D01*
X0015000Y0208414D02*
X0006600Y0208414D01*
X0006600Y0209213D02*
X0015000Y0209213D01*
X0015000Y0210011D02*
X0006600Y0210011D01*
X0006600Y0210810D02*
X0015000Y0210810D01*
X0015000Y0211608D02*
X0006600Y0211608D01*
X0006600Y0212407D02*
X0015000Y0212407D01*
X0015000Y0213205D02*
X0006600Y0213205D01*
X0006600Y0214004D02*
X0015000Y0214004D01*
X0015000Y0214803D02*
X0006600Y0214803D01*
X0006600Y0215601D02*
X0015000Y0215601D01*
X0015000Y0216400D02*
X0006600Y0216400D01*
X0006600Y0217198D02*
X0015000Y0217198D01*
X0015000Y0217997D02*
X0006600Y0217997D01*
X0006600Y0218795D02*
X0015000Y0218795D01*
X0015000Y0219594D02*
X0006600Y0219594D01*
X0006600Y0220392D02*
X0015000Y0220392D01*
X0015000Y0221191D02*
X0006600Y0221191D01*
X0006600Y0221989D02*
X0015000Y0221989D01*
X0015000Y0222788D02*
X0006600Y0222788D01*
X0006600Y0223586D02*
X0015000Y0223586D01*
X0015000Y0224385D02*
X0006600Y0224385D01*
X0006600Y0225183D02*
X0015000Y0225183D01*
X0015000Y0225982D02*
X0006600Y0225982D01*
X0006600Y0226780D02*
X0015000Y0226780D01*
X0015000Y0227579D02*
X0006600Y0227579D01*
X0006600Y0228377D02*
X0015000Y0228377D01*
X0015000Y0229176D02*
X0006600Y0229176D01*
X0006600Y0229974D02*
X0015000Y0229974D01*
X0015000Y0230773D02*
X0006600Y0230773D01*
X0006600Y0231571D02*
X0015000Y0231571D01*
X0015000Y0232370D02*
X0006600Y0232370D01*
X0006600Y0233168D02*
X0015000Y0233168D01*
X0015000Y0233967D02*
X0006600Y0233967D01*
X0006600Y0234765D02*
X0015000Y0234765D01*
X0015000Y0235564D02*
X0006600Y0235564D01*
X0006600Y0236362D02*
X0015000Y0236362D01*
X0015000Y0237161D02*
X0006600Y0237161D01*
X0006600Y0237959D02*
X0015000Y0237959D01*
X0015000Y0238758D02*
X0006600Y0238758D01*
X0006600Y0239556D02*
X0015000Y0239556D01*
X0015000Y0240355D02*
X0006600Y0240355D01*
X0006600Y0241153D02*
X0015000Y0241153D01*
X0015000Y0241952D02*
X0006600Y0241952D01*
X0006600Y0242750D02*
X0015488Y0242750D01*
X0015937Y0243200D02*
X0015937Y0243200D01*
X0016286Y0243549D02*
X0006600Y0243549D01*
X0006600Y0244347D02*
X0017085Y0244347D01*
X0017883Y0245146D02*
X0006600Y0245146D01*
X0006600Y0245944D02*
X0018682Y0245944D01*
X0019480Y0246743D02*
X0006600Y0246743D01*
X0006600Y0247541D02*
X0020279Y0247541D01*
X0021077Y0248340D02*
X0006600Y0248340D01*
X0006600Y0249139D02*
X0021876Y0249139D01*
X0022674Y0249937D02*
X0006600Y0249937D01*
X0006600Y0250736D02*
X0023473Y0250736D01*
X0024271Y0251534D02*
X0006600Y0251534D01*
X0006600Y0252333D02*
X0025070Y0252333D01*
X0025868Y0253131D02*
X0006600Y0253131D01*
X0006600Y0253930D02*
X0026667Y0253930D01*
X0027465Y0254728D02*
X0006600Y0254728D01*
X0006600Y0255527D02*
X0028264Y0255527D01*
X0029062Y0256325D02*
X0006600Y0256325D01*
X0023207Y0245944D02*
X0023831Y0245944D01*
X0024006Y0246743D02*
X0024292Y0246743D01*
X0024677Y0247409D02*
X0023108Y0244691D01*
X0022563Y0241600D01*
X0023108Y0238509D01*
X0024677Y0235791D01*
X0024677Y0235791D01*
X0027081Y0233773D01*
X0030031Y0232700D01*
X0030937Y0232700D01*
X0033169Y0232700D01*
X0036119Y0233773D01*
X0038523Y0235791D01*
X0040092Y0238509D01*
X0040092Y0238509D01*
X0040637Y0241600D01*
X0040092Y0244691D01*
X0038523Y0247409D01*
X0038523Y0247409D01*
X0036119Y0249427D01*
X0036119Y0249427D01*
X0033169Y0250500D01*
X0030031Y0250500D01*
X0027081Y0249427D01*
X0024677Y0247409D01*
X0024677Y0247409D01*
X0024677Y0247409D01*
X0024804Y0247541D02*
X0024835Y0247541D01*
X0025603Y0248340D02*
X0025787Y0248340D01*
X0026401Y0249139D02*
X0026738Y0249139D01*
X0027081Y0249427D02*
X0027081Y0249427D01*
X0027200Y0249937D02*
X0028484Y0249937D01*
X0027998Y0250736D02*
X0370202Y0250736D01*
X0369716Y0249937D02*
X0371000Y0249937D01*
X0371119Y0249427D02*
X0368169Y0250500D01*
X0365031Y0250500D01*
X0362081Y0249427D01*
X0359677Y0247409D01*
X0358108Y0244691D01*
X0357563Y0241600D01*
X0358108Y0238509D01*
X0359677Y0235791D01*
X0359677Y0235791D01*
X0362081Y0233773D01*
X0365031Y0232700D01*
X0367263Y0232700D01*
X0368169Y0232700D01*
X0368169Y0232700D01*
X0371119Y0233773D01*
X0373523Y0235791D01*
X0375092Y0238509D01*
X0375637Y0241600D01*
X0375092Y0244691D01*
X0373523Y0247409D01*
X0373523Y0247409D01*
X0371119Y0249427D01*
X0371119Y0249427D01*
X0371462Y0249139D02*
X0371799Y0249139D01*
X0372414Y0248340D02*
X0372597Y0248340D01*
X0373365Y0247541D02*
X0373396Y0247541D01*
X0373908Y0246743D02*
X0374194Y0246743D01*
X0374369Y0245944D02*
X0374993Y0245944D01*
X0374830Y0245146D02*
X0375791Y0245146D01*
X0375092Y0244691D02*
X0375092Y0244691D01*
X0375153Y0244347D02*
X0376590Y0244347D01*
X0377388Y0243549D02*
X0375294Y0243549D01*
X0375434Y0242750D02*
X0378187Y0242750D01*
X0378985Y0241952D02*
X0375575Y0241952D01*
X0375637Y0241600D02*
X0375637Y0241600D01*
X0375559Y0241153D02*
X0379784Y0241153D01*
X0380000Y0240937D02*
X0380000Y0017263D01*
X0365937Y0003200D01*
X0032263Y0003200D01*
X0018200Y0017263D01*
X0018200Y0240937D01*
X0032263Y0255000D01*
X0365937Y0255000D01*
X0380000Y0240937D01*
X0380000Y0240355D02*
X0375418Y0240355D01*
X0375277Y0239556D02*
X0380000Y0239556D01*
X0380000Y0238758D02*
X0375136Y0238758D01*
X0375092Y0238509D02*
X0375092Y0238509D01*
X0374775Y0237959D02*
X0380000Y0237959D01*
X0380000Y0237161D02*
X0374314Y0237161D01*
X0373853Y0236362D02*
X0380000Y0236362D01*
X0380000Y0235564D02*
X0373252Y0235564D01*
X0373523Y0235791D02*
X0373523Y0235791D01*
X0373523Y0235791D01*
X0372301Y0234765D02*
X0380000Y0234765D01*
X0380000Y0233967D02*
X0371349Y0233967D01*
X0371119Y0233773D02*
X0371119Y0233773D01*
X0369456Y0233168D02*
X0380000Y0233168D01*
X0380000Y0232370D02*
X0018200Y0232370D01*
X0018200Y0233168D02*
X0028744Y0233168D01*
X0027081Y0233773D02*
X0027081Y0233773D01*
X0026851Y0233967D02*
X0018200Y0233967D01*
X0018200Y0234765D02*
X0025899Y0234765D01*
X0024948Y0235564D02*
X0018200Y0235564D01*
X0018200Y0236362D02*
X0024347Y0236362D01*
X0023886Y0237161D02*
X0018200Y0237161D01*
X0018200Y0237959D02*
X0023425Y0237959D01*
X0023108Y0238509D02*
X0023108Y0238509D01*
X0023064Y0238758D02*
X0018200Y0238758D01*
X0018200Y0239556D02*
X0022923Y0239556D01*
X0022782Y0240355D02*
X0018200Y0240355D01*
X0018416Y0241153D02*
X0022641Y0241153D01*
X0022563Y0241600D02*
X0022563Y0241600D01*
X0022625Y0241952D02*
X0019215Y0241952D01*
X0020013Y0242750D02*
X0022766Y0242750D01*
X0022906Y0243549D02*
X0020812Y0243549D01*
X0021610Y0244347D02*
X0023047Y0244347D01*
X0023108Y0244691D02*
X0023108Y0244691D01*
X0023370Y0245146D02*
X0022409Y0245146D01*
X0028797Y0251534D02*
X0369403Y0251534D01*
X0368605Y0252333D02*
X0029595Y0252333D01*
X0030394Y0253131D02*
X0367806Y0253131D01*
X0367008Y0253930D02*
X0031192Y0253930D01*
X0031991Y0254728D02*
X0366209Y0254728D01*
X0368863Y0256600D02*
X0391600Y0256600D01*
X0391600Y0001600D01*
X0368863Y0001600D01*
X0383200Y0015937D01*
X0383200Y0242263D01*
X0382263Y0243200D01*
X0368863Y0256600D01*
X0369138Y0256325D02*
X0391600Y0256325D01*
X0391600Y0255527D02*
X0369936Y0255527D01*
X0370735Y0254728D02*
X0391600Y0254728D01*
X0391600Y0253930D02*
X0371533Y0253930D01*
X0372332Y0253131D02*
X0391600Y0253131D01*
X0391600Y0252333D02*
X0373130Y0252333D01*
X0373929Y0251534D02*
X0391600Y0251534D01*
X0391600Y0250736D02*
X0374727Y0250736D01*
X0375526Y0249937D02*
X0391600Y0249937D01*
X0391600Y0249139D02*
X0376324Y0249139D01*
X0377123Y0248340D02*
X0391600Y0248340D01*
X0391600Y0247541D02*
X0377921Y0247541D01*
X0378720Y0246743D02*
X0391600Y0246743D01*
X0391600Y0245944D02*
X0379518Y0245944D01*
X0380317Y0245146D02*
X0391600Y0245146D01*
X0391600Y0244347D02*
X0381115Y0244347D01*
X0381914Y0243549D02*
X0391600Y0243549D01*
X0391600Y0242750D02*
X0382712Y0242750D01*
X0383200Y0241952D02*
X0391600Y0241952D01*
X0391600Y0241153D02*
X0383200Y0241153D01*
X0383200Y0240355D02*
X0391600Y0240355D01*
X0391600Y0239556D02*
X0383200Y0239556D01*
X0383200Y0238758D02*
X0391600Y0238758D01*
X0391600Y0237959D02*
X0383200Y0237959D01*
X0383200Y0237161D02*
X0391600Y0237161D01*
X0391600Y0236362D02*
X0383200Y0236362D01*
X0383200Y0235564D02*
X0391600Y0235564D01*
X0391600Y0234765D02*
X0383200Y0234765D01*
X0383200Y0233967D02*
X0391600Y0233967D01*
X0391600Y0233168D02*
X0383200Y0233168D01*
X0383200Y0232370D02*
X0391600Y0232370D01*
X0391600Y0231571D02*
X0383200Y0231571D01*
X0383200Y0230773D02*
X0391600Y0230773D01*
X0391600Y0229974D02*
X0383200Y0229974D01*
X0383200Y0229176D02*
X0391600Y0229176D01*
X0391600Y0228377D02*
X0383200Y0228377D01*
X0383200Y0227579D02*
X0391600Y0227579D01*
X0391600Y0226780D02*
X0383200Y0226780D01*
X0383200Y0225982D02*
X0391600Y0225982D01*
X0391600Y0225183D02*
X0383200Y0225183D01*
X0383200Y0224385D02*
X0391600Y0224385D01*
X0391600Y0223586D02*
X0383200Y0223586D01*
X0383200Y0222788D02*
X0391600Y0222788D01*
X0391600Y0221989D02*
X0383200Y0221989D01*
X0383200Y0221191D02*
X0391600Y0221191D01*
X0391600Y0220392D02*
X0383200Y0220392D01*
X0383200Y0219594D02*
X0391600Y0219594D01*
X0391600Y0218795D02*
X0383200Y0218795D01*
X0383200Y0217997D02*
X0391600Y0217997D01*
X0391600Y0217198D02*
X0383200Y0217198D01*
X0383200Y0216400D02*
X0391600Y0216400D01*
X0391600Y0215601D02*
X0383200Y0215601D01*
X0383200Y0214803D02*
X0391600Y0214803D01*
X0391600Y0214004D02*
X0383200Y0214004D01*
X0383200Y0213205D02*
X0391600Y0213205D01*
X0391600Y0212407D02*
X0383200Y0212407D01*
X0383200Y0211608D02*
X0391600Y0211608D01*
X0391600Y0210810D02*
X0383200Y0210810D01*
X0383200Y0210011D02*
X0391600Y0210011D01*
X0391600Y0209213D02*
X0383200Y0209213D01*
X0383200Y0208414D02*
X0391600Y0208414D01*
X0391600Y0207616D02*
X0383200Y0207616D01*
X0383200Y0206817D02*
X0391600Y0206817D01*
X0391600Y0206019D02*
X0383200Y0206019D01*
X0383200Y0205220D02*
X0391600Y0205220D01*
X0391600Y0204422D02*
X0383200Y0204422D01*
X0383200Y0203623D02*
X0391600Y0203623D01*
X0391600Y0202825D02*
X0383200Y0202825D01*
X0383200Y0202026D02*
X0391600Y0202026D01*
X0391600Y0201228D02*
X0383200Y0201228D01*
X0383200Y0200429D02*
X0391600Y0200429D01*
X0391600Y0199631D02*
X0383200Y0199631D01*
X0383200Y0198832D02*
X0391600Y0198832D01*
X0391600Y0198034D02*
X0383200Y0198034D01*
X0383200Y0197235D02*
X0391600Y0197235D01*
X0391600Y0196437D02*
X0383200Y0196437D01*
X0383200Y0195638D02*
X0391600Y0195638D01*
X0391600Y0194840D02*
X0383200Y0194840D01*
X0383200Y0194041D02*
X0391600Y0194041D01*
X0391600Y0193243D02*
X0383200Y0193243D01*
X0383200Y0192444D02*
X0391600Y0192444D01*
X0391600Y0191646D02*
X0383200Y0191646D01*
X0383200Y0190847D02*
X0391600Y0190847D01*
X0391600Y0190049D02*
X0383200Y0190049D01*
X0383200Y0189250D02*
X0391600Y0189250D01*
X0391600Y0188452D02*
X0383200Y0188452D01*
X0383200Y0187653D02*
X0391600Y0187653D01*
X0391600Y0186855D02*
X0383200Y0186855D01*
X0383200Y0186056D02*
X0391600Y0186056D01*
X0391600Y0185258D02*
X0383200Y0185258D01*
X0383200Y0184459D02*
X0391600Y0184459D01*
X0391600Y0183661D02*
X0383200Y0183661D01*
X0383200Y0182862D02*
X0391600Y0182862D01*
X0391600Y0182064D02*
X0383200Y0182064D01*
X0383200Y0181265D02*
X0391600Y0181265D01*
X0391600Y0180467D02*
X0383200Y0180467D01*
X0383200Y0179668D02*
X0391600Y0179668D01*
X0391600Y0178870D02*
X0383200Y0178870D01*
X0383200Y0178071D02*
X0391600Y0178071D01*
X0391600Y0177272D02*
X0383200Y0177272D01*
X0383200Y0176474D02*
X0391600Y0176474D01*
X0391600Y0175675D02*
X0383200Y0175675D01*
X0383200Y0174877D02*
X0391600Y0174877D01*
X0391600Y0174078D02*
X0383200Y0174078D01*
X0383200Y0173280D02*
X0391600Y0173280D01*
X0391600Y0172481D02*
X0383200Y0172481D01*
X0383200Y0171683D02*
X0391600Y0171683D01*
X0391600Y0170884D02*
X0383200Y0170884D01*
X0383200Y0170086D02*
X0391600Y0170086D01*
X0391600Y0169287D02*
X0383200Y0169287D01*
X0383200Y0168489D02*
X0391600Y0168489D01*
X0391600Y0167690D02*
X0383200Y0167690D01*
X0383200Y0166892D02*
X0391600Y0166892D01*
X0391600Y0166093D02*
X0383200Y0166093D01*
X0383200Y0165295D02*
X0391600Y0165295D01*
X0391600Y0164496D02*
X0383200Y0164496D01*
X0383200Y0163698D02*
X0391600Y0163698D01*
X0391600Y0162899D02*
X0383200Y0162899D01*
X0383200Y0162101D02*
X0391600Y0162101D01*
X0391600Y0161302D02*
X0383200Y0161302D01*
X0383200Y0160504D02*
X0391600Y0160504D01*
X0391600Y0159705D02*
X0383200Y0159705D01*
X0383200Y0158907D02*
X0391600Y0158907D01*
X0391600Y0158108D02*
X0383200Y0158108D01*
X0383200Y0157310D02*
X0391600Y0157310D01*
X0391600Y0156511D02*
X0383200Y0156511D01*
X0383200Y0155713D02*
X0391600Y0155713D01*
X0391600Y0154914D02*
X0383200Y0154914D01*
X0383200Y0154116D02*
X0391600Y0154116D01*
X0391600Y0153317D02*
X0383200Y0153317D01*
X0383200Y0152519D02*
X0391600Y0152519D01*
X0391600Y0151720D02*
X0383200Y0151720D01*
X0383200Y0150922D02*
X0391600Y0150922D01*
X0391600Y0150123D02*
X0383200Y0150123D01*
X0383200Y0149325D02*
X0391600Y0149325D01*
X0391600Y0148526D02*
X0383200Y0148526D01*
X0383200Y0147728D02*
X0391600Y0147728D01*
X0391600Y0146929D02*
X0383200Y0146929D01*
X0383200Y0146131D02*
X0391600Y0146131D01*
X0391600Y0145332D02*
X0383200Y0145332D01*
X0383200Y0144534D02*
X0391600Y0144534D01*
X0391600Y0143735D02*
X0383200Y0143735D01*
X0383200Y0142937D02*
X0391600Y0142937D01*
X0391600Y0142138D02*
X0383200Y0142138D01*
X0383200Y0141339D02*
X0391600Y0141339D01*
X0391600Y0140541D02*
X0383200Y0140541D01*
X0383200Y0139742D02*
X0391600Y0139742D01*
X0391600Y0138944D02*
X0383200Y0138944D01*
X0383200Y0138145D02*
X0391600Y0138145D01*
X0391600Y0137347D02*
X0383200Y0137347D01*
X0383200Y0136548D02*
X0391600Y0136548D01*
X0391600Y0135750D02*
X0383200Y0135750D01*
X0383200Y0134951D02*
X0391600Y0134951D01*
X0391600Y0134153D02*
X0383200Y0134153D01*
X0383200Y0133354D02*
X0391600Y0133354D01*
X0391600Y0132556D02*
X0383200Y0132556D01*
X0383200Y0131757D02*
X0391600Y0131757D01*
X0391600Y0130959D02*
X0383200Y0130959D01*
X0383200Y0130160D02*
X0391600Y0130160D01*
X0391600Y0129362D02*
X0383200Y0129362D01*
X0383200Y0128563D02*
X0391600Y0128563D01*
X0391600Y0127765D02*
X0383200Y0127765D01*
X0383200Y0126966D02*
X0391600Y0126966D01*
X0391600Y0126168D02*
X0383200Y0126168D01*
X0383200Y0125369D02*
X0391600Y0125369D01*
X0391600Y0124571D02*
X0383200Y0124571D01*
X0383200Y0123772D02*
X0391600Y0123772D01*
X0391600Y0122974D02*
X0383200Y0122974D01*
X0383200Y0122175D02*
X0391600Y0122175D01*
X0391600Y0121377D02*
X0383200Y0121377D01*
X0383200Y0120578D02*
X0391600Y0120578D01*
X0391600Y0119780D02*
X0383200Y0119780D01*
X0383200Y0118981D02*
X0391600Y0118981D01*
X0391600Y0118183D02*
X0383200Y0118183D01*
X0383200Y0117384D02*
X0391600Y0117384D01*
X0391600Y0116586D02*
X0383200Y0116586D01*
X0383200Y0115787D02*
X0391600Y0115787D01*
X0391600Y0114989D02*
X0383200Y0114989D01*
X0383200Y0114190D02*
X0391600Y0114190D01*
X0391600Y0113392D02*
X0383200Y0113392D01*
X0383200Y0112593D02*
X0391600Y0112593D01*
X0391600Y0111795D02*
X0383200Y0111795D01*
X0383200Y0110996D02*
X0391600Y0110996D01*
X0391600Y0110198D02*
X0383200Y0110198D01*
X0383200Y0109399D02*
X0391600Y0109399D01*
X0391600Y0108601D02*
X0383200Y0108601D01*
X0383200Y0107802D02*
X0391600Y0107802D01*
X0391600Y0107003D02*
X0383200Y0107003D01*
X0383200Y0106205D02*
X0391600Y0106205D01*
X0391600Y0105406D02*
X0383200Y0105406D01*
X0383200Y0104608D02*
X0391600Y0104608D01*
X0391600Y0103809D02*
X0383200Y0103809D01*
X0383200Y0103011D02*
X0391600Y0103011D01*
X0391600Y0102212D02*
X0383200Y0102212D01*
X0383200Y0101414D02*
X0391600Y0101414D01*
X0391600Y0100615D02*
X0383200Y0100615D01*
X0383200Y0099817D02*
X0391600Y0099817D01*
X0391600Y0099018D02*
X0383200Y0099018D01*
X0383200Y0098220D02*
X0391600Y0098220D01*
X0391600Y0097421D02*
X0383200Y0097421D01*
X0383200Y0096623D02*
X0391600Y0096623D01*
X0391600Y0095824D02*
X0383200Y0095824D01*
X0383200Y0095026D02*
X0391600Y0095026D01*
X0391600Y0094227D02*
X0383200Y0094227D01*
X0383200Y0093429D02*
X0391600Y0093429D01*
X0391600Y0092630D02*
X0383200Y0092630D01*
X0383200Y0091832D02*
X0391600Y0091832D01*
X0391600Y0091033D02*
X0383200Y0091033D01*
X0383200Y0090235D02*
X0391600Y0090235D01*
X0391600Y0089436D02*
X0383200Y0089436D01*
X0383200Y0088638D02*
X0391600Y0088638D01*
X0391600Y0087839D02*
X0383200Y0087839D01*
X0383200Y0087041D02*
X0391600Y0087041D01*
X0391600Y0086242D02*
X0383200Y0086242D01*
X0383200Y0085444D02*
X0391600Y0085444D01*
X0391600Y0084645D02*
X0383200Y0084645D01*
X0383200Y0083847D02*
X0391600Y0083847D01*
X0391600Y0083048D02*
X0383200Y0083048D01*
X0383200Y0082250D02*
X0391600Y0082250D01*
X0391600Y0081451D02*
X0383200Y0081451D01*
X0383200Y0080653D02*
X0391600Y0080653D01*
X0391600Y0079854D02*
X0383200Y0079854D01*
X0383200Y0079056D02*
X0391600Y0079056D01*
X0391600Y0078257D02*
X0383200Y0078257D01*
X0383200Y0077459D02*
X0391600Y0077459D01*
X0391600Y0076660D02*
X0383200Y0076660D01*
X0383200Y0075862D02*
X0391600Y0075862D01*
X0391600Y0075063D02*
X0383200Y0075063D01*
X0383200Y0074265D02*
X0391600Y0074265D01*
X0391600Y0073466D02*
X0383200Y0073466D01*
X0383200Y0072668D02*
X0391600Y0072668D01*
X0391600Y0071869D02*
X0383200Y0071869D01*
X0383200Y0071070D02*
X0391600Y0071070D01*
X0391600Y0070272D02*
X0383200Y0070272D01*
X0383200Y0069473D02*
X0391600Y0069473D01*
X0391600Y0068675D02*
X0383200Y0068675D01*
X0383200Y0067876D02*
X0391600Y0067876D01*
X0391600Y0067078D02*
X0383200Y0067078D01*
X0383200Y0066279D02*
X0391600Y0066279D01*
X0391600Y0065481D02*
X0383200Y0065481D01*
X0383200Y0064682D02*
X0391600Y0064682D01*
X0391600Y0063884D02*
X0383200Y0063884D01*
X0383200Y0063085D02*
X0391600Y0063085D01*
X0391600Y0062287D02*
X0383200Y0062287D01*
X0383200Y0061488D02*
X0391600Y0061488D01*
X0391600Y0060690D02*
X0383200Y0060690D01*
X0383200Y0059891D02*
X0391600Y0059891D01*
X0391600Y0059093D02*
X0383200Y0059093D01*
X0383200Y0058294D02*
X0391600Y0058294D01*
X0391600Y0057496D02*
X0383200Y0057496D01*
X0383200Y0056697D02*
X0391600Y0056697D01*
X0391600Y0055899D02*
X0383200Y0055899D01*
X0383200Y0055100D02*
X0391600Y0055100D01*
X0391600Y0054302D02*
X0383200Y0054302D01*
X0383200Y0053503D02*
X0391600Y0053503D01*
X0391600Y0052705D02*
X0383200Y0052705D01*
X0383200Y0051906D02*
X0391600Y0051906D01*
X0391600Y0051108D02*
X0383200Y0051108D01*
X0383200Y0050309D02*
X0391600Y0050309D01*
X0391600Y0049511D02*
X0383200Y0049511D01*
X0383200Y0048712D02*
X0391600Y0048712D01*
X0391600Y0047914D02*
X0383200Y0047914D01*
X0383200Y0047115D02*
X0391600Y0047115D01*
X0391600Y0046317D02*
X0383200Y0046317D01*
X0383200Y0045518D02*
X0391600Y0045518D01*
X0391600Y0044720D02*
X0383200Y0044720D01*
X0383200Y0043921D02*
X0391600Y0043921D01*
X0391600Y0043123D02*
X0383200Y0043123D01*
X0383200Y0042324D02*
X0391600Y0042324D01*
X0391600Y0041526D02*
X0383200Y0041526D01*
X0383200Y0040727D02*
X0391600Y0040727D01*
X0391600Y0039929D02*
X0383200Y0039929D01*
X0383200Y0039130D02*
X0391600Y0039130D01*
X0391600Y0038332D02*
X0383200Y0038332D01*
X0383200Y0037533D02*
X0391600Y0037533D01*
X0391600Y0036734D02*
X0383200Y0036734D01*
X0383200Y0035936D02*
X0391600Y0035936D01*
X0391600Y0035137D02*
X0383200Y0035137D01*
X0383200Y0034339D02*
X0391600Y0034339D01*
X0391600Y0033540D02*
X0383200Y0033540D01*
X0383200Y0032742D02*
X0391600Y0032742D01*
X0391600Y0031943D02*
X0383200Y0031943D01*
X0383200Y0031145D02*
X0391600Y0031145D01*
X0391600Y0030346D02*
X0383200Y0030346D01*
X0383200Y0029548D02*
X0391600Y0029548D01*
X0391600Y0028749D02*
X0383200Y0028749D01*
X0383200Y0027951D02*
X0391600Y0027951D01*
X0391600Y0027152D02*
X0383200Y0027152D01*
X0383200Y0026354D02*
X0391600Y0026354D01*
X0391600Y0025555D02*
X0383200Y0025555D01*
X0383200Y0024757D02*
X0391600Y0024757D01*
X0391600Y0023958D02*
X0383200Y0023958D01*
X0383200Y0023160D02*
X0391600Y0023160D01*
X0391600Y0022361D02*
X0383200Y0022361D01*
X0383200Y0021563D02*
X0391600Y0021563D01*
X0391600Y0020764D02*
X0383200Y0020764D01*
X0383200Y0019966D02*
X0391600Y0019966D01*
X0391600Y0019167D02*
X0383200Y0019167D01*
X0383200Y0018369D02*
X0391600Y0018369D01*
X0391600Y0017570D02*
X0383200Y0017570D01*
X0383200Y0016772D02*
X0391600Y0016772D01*
X0391600Y0015973D02*
X0383200Y0015973D01*
X0382437Y0015175D02*
X0391600Y0015175D01*
X0391600Y0014376D02*
X0381639Y0014376D01*
X0380840Y0013578D02*
X0391600Y0013578D01*
X0391600Y0012779D02*
X0380042Y0012779D01*
X0379243Y0011981D02*
X0391600Y0011981D01*
X0391600Y0011182D02*
X0378445Y0011182D01*
X0377646Y0010384D02*
X0391600Y0010384D01*
X0391600Y0009585D02*
X0376848Y0009585D01*
X0376049Y0008787D02*
X0391600Y0008787D01*
X0391600Y0007988D02*
X0375251Y0007988D01*
X0374452Y0007190D02*
X0391600Y0007190D01*
X0391600Y0006391D02*
X0373654Y0006391D01*
X0372855Y0005593D02*
X0391600Y0005593D01*
X0391600Y0004794D02*
X0372057Y0004794D01*
X0371258Y0003996D02*
X0391600Y0003996D01*
X0391600Y0003197D02*
X0370460Y0003197D01*
X0369661Y0002399D02*
X0391600Y0002399D01*
X0391600Y0001600D02*
X0368863Y0001600D01*
X0366733Y0003996D02*
X0031467Y0003996D01*
X0030669Y0004794D02*
X0367531Y0004794D01*
X0368330Y0005593D02*
X0029870Y0005593D01*
X0029072Y0006391D02*
X0369128Y0006391D01*
X0369927Y0007190D02*
X0028273Y0007190D01*
X0027475Y0007988D02*
X0029239Y0007988D01*
X0030031Y0007700D02*
X0032263Y0007700D01*
X0033169Y0007700D01*
X0033169Y0007700D01*
X0036119Y0008773D01*
X0038523Y0010791D01*
X0040092Y0013509D01*
X0040637Y0016600D01*
X0040092Y0019691D01*
X0038523Y0022409D01*
X0038523Y0022409D01*
X0036119Y0024427D01*
X0036119Y0024427D01*
X0033169Y0025500D01*
X0030031Y0025500D01*
X0027081Y0024427D01*
X0024677Y0022409D01*
X0023108Y0019691D01*
X0022563Y0016600D01*
X0023108Y0013509D01*
X0024677Y0010791D01*
X0024677Y0010791D01*
X0027081Y0008773D01*
X0030031Y0007700D01*
X0027081Y0008773D02*
X0027081Y0008773D01*
X0027066Y0008787D02*
X0026676Y0008787D01*
X0026114Y0009585D02*
X0025878Y0009585D01*
X0025162Y0010384D02*
X0025079Y0010384D01*
X0024451Y0011182D02*
X0024281Y0011182D01*
X0023990Y0011981D02*
X0023482Y0011981D01*
X0023529Y0012779D02*
X0022684Y0012779D01*
X0023108Y0013509D02*
X0023108Y0013509D01*
X0023096Y0013578D02*
X0021885Y0013578D01*
X0021087Y0014376D02*
X0022955Y0014376D01*
X0022814Y0015175D02*
X0020288Y0015175D01*
X0019490Y0015973D02*
X0022673Y0015973D01*
X0022563Y0016600D02*
X0022563Y0016600D01*
X0022593Y0016772D02*
X0018691Y0016772D01*
X0018200Y0017570D02*
X0022734Y0017570D01*
X0022875Y0018369D02*
X0018200Y0018369D01*
X0018200Y0019167D02*
X0023015Y0019167D01*
X0023108Y0019691D02*
X0023108Y0019691D01*
X0023266Y0019966D02*
X0018200Y0019966D01*
X0018200Y0020764D02*
X0023727Y0020764D01*
X0024188Y0021563D02*
X0018200Y0021563D01*
X0018200Y0022361D02*
X0024649Y0022361D01*
X0024677Y0022409D02*
X0024677Y0022409D01*
X0024677Y0022409D01*
X0025572Y0023160D02*
X0018200Y0023160D01*
X0018200Y0023958D02*
X0026523Y0023958D01*
X0027081Y0024427D02*
X0027081Y0024427D01*
X0027989Y0024757D02*
X0018200Y0024757D01*
X0018200Y0025555D02*
X0380000Y0025555D01*
X0380000Y0024757D02*
X0370211Y0024757D01*
X0371119Y0024427D02*
X0368169Y0025500D01*
X0365031Y0025500D01*
X0362081Y0024427D01*
X0362081Y0024427D01*
X0359677Y0022409D01*
X0358108Y0019691D01*
X0357563Y0016600D01*
X0358108Y0013509D01*
X0359677Y0010791D01*
X0359677Y0010791D01*
X0362081Y0008773D01*
X0365031Y0007700D01*
X0365937Y0007700D01*
X0368169Y0007700D01*
X0371119Y0008773D01*
X0373523Y0010791D01*
X0375092Y0013509D01*
X0375637Y0016600D01*
X0375092Y0019691D01*
X0373523Y0022409D01*
X0373523Y0022409D01*
X0371119Y0024427D01*
X0371119Y0024427D01*
X0371677Y0023958D02*
X0380000Y0023958D01*
X0380000Y0023160D02*
X0372628Y0023160D01*
X0373551Y0022361D02*
X0380000Y0022361D01*
X0380000Y0021563D02*
X0374012Y0021563D01*
X0374473Y0020764D02*
X0380000Y0020764D01*
X0380000Y0019966D02*
X0374934Y0019966D01*
X0375092Y0019691D02*
X0375092Y0019691D01*
X0375185Y0019167D02*
X0380000Y0019167D01*
X0380000Y0018369D02*
X0375325Y0018369D01*
X0375466Y0017570D02*
X0380000Y0017570D01*
X0379509Y0016772D02*
X0375607Y0016772D01*
X0375637Y0016600D02*
X0375637Y0016600D01*
X0375527Y0015973D02*
X0378710Y0015973D01*
X0377912Y0015175D02*
X0375386Y0015175D01*
X0375245Y0014376D02*
X0377113Y0014376D01*
X0376315Y0013578D02*
X0375104Y0013578D01*
X0375092Y0013509D02*
X0375092Y0013509D01*
X0374671Y0012779D02*
X0375516Y0012779D01*
X0374718Y0011981D02*
X0374210Y0011981D01*
X0373919Y0011182D02*
X0373749Y0011182D01*
X0373523Y0010791D02*
X0373523Y0010791D01*
X0373523Y0010791D01*
X0373121Y0010384D02*
X0373038Y0010384D01*
X0372322Y0009585D02*
X0372086Y0009585D01*
X0371524Y0008787D02*
X0371134Y0008787D01*
X0371119Y0008773D02*
X0371119Y0008773D01*
X0370725Y0007988D02*
X0368961Y0007988D01*
X0364239Y0007988D02*
X0033961Y0007988D01*
X0036119Y0008773D02*
X0036119Y0008773D01*
X0036134Y0008787D02*
X0362066Y0008787D01*
X0362081Y0008773D02*
X0362081Y0008773D01*
X0361114Y0009585D02*
X0037086Y0009585D01*
X0038038Y0010384D02*
X0360162Y0010384D01*
X0359451Y0011182D02*
X0038749Y0011182D01*
X0038523Y0010791D02*
X0038523Y0010791D01*
X0038523Y0010791D01*
X0039210Y0011981D02*
X0358990Y0011981D01*
X0358529Y0012779D02*
X0039671Y0012779D01*
X0040092Y0013509D02*
X0040092Y0013509D01*
X0040104Y0013578D02*
X0358096Y0013578D01*
X0358108Y0013509D02*
X0358108Y0013509D01*
X0357955Y0014376D02*
X0040245Y0014376D01*
X0040386Y0015175D02*
X0357814Y0015175D01*
X0357673Y0015973D02*
X0040527Y0015973D01*
X0040637Y0016600D02*
X0040637Y0016600D01*
X0040607Y0016772D02*
X0357593Y0016772D01*
X0357563Y0016600D02*
X0357563Y0016600D01*
X0357734Y0017570D02*
X0040466Y0017570D01*
X0040325Y0018369D02*
X0357875Y0018369D01*
X0358015Y0019167D02*
X0040185Y0019167D01*
X0040092Y0019691D02*
X0040092Y0019691D01*
X0039934Y0019966D02*
X0358266Y0019966D01*
X0358727Y0020764D02*
X0039473Y0020764D01*
X0039012Y0021563D02*
X0359188Y0021563D01*
X0359649Y0022361D02*
X0038551Y0022361D01*
X0037628Y0023160D02*
X0360572Y0023160D01*
X0359677Y0022409D02*
X0359677Y0022409D01*
X0361523Y0023958D02*
X0036677Y0023958D01*
X0035211Y0024757D02*
X0362989Y0024757D01*
X0380000Y0026354D02*
X0018200Y0026354D01*
X0018200Y0027152D02*
X0380000Y0027152D01*
X0380000Y0027951D02*
X0018200Y0027951D01*
X0018200Y0028749D02*
X0380000Y0028749D01*
X0380000Y0029548D02*
X0018200Y0029548D01*
X0018200Y0030346D02*
X0380000Y0030346D01*
X0380000Y0031145D02*
X0018200Y0031145D01*
X0018200Y0031943D02*
X0380000Y0031943D01*
X0380000Y0032742D02*
X0018200Y0032742D01*
X0018200Y0033540D02*
X0380000Y0033540D01*
X0380000Y0034339D02*
X0018200Y0034339D01*
X0018200Y0035137D02*
X0380000Y0035137D01*
X0380000Y0035936D02*
X0018200Y0035936D01*
X0018200Y0036734D02*
X0380000Y0036734D01*
X0380000Y0037533D02*
X0018200Y0037533D01*
X0018200Y0038332D02*
X0380000Y0038332D01*
X0380000Y0039130D02*
X0018200Y0039130D01*
X0018200Y0039929D02*
X0380000Y0039929D01*
X0380000Y0040727D02*
X0018200Y0040727D01*
X0018200Y0041526D02*
X0380000Y0041526D01*
X0380000Y0042324D02*
X0018200Y0042324D01*
X0018200Y0043123D02*
X0380000Y0043123D01*
X0380000Y0043921D02*
X0018200Y0043921D01*
X0018200Y0044720D02*
X0380000Y0044720D01*
X0380000Y0045518D02*
X0018200Y0045518D01*
X0018200Y0046317D02*
X0380000Y0046317D01*
X0380000Y0047115D02*
X0018200Y0047115D01*
X0018200Y0047914D02*
X0380000Y0047914D01*
X0380000Y0048712D02*
X0018200Y0048712D01*
X0018200Y0049511D02*
X0380000Y0049511D01*
X0380000Y0050309D02*
X0018200Y0050309D01*
X0018200Y0051108D02*
X0380000Y0051108D01*
X0380000Y0051906D02*
X0018200Y0051906D01*
X0018200Y0052705D02*
X0380000Y0052705D01*
X0380000Y0053503D02*
X0018200Y0053503D01*
X0018200Y0054302D02*
X0380000Y0054302D01*
X0380000Y0055100D02*
X0018200Y0055100D01*
X0018200Y0055899D02*
X0380000Y0055899D01*
X0380000Y0056697D02*
X0018200Y0056697D01*
X0018200Y0057496D02*
X0380000Y0057496D01*
X0380000Y0058294D02*
X0018200Y0058294D01*
X0018200Y0059093D02*
X0380000Y0059093D01*
X0380000Y0059891D02*
X0018200Y0059891D01*
X0018200Y0060690D02*
X0380000Y0060690D01*
X0380000Y0061488D02*
X0018200Y0061488D01*
X0018200Y0062287D02*
X0380000Y0062287D01*
X0380000Y0063085D02*
X0018200Y0063085D01*
X0018200Y0063884D02*
X0380000Y0063884D01*
X0380000Y0064682D02*
X0018200Y0064682D01*
X0018200Y0065481D02*
X0380000Y0065481D01*
X0380000Y0066279D02*
X0018200Y0066279D01*
X0018200Y0067078D02*
X0380000Y0067078D01*
X0380000Y0067876D02*
X0018200Y0067876D01*
X0018200Y0068675D02*
X0380000Y0068675D01*
X0380000Y0069473D02*
X0018200Y0069473D01*
X0018200Y0070272D02*
X0380000Y0070272D01*
X0380000Y0071070D02*
X0018200Y0071070D01*
X0018200Y0071869D02*
X0380000Y0071869D01*
X0380000Y0072668D02*
X0018200Y0072668D01*
X0018200Y0073466D02*
X0380000Y0073466D01*
X0380000Y0074265D02*
X0018200Y0074265D01*
X0018200Y0075063D02*
X0380000Y0075063D01*
X0380000Y0075862D02*
X0018200Y0075862D01*
X0018200Y0076660D02*
X0380000Y0076660D01*
X0380000Y0077459D02*
X0018200Y0077459D01*
X0018200Y0078257D02*
X0380000Y0078257D01*
X0380000Y0079056D02*
X0018200Y0079056D01*
X0018200Y0079854D02*
X0380000Y0079854D01*
X0380000Y0080653D02*
X0018200Y0080653D01*
X0018200Y0081451D02*
X0380000Y0081451D01*
X0380000Y0082250D02*
X0018200Y0082250D01*
X0018200Y0083048D02*
X0380000Y0083048D01*
X0380000Y0083847D02*
X0018200Y0083847D01*
X0018200Y0084645D02*
X0380000Y0084645D01*
X0380000Y0085444D02*
X0018200Y0085444D01*
X0018200Y0086242D02*
X0380000Y0086242D01*
X0380000Y0087041D02*
X0018200Y0087041D01*
X0018200Y0087839D02*
X0380000Y0087839D01*
X0380000Y0088638D02*
X0018200Y0088638D01*
X0018200Y0089436D02*
X0380000Y0089436D01*
X0380000Y0090235D02*
X0018200Y0090235D01*
X0018200Y0091033D02*
X0380000Y0091033D01*
X0380000Y0091832D02*
X0018200Y0091832D01*
X0018200Y0092630D02*
X0380000Y0092630D01*
X0380000Y0093429D02*
X0018200Y0093429D01*
X0018200Y0094227D02*
X0380000Y0094227D01*
X0380000Y0095026D02*
X0018200Y0095026D01*
X0018200Y0095824D02*
X0380000Y0095824D01*
X0380000Y0096623D02*
X0018200Y0096623D01*
X0018200Y0097421D02*
X0380000Y0097421D01*
X0380000Y0098220D02*
X0018200Y0098220D01*
X0018200Y0099018D02*
X0380000Y0099018D01*
X0380000Y0099817D02*
X0018200Y0099817D01*
X0018200Y0100615D02*
X0380000Y0100615D01*
X0380000Y0101414D02*
X0018200Y0101414D01*
X0018200Y0102212D02*
X0380000Y0102212D01*
X0380000Y0103011D02*
X0018200Y0103011D01*
X0018200Y0103809D02*
X0380000Y0103809D01*
X0380000Y0104608D02*
X0018200Y0104608D01*
X0018200Y0105406D02*
X0380000Y0105406D01*
X0380000Y0106205D02*
X0018200Y0106205D01*
X0018200Y0107003D02*
X0380000Y0107003D01*
X0380000Y0107802D02*
X0018200Y0107802D01*
X0018200Y0108601D02*
X0380000Y0108601D01*
X0380000Y0109399D02*
X0018200Y0109399D01*
X0018200Y0110198D02*
X0380000Y0110198D01*
X0380000Y0110996D02*
X0018200Y0110996D01*
X0018200Y0111795D02*
X0380000Y0111795D01*
X0380000Y0112593D02*
X0018200Y0112593D01*
X0018200Y0113392D02*
X0380000Y0113392D01*
X0380000Y0114190D02*
X0018200Y0114190D01*
X0018200Y0114989D02*
X0380000Y0114989D01*
X0380000Y0115787D02*
X0018200Y0115787D01*
X0018200Y0116586D02*
X0380000Y0116586D01*
X0380000Y0117384D02*
X0018200Y0117384D01*
X0018200Y0118183D02*
X0380000Y0118183D01*
X0380000Y0118981D02*
X0018200Y0118981D01*
X0018200Y0119780D02*
X0380000Y0119780D01*
X0380000Y0120578D02*
X0018200Y0120578D01*
X0018200Y0121377D02*
X0380000Y0121377D01*
X0380000Y0122175D02*
X0018200Y0122175D01*
X0018200Y0122974D02*
X0380000Y0122974D01*
X0380000Y0123772D02*
X0018200Y0123772D01*
X0018200Y0124571D02*
X0380000Y0124571D01*
X0380000Y0125369D02*
X0018200Y0125369D01*
X0018200Y0126168D02*
X0380000Y0126168D01*
X0380000Y0126966D02*
X0018200Y0126966D01*
X0018200Y0127765D02*
X0380000Y0127765D01*
X0380000Y0128563D02*
X0018200Y0128563D01*
X0018200Y0129362D02*
X0380000Y0129362D01*
X0380000Y0130160D02*
X0018200Y0130160D01*
X0018200Y0130959D02*
X0380000Y0130959D01*
X0380000Y0131757D02*
X0018200Y0131757D01*
X0018200Y0132556D02*
X0380000Y0132556D01*
X0380000Y0133354D02*
X0018200Y0133354D01*
X0018200Y0134153D02*
X0380000Y0134153D01*
X0380000Y0134951D02*
X0018200Y0134951D01*
X0018200Y0135750D02*
X0380000Y0135750D01*
X0380000Y0136548D02*
X0018200Y0136548D01*
X0018200Y0137347D02*
X0380000Y0137347D01*
X0380000Y0138145D02*
X0018200Y0138145D01*
X0018200Y0138944D02*
X0380000Y0138944D01*
X0380000Y0139742D02*
X0018200Y0139742D01*
X0018200Y0140541D02*
X0380000Y0140541D01*
X0380000Y0141339D02*
X0018200Y0141339D01*
X0018200Y0142138D02*
X0380000Y0142138D01*
X0380000Y0142937D02*
X0018200Y0142937D01*
X0018200Y0143735D02*
X0380000Y0143735D01*
X0380000Y0144534D02*
X0018200Y0144534D01*
X0018200Y0145332D02*
X0380000Y0145332D01*
X0380000Y0146131D02*
X0018200Y0146131D01*
X0018200Y0146929D02*
X0380000Y0146929D01*
X0380000Y0147728D02*
X0018200Y0147728D01*
X0018200Y0148526D02*
X0380000Y0148526D01*
X0380000Y0149325D02*
X0018200Y0149325D01*
X0018200Y0150123D02*
X0380000Y0150123D01*
X0380000Y0150922D02*
X0018200Y0150922D01*
X0018200Y0151720D02*
X0380000Y0151720D01*
X0380000Y0152519D02*
X0018200Y0152519D01*
X0018200Y0153317D02*
X0380000Y0153317D01*
X0380000Y0154116D02*
X0018200Y0154116D01*
X0018200Y0154914D02*
X0380000Y0154914D01*
X0380000Y0155713D02*
X0018200Y0155713D01*
X0018200Y0156511D02*
X0380000Y0156511D01*
X0380000Y0157310D02*
X0018200Y0157310D01*
X0018200Y0158108D02*
X0380000Y0158108D01*
X0380000Y0158907D02*
X0018200Y0158907D01*
X0018200Y0159705D02*
X0380000Y0159705D01*
X0380000Y0160504D02*
X0018200Y0160504D01*
X0018200Y0161302D02*
X0380000Y0161302D01*
X0380000Y0162101D02*
X0018200Y0162101D01*
X0018200Y0162899D02*
X0380000Y0162899D01*
X0380000Y0163698D02*
X0018200Y0163698D01*
X0018200Y0164496D02*
X0380000Y0164496D01*
X0380000Y0165295D02*
X0018200Y0165295D01*
X0018200Y0166093D02*
X0380000Y0166093D01*
X0380000Y0166892D02*
X0018200Y0166892D01*
X0018200Y0167690D02*
X0380000Y0167690D01*
X0380000Y0168489D02*
X0018200Y0168489D01*
X0018200Y0169287D02*
X0380000Y0169287D01*
X0380000Y0170086D02*
X0018200Y0170086D01*
X0018200Y0170884D02*
X0380000Y0170884D01*
X0380000Y0171683D02*
X0018200Y0171683D01*
X0018200Y0172481D02*
X0380000Y0172481D01*
X0380000Y0173280D02*
X0018200Y0173280D01*
X0018200Y0174078D02*
X0380000Y0174078D01*
X0380000Y0174877D02*
X0018200Y0174877D01*
X0018200Y0175675D02*
X0380000Y0175675D01*
X0380000Y0176474D02*
X0018200Y0176474D01*
X0018200Y0177272D02*
X0380000Y0177272D01*
X0380000Y0178071D02*
X0018200Y0178071D01*
X0018200Y0178870D02*
X0380000Y0178870D01*
X0380000Y0179668D02*
X0018200Y0179668D01*
X0018200Y0180467D02*
X0380000Y0180467D01*
X0380000Y0181265D02*
X0018200Y0181265D01*
X0018200Y0182064D02*
X0380000Y0182064D01*
X0380000Y0182862D02*
X0018200Y0182862D01*
X0018200Y0183661D02*
X0380000Y0183661D01*
X0380000Y0184459D02*
X0018200Y0184459D01*
X0018200Y0185258D02*
X0380000Y0185258D01*
X0380000Y0186056D02*
X0018200Y0186056D01*
X0018200Y0186855D02*
X0380000Y0186855D01*
X0380000Y0187653D02*
X0018200Y0187653D01*
X0018200Y0188452D02*
X0380000Y0188452D01*
X0380000Y0189250D02*
X0018200Y0189250D01*
X0018200Y0190049D02*
X0380000Y0190049D01*
X0380000Y0190847D02*
X0018200Y0190847D01*
X0018200Y0191646D02*
X0380000Y0191646D01*
X0380000Y0192444D02*
X0018200Y0192444D01*
X0018200Y0193243D02*
X0380000Y0193243D01*
X0380000Y0194041D02*
X0018200Y0194041D01*
X0018200Y0194840D02*
X0380000Y0194840D01*
X0380000Y0195638D02*
X0018200Y0195638D01*
X0018200Y0196437D02*
X0380000Y0196437D01*
X0380000Y0197235D02*
X0018200Y0197235D01*
X0018200Y0198034D02*
X0380000Y0198034D01*
X0380000Y0198832D02*
X0018200Y0198832D01*
X0018200Y0199631D02*
X0380000Y0199631D01*
X0380000Y0200429D02*
X0018200Y0200429D01*
X0018200Y0201228D02*
X0380000Y0201228D01*
X0380000Y0202026D02*
X0018200Y0202026D01*
X0018200Y0202825D02*
X0380000Y0202825D01*
X0380000Y0203623D02*
X0018200Y0203623D01*
X0018200Y0204422D02*
X0380000Y0204422D01*
X0380000Y0205220D02*
X0018200Y0205220D01*
X0018200Y0206019D02*
X0380000Y0206019D01*
X0380000Y0206817D02*
X0018200Y0206817D01*
X0018200Y0207616D02*
X0380000Y0207616D01*
X0380000Y0208414D02*
X0018200Y0208414D01*
X0018200Y0209213D02*
X0380000Y0209213D01*
X0380000Y0210011D02*
X0018200Y0210011D01*
X0018200Y0210810D02*
X0380000Y0210810D01*
X0380000Y0211608D02*
X0018200Y0211608D01*
X0018200Y0212407D02*
X0380000Y0212407D01*
X0380000Y0213205D02*
X0018200Y0213205D01*
X0018200Y0214004D02*
X0380000Y0214004D01*
X0380000Y0214803D02*
X0018200Y0214803D01*
X0018200Y0215601D02*
X0380000Y0215601D01*
X0380000Y0216400D02*
X0018200Y0216400D01*
X0018200Y0217198D02*
X0380000Y0217198D01*
X0380000Y0217997D02*
X0018200Y0217997D01*
X0018200Y0218795D02*
X0380000Y0218795D01*
X0380000Y0219594D02*
X0018200Y0219594D01*
X0018200Y0220392D02*
X0380000Y0220392D01*
X0380000Y0221191D02*
X0018200Y0221191D01*
X0018200Y0221989D02*
X0380000Y0221989D01*
X0380000Y0222788D02*
X0018200Y0222788D01*
X0018200Y0223586D02*
X0380000Y0223586D01*
X0380000Y0224385D02*
X0018200Y0224385D01*
X0018200Y0225183D02*
X0380000Y0225183D01*
X0380000Y0225982D02*
X0018200Y0225982D01*
X0018200Y0226780D02*
X0380000Y0226780D01*
X0380000Y0227579D02*
X0018200Y0227579D01*
X0018200Y0228377D02*
X0380000Y0228377D01*
X0380000Y0229176D02*
X0018200Y0229176D01*
X0018200Y0229974D02*
X0380000Y0229974D01*
X0380000Y0230773D02*
X0018200Y0230773D01*
X0018200Y0231571D02*
X0380000Y0231571D01*
X0363744Y0233168D02*
X0034456Y0233168D01*
X0036119Y0233773D02*
X0036119Y0233773D01*
X0036349Y0233967D02*
X0361851Y0233967D01*
X0362081Y0233773D02*
X0362081Y0233773D01*
X0360899Y0234765D02*
X0037301Y0234765D01*
X0038252Y0235564D02*
X0359948Y0235564D01*
X0359347Y0236362D02*
X0038853Y0236362D01*
X0038523Y0235791D02*
X0038523Y0235791D01*
X0039314Y0237161D02*
X0358886Y0237161D01*
X0358425Y0237959D02*
X0039775Y0237959D01*
X0040136Y0238758D02*
X0358064Y0238758D01*
X0358108Y0238509D02*
X0358108Y0238509D01*
X0357923Y0239556D02*
X0040277Y0239556D01*
X0040418Y0240355D02*
X0357782Y0240355D01*
X0357641Y0241153D02*
X0040559Y0241153D01*
X0040575Y0241952D02*
X0357625Y0241952D01*
X0357563Y0241600D02*
X0357563Y0241600D01*
X0357766Y0242750D02*
X0040434Y0242750D01*
X0040294Y0243549D02*
X0357906Y0243549D01*
X0358047Y0244347D02*
X0040153Y0244347D01*
X0040092Y0244691D02*
X0040092Y0244691D01*
X0039830Y0245146D02*
X0358370Y0245146D01*
X0358108Y0244691D02*
X0358108Y0244691D01*
X0358831Y0245944D02*
X0039369Y0245944D01*
X0038908Y0246743D02*
X0359292Y0246743D01*
X0359677Y0247409D02*
X0359677Y0247409D01*
X0359677Y0247409D01*
X0359835Y0247541D02*
X0038365Y0247541D01*
X0037414Y0248340D02*
X0360787Y0248340D01*
X0361738Y0249139D02*
X0036462Y0249139D01*
X0034716Y0249937D02*
X0363484Y0249937D01*
X0362081Y0249427D02*
X0362081Y0249427D01*
M02*
