G75*
%MOIN*%
%OFA0B0*%
%FSLAX25Y25*%
%IPPOS*%
%LPD*%
%AMOC8*
5,1,8,0,0,1.08239X$1,22.5*
%
%ADD10C,0.00800*%
%ADD11C,0.00000*%
%ADD12C,0.02362*%
D10*
X0016600Y0016600D02*
X0031600Y0001600D01*
X0366600Y0001600D01*
X0381600Y0016600D01*
X0381600Y0241600D01*
X0366600Y0256600D01*
X0031600Y0256600D01*
X0016600Y0241600D01*
X0016600Y0016600D01*
D11*
X0025100Y0016600D02*
X0025102Y0016761D01*
X0025108Y0016921D01*
X0025118Y0017082D01*
X0025132Y0017242D01*
X0025150Y0017402D01*
X0025171Y0017561D01*
X0025197Y0017720D01*
X0025227Y0017878D01*
X0025260Y0018035D01*
X0025298Y0018192D01*
X0025339Y0018347D01*
X0025384Y0018501D01*
X0025433Y0018654D01*
X0025486Y0018806D01*
X0025542Y0018957D01*
X0025603Y0019106D01*
X0025666Y0019254D01*
X0025734Y0019400D01*
X0025805Y0019544D01*
X0025879Y0019686D01*
X0025957Y0019827D01*
X0026039Y0019965D01*
X0026124Y0020102D01*
X0026212Y0020236D01*
X0026304Y0020368D01*
X0026399Y0020498D01*
X0026497Y0020626D01*
X0026598Y0020751D01*
X0026702Y0020873D01*
X0026809Y0020993D01*
X0026919Y0021110D01*
X0027032Y0021225D01*
X0027148Y0021336D01*
X0027267Y0021445D01*
X0027388Y0021550D01*
X0027512Y0021653D01*
X0027638Y0021753D01*
X0027766Y0021849D01*
X0027897Y0021942D01*
X0028031Y0022032D01*
X0028166Y0022119D01*
X0028304Y0022202D01*
X0028443Y0022282D01*
X0028585Y0022358D01*
X0028728Y0022431D01*
X0028873Y0022500D01*
X0029020Y0022566D01*
X0029168Y0022628D01*
X0029318Y0022686D01*
X0029469Y0022741D01*
X0029622Y0022792D01*
X0029776Y0022839D01*
X0029931Y0022882D01*
X0030087Y0022921D01*
X0030243Y0022957D01*
X0030401Y0022988D01*
X0030559Y0023016D01*
X0030718Y0023040D01*
X0030878Y0023060D01*
X0031038Y0023076D01*
X0031198Y0023088D01*
X0031359Y0023096D01*
X0031520Y0023100D01*
X0031680Y0023100D01*
X0031841Y0023096D01*
X0032002Y0023088D01*
X0032162Y0023076D01*
X0032322Y0023060D01*
X0032482Y0023040D01*
X0032641Y0023016D01*
X0032799Y0022988D01*
X0032957Y0022957D01*
X0033113Y0022921D01*
X0033269Y0022882D01*
X0033424Y0022839D01*
X0033578Y0022792D01*
X0033731Y0022741D01*
X0033882Y0022686D01*
X0034032Y0022628D01*
X0034180Y0022566D01*
X0034327Y0022500D01*
X0034472Y0022431D01*
X0034615Y0022358D01*
X0034757Y0022282D01*
X0034896Y0022202D01*
X0035034Y0022119D01*
X0035169Y0022032D01*
X0035303Y0021942D01*
X0035434Y0021849D01*
X0035562Y0021753D01*
X0035688Y0021653D01*
X0035812Y0021550D01*
X0035933Y0021445D01*
X0036052Y0021336D01*
X0036168Y0021225D01*
X0036281Y0021110D01*
X0036391Y0020993D01*
X0036498Y0020873D01*
X0036602Y0020751D01*
X0036703Y0020626D01*
X0036801Y0020498D01*
X0036896Y0020368D01*
X0036988Y0020236D01*
X0037076Y0020102D01*
X0037161Y0019965D01*
X0037243Y0019827D01*
X0037321Y0019686D01*
X0037395Y0019544D01*
X0037466Y0019400D01*
X0037534Y0019254D01*
X0037597Y0019106D01*
X0037658Y0018957D01*
X0037714Y0018806D01*
X0037767Y0018654D01*
X0037816Y0018501D01*
X0037861Y0018347D01*
X0037902Y0018192D01*
X0037940Y0018035D01*
X0037973Y0017878D01*
X0038003Y0017720D01*
X0038029Y0017561D01*
X0038050Y0017402D01*
X0038068Y0017242D01*
X0038082Y0017082D01*
X0038092Y0016921D01*
X0038098Y0016761D01*
X0038100Y0016600D01*
X0038098Y0016439D01*
X0038092Y0016279D01*
X0038082Y0016118D01*
X0038068Y0015958D01*
X0038050Y0015798D01*
X0038029Y0015639D01*
X0038003Y0015480D01*
X0037973Y0015322D01*
X0037940Y0015165D01*
X0037902Y0015008D01*
X0037861Y0014853D01*
X0037816Y0014699D01*
X0037767Y0014546D01*
X0037714Y0014394D01*
X0037658Y0014243D01*
X0037597Y0014094D01*
X0037534Y0013946D01*
X0037466Y0013800D01*
X0037395Y0013656D01*
X0037321Y0013514D01*
X0037243Y0013373D01*
X0037161Y0013235D01*
X0037076Y0013098D01*
X0036988Y0012964D01*
X0036896Y0012832D01*
X0036801Y0012702D01*
X0036703Y0012574D01*
X0036602Y0012449D01*
X0036498Y0012327D01*
X0036391Y0012207D01*
X0036281Y0012090D01*
X0036168Y0011975D01*
X0036052Y0011864D01*
X0035933Y0011755D01*
X0035812Y0011650D01*
X0035688Y0011547D01*
X0035562Y0011447D01*
X0035434Y0011351D01*
X0035303Y0011258D01*
X0035169Y0011168D01*
X0035034Y0011081D01*
X0034896Y0010998D01*
X0034757Y0010918D01*
X0034615Y0010842D01*
X0034472Y0010769D01*
X0034327Y0010700D01*
X0034180Y0010634D01*
X0034032Y0010572D01*
X0033882Y0010514D01*
X0033731Y0010459D01*
X0033578Y0010408D01*
X0033424Y0010361D01*
X0033269Y0010318D01*
X0033113Y0010279D01*
X0032957Y0010243D01*
X0032799Y0010212D01*
X0032641Y0010184D01*
X0032482Y0010160D01*
X0032322Y0010140D01*
X0032162Y0010124D01*
X0032002Y0010112D01*
X0031841Y0010104D01*
X0031680Y0010100D01*
X0031520Y0010100D01*
X0031359Y0010104D01*
X0031198Y0010112D01*
X0031038Y0010124D01*
X0030878Y0010140D01*
X0030718Y0010160D01*
X0030559Y0010184D01*
X0030401Y0010212D01*
X0030243Y0010243D01*
X0030087Y0010279D01*
X0029931Y0010318D01*
X0029776Y0010361D01*
X0029622Y0010408D01*
X0029469Y0010459D01*
X0029318Y0010514D01*
X0029168Y0010572D01*
X0029020Y0010634D01*
X0028873Y0010700D01*
X0028728Y0010769D01*
X0028585Y0010842D01*
X0028443Y0010918D01*
X0028304Y0010998D01*
X0028166Y0011081D01*
X0028031Y0011168D01*
X0027897Y0011258D01*
X0027766Y0011351D01*
X0027638Y0011447D01*
X0027512Y0011547D01*
X0027388Y0011650D01*
X0027267Y0011755D01*
X0027148Y0011864D01*
X0027032Y0011975D01*
X0026919Y0012090D01*
X0026809Y0012207D01*
X0026702Y0012327D01*
X0026598Y0012449D01*
X0026497Y0012574D01*
X0026399Y0012702D01*
X0026304Y0012832D01*
X0026212Y0012964D01*
X0026124Y0013098D01*
X0026039Y0013235D01*
X0025957Y0013373D01*
X0025879Y0013514D01*
X0025805Y0013656D01*
X0025734Y0013800D01*
X0025666Y0013946D01*
X0025603Y0014094D01*
X0025542Y0014243D01*
X0025486Y0014394D01*
X0025433Y0014546D01*
X0025384Y0014699D01*
X0025339Y0014853D01*
X0025298Y0015008D01*
X0025260Y0015165D01*
X0025227Y0015322D01*
X0025197Y0015480D01*
X0025171Y0015639D01*
X0025150Y0015798D01*
X0025132Y0015958D01*
X0025118Y0016118D01*
X0025108Y0016279D01*
X0025102Y0016439D01*
X0025100Y0016600D01*
X0027600Y0055100D02*
X0027602Y0055226D01*
X0027608Y0055352D01*
X0027618Y0055478D01*
X0027632Y0055604D01*
X0027650Y0055729D01*
X0027672Y0055853D01*
X0027697Y0055977D01*
X0027727Y0056100D01*
X0027760Y0056221D01*
X0027798Y0056342D01*
X0027839Y0056461D01*
X0027884Y0056580D01*
X0027932Y0056696D01*
X0027984Y0056811D01*
X0028040Y0056924D01*
X0028100Y0057036D01*
X0028163Y0057145D01*
X0028229Y0057253D01*
X0028298Y0057358D01*
X0028371Y0057461D01*
X0028448Y0057562D01*
X0028527Y0057660D01*
X0028609Y0057756D01*
X0028695Y0057849D01*
X0028783Y0057940D01*
X0028874Y0058027D01*
X0028968Y0058112D01*
X0029064Y0058193D01*
X0029163Y0058272D01*
X0029264Y0058347D01*
X0029368Y0058419D01*
X0029474Y0058488D01*
X0029582Y0058554D01*
X0029692Y0058616D01*
X0029804Y0058674D01*
X0029917Y0058729D01*
X0030033Y0058780D01*
X0030150Y0058828D01*
X0030268Y0058872D01*
X0030388Y0058912D01*
X0030509Y0058948D01*
X0030631Y0058981D01*
X0030754Y0059010D01*
X0030878Y0059034D01*
X0031002Y0059055D01*
X0031127Y0059072D01*
X0031253Y0059085D01*
X0031379Y0059094D01*
X0031505Y0059099D01*
X0031632Y0059100D01*
X0031758Y0059097D01*
X0031884Y0059090D01*
X0032010Y0059079D01*
X0032135Y0059064D01*
X0032260Y0059045D01*
X0032384Y0059022D01*
X0032508Y0058996D01*
X0032630Y0058965D01*
X0032752Y0058931D01*
X0032872Y0058892D01*
X0032991Y0058850D01*
X0033109Y0058805D01*
X0033225Y0058755D01*
X0033340Y0058702D01*
X0033452Y0058645D01*
X0033563Y0058585D01*
X0033672Y0058521D01*
X0033779Y0058454D01*
X0033884Y0058384D01*
X0033987Y0058310D01*
X0034087Y0058233D01*
X0034185Y0058153D01*
X0034280Y0058070D01*
X0034372Y0057984D01*
X0034462Y0057895D01*
X0034549Y0057803D01*
X0034632Y0057709D01*
X0034713Y0057612D01*
X0034791Y0057512D01*
X0034866Y0057410D01*
X0034937Y0057306D01*
X0035005Y0057199D01*
X0035069Y0057091D01*
X0035130Y0056980D01*
X0035188Y0056868D01*
X0035242Y0056754D01*
X0035292Y0056638D01*
X0035339Y0056521D01*
X0035382Y0056402D01*
X0035421Y0056282D01*
X0035457Y0056161D01*
X0035488Y0056038D01*
X0035516Y0055915D01*
X0035540Y0055791D01*
X0035560Y0055666D01*
X0035576Y0055541D01*
X0035588Y0055415D01*
X0035596Y0055289D01*
X0035600Y0055163D01*
X0035600Y0055037D01*
X0035596Y0054911D01*
X0035588Y0054785D01*
X0035576Y0054659D01*
X0035560Y0054534D01*
X0035540Y0054409D01*
X0035516Y0054285D01*
X0035488Y0054162D01*
X0035457Y0054039D01*
X0035421Y0053918D01*
X0035382Y0053798D01*
X0035339Y0053679D01*
X0035292Y0053562D01*
X0035242Y0053446D01*
X0035188Y0053332D01*
X0035130Y0053220D01*
X0035069Y0053109D01*
X0035005Y0053001D01*
X0034937Y0052894D01*
X0034866Y0052790D01*
X0034791Y0052688D01*
X0034713Y0052588D01*
X0034632Y0052491D01*
X0034549Y0052397D01*
X0034462Y0052305D01*
X0034372Y0052216D01*
X0034280Y0052130D01*
X0034185Y0052047D01*
X0034087Y0051967D01*
X0033987Y0051890D01*
X0033884Y0051816D01*
X0033779Y0051746D01*
X0033672Y0051679D01*
X0033563Y0051615D01*
X0033452Y0051555D01*
X0033340Y0051498D01*
X0033225Y0051445D01*
X0033109Y0051395D01*
X0032991Y0051350D01*
X0032872Y0051308D01*
X0032752Y0051269D01*
X0032630Y0051235D01*
X0032508Y0051204D01*
X0032384Y0051178D01*
X0032260Y0051155D01*
X0032135Y0051136D01*
X0032010Y0051121D01*
X0031884Y0051110D01*
X0031758Y0051103D01*
X0031632Y0051100D01*
X0031505Y0051101D01*
X0031379Y0051106D01*
X0031253Y0051115D01*
X0031127Y0051128D01*
X0031002Y0051145D01*
X0030878Y0051166D01*
X0030754Y0051190D01*
X0030631Y0051219D01*
X0030509Y0051252D01*
X0030388Y0051288D01*
X0030268Y0051328D01*
X0030150Y0051372D01*
X0030033Y0051420D01*
X0029917Y0051471D01*
X0029804Y0051526D01*
X0029692Y0051584D01*
X0029582Y0051646D01*
X0029474Y0051712D01*
X0029368Y0051781D01*
X0029264Y0051853D01*
X0029163Y0051928D01*
X0029064Y0052007D01*
X0028968Y0052088D01*
X0028874Y0052173D01*
X0028783Y0052260D01*
X0028695Y0052351D01*
X0028609Y0052444D01*
X0028527Y0052540D01*
X0028448Y0052638D01*
X0028371Y0052739D01*
X0028298Y0052842D01*
X0028229Y0052947D01*
X0028163Y0053055D01*
X0028100Y0053164D01*
X0028040Y0053276D01*
X0027984Y0053389D01*
X0027932Y0053504D01*
X0027884Y0053620D01*
X0027839Y0053739D01*
X0027798Y0053858D01*
X0027760Y0053979D01*
X0027727Y0054100D01*
X0027697Y0054223D01*
X0027672Y0054347D01*
X0027650Y0054471D01*
X0027632Y0054596D01*
X0027618Y0054722D01*
X0027608Y0054848D01*
X0027602Y0054974D01*
X0027600Y0055100D01*
X0045600Y0055100D02*
X0045602Y0055226D01*
X0045608Y0055352D01*
X0045618Y0055478D01*
X0045632Y0055604D01*
X0045650Y0055729D01*
X0045672Y0055853D01*
X0045697Y0055977D01*
X0045727Y0056100D01*
X0045760Y0056221D01*
X0045798Y0056342D01*
X0045839Y0056461D01*
X0045884Y0056580D01*
X0045932Y0056696D01*
X0045984Y0056811D01*
X0046040Y0056924D01*
X0046100Y0057036D01*
X0046163Y0057145D01*
X0046229Y0057253D01*
X0046298Y0057358D01*
X0046371Y0057461D01*
X0046448Y0057562D01*
X0046527Y0057660D01*
X0046609Y0057756D01*
X0046695Y0057849D01*
X0046783Y0057940D01*
X0046874Y0058027D01*
X0046968Y0058112D01*
X0047064Y0058193D01*
X0047163Y0058272D01*
X0047264Y0058347D01*
X0047368Y0058419D01*
X0047474Y0058488D01*
X0047582Y0058554D01*
X0047692Y0058616D01*
X0047804Y0058674D01*
X0047917Y0058729D01*
X0048033Y0058780D01*
X0048150Y0058828D01*
X0048268Y0058872D01*
X0048388Y0058912D01*
X0048509Y0058948D01*
X0048631Y0058981D01*
X0048754Y0059010D01*
X0048878Y0059034D01*
X0049002Y0059055D01*
X0049127Y0059072D01*
X0049253Y0059085D01*
X0049379Y0059094D01*
X0049505Y0059099D01*
X0049632Y0059100D01*
X0049758Y0059097D01*
X0049884Y0059090D01*
X0050010Y0059079D01*
X0050135Y0059064D01*
X0050260Y0059045D01*
X0050384Y0059022D01*
X0050508Y0058996D01*
X0050630Y0058965D01*
X0050752Y0058931D01*
X0050872Y0058892D01*
X0050991Y0058850D01*
X0051109Y0058805D01*
X0051225Y0058755D01*
X0051340Y0058702D01*
X0051452Y0058645D01*
X0051563Y0058585D01*
X0051672Y0058521D01*
X0051779Y0058454D01*
X0051884Y0058384D01*
X0051987Y0058310D01*
X0052087Y0058233D01*
X0052185Y0058153D01*
X0052280Y0058070D01*
X0052372Y0057984D01*
X0052462Y0057895D01*
X0052549Y0057803D01*
X0052632Y0057709D01*
X0052713Y0057612D01*
X0052791Y0057512D01*
X0052866Y0057410D01*
X0052937Y0057306D01*
X0053005Y0057199D01*
X0053069Y0057091D01*
X0053130Y0056980D01*
X0053188Y0056868D01*
X0053242Y0056754D01*
X0053292Y0056638D01*
X0053339Y0056521D01*
X0053382Y0056402D01*
X0053421Y0056282D01*
X0053457Y0056161D01*
X0053488Y0056038D01*
X0053516Y0055915D01*
X0053540Y0055791D01*
X0053560Y0055666D01*
X0053576Y0055541D01*
X0053588Y0055415D01*
X0053596Y0055289D01*
X0053600Y0055163D01*
X0053600Y0055037D01*
X0053596Y0054911D01*
X0053588Y0054785D01*
X0053576Y0054659D01*
X0053560Y0054534D01*
X0053540Y0054409D01*
X0053516Y0054285D01*
X0053488Y0054162D01*
X0053457Y0054039D01*
X0053421Y0053918D01*
X0053382Y0053798D01*
X0053339Y0053679D01*
X0053292Y0053562D01*
X0053242Y0053446D01*
X0053188Y0053332D01*
X0053130Y0053220D01*
X0053069Y0053109D01*
X0053005Y0053001D01*
X0052937Y0052894D01*
X0052866Y0052790D01*
X0052791Y0052688D01*
X0052713Y0052588D01*
X0052632Y0052491D01*
X0052549Y0052397D01*
X0052462Y0052305D01*
X0052372Y0052216D01*
X0052280Y0052130D01*
X0052185Y0052047D01*
X0052087Y0051967D01*
X0051987Y0051890D01*
X0051884Y0051816D01*
X0051779Y0051746D01*
X0051672Y0051679D01*
X0051563Y0051615D01*
X0051452Y0051555D01*
X0051340Y0051498D01*
X0051225Y0051445D01*
X0051109Y0051395D01*
X0050991Y0051350D01*
X0050872Y0051308D01*
X0050752Y0051269D01*
X0050630Y0051235D01*
X0050508Y0051204D01*
X0050384Y0051178D01*
X0050260Y0051155D01*
X0050135Y0051136D01*
X0050010Y0051121D01*
X0049884Y0051110D01*
X0049758Y0051103D01*
X0049632Y0051100D01*
X0049505Y0051101D01*
X0049379Y0051106D01*
X0049253Y0051115D01*
X0049127Y0051128D01*
X0049002Y0051145D01*
X0048878Y0051166D01*
X0048754Y0051190D01*
X0048631Y0051219D01*
X0048509Y0051252D01*
X0048388Y0051288D01*
X0048268Y0051328D01*
X0048150Y0051372D01*
X0048033Y0051420D01*
X0047917Y0051471D01*
X0047804Y0051526D01*
X0047692Y0051584D01*
X0047582Y0051646D01*
X0047474Y0051712D01*
X0047368Y0051781D01*
X0047264Y0051853D01*
X0047163Y0051928D01*
X0047064Y0052007D01*
X0046968Y0052088D01*
X0046874Y0052173D01*
X0046783Y0052260D01*
X0046695Y0052351D01*
X0046609Y0052444D01*
X0046527Y0052540D01*
X0046448Y0052638D01*
X0046371Y0052739D01*
X0046298Y0052842D01*
X0046229Y0052947D01*
X0046163Y0053055D01*
X0046100Y0053164D01*
X0046040Y0053276D01*
X0045984Y0053389D01*
X0045932Y0053504D01*
X0045884Y0053620D01*
X0045839Y0053739D01*
X0045798Y0053858D01*
X0045760Y0053979D01*
X0045727Y0054100D01*
X0045697Y0054223D01*
X0045672Y0054347D01*
X0045650Y0054471D01*
X0045632Y0054596D01*
X0045618Y0054722D01*
X0045608Y0054848D01*
X0045602Y0054974D01*
X0045600Y0055100D01*
X0057600Y0091600D02*
X0057602Y0091761D01*
X0057608Y0091921D01*
X0057618Y0092082D01*
X0057632Y0092242D01*
X0057650Y0092402D01*
X0057671Y0092561D01*
X0057697Y0092720D01*
X0057727Y0092878D01*
X0057760Y0093035D01*
X0057798Y0093192D01*
X0057839Y0093347D01*
X0057884Y0093501D01*
X0057933Y0093654D01*
X0057986Y0093806D01*
X0058042Y0093957D01*
X0058103Y0094106D01*
X0058166Y0094254D01*
X0058234Y0094400D01*
X0058305Y0094544D01*
X0058379Y0094686D01*
X0058457Y0094827D01*
X0058539Y0094965D01*
X0058624Y0095102D01*
X0058712Y0095236D01*
X0058804Y0095368D01*
X0058899Y0095498D01*
X0058997Y0095626D01*
X0059098Y0095751D01*
X0059202Y0095873D01*
X0059309Y0095993D01*
X0059419Y0096110D01*
X0059532Y0096225D01*
X0059648Y0096336D01*
X0059767Y0096445D01*
X0059888Y0096550D01*
X0060012Y0096653D01*
X0060138Y0096753D01*
X0060266Y0096849D01*
X0060397Y0096942D01*
X0060531Y0097032D01*
X0060666Y0097119D01*
X0060804Y0097202D01*
X0060943Y0097282D01*
X0061085Y0097358D01*
X0061228Y0097431D01*
X0061373Y0097500D01*
X0061520Y0097566D01*
X0061668Y0097628D01*
X0061818Y0097686D01*
X0061969Y0097741D01*
X0062122Y0097792D01*
X0062276Y0097839D01*
X0062431Y0097882D01*
X0062587Y0097921D01*
X0062743Y0097957D01*
X0062901Y0097988D01*
X0063059Y0098016D01*
X0063218Y0098040D01*
X0063378Y0098060D01*
X0063538Y0098076D01*
X0063698Y0098088D01*
X0063859Y0098096D01*
X0064020Y0098100D01*
X0064180Y0098100D01*
X0064341Y0098096D01*
X0064502Y0098088D01*
X0064662Y0098076D01*
X0064822Y0098060D01*
X0064982Y0098040D01*
X0065141Y0098016D01*
X0065299Y0097988D01*
X0065457Y0097957D01*
X0065613Y0097921D01*
X0065769Y0097882D01*
X0065924Y0097839D01*
X0066078Y0097792D01*
X0066231Y0097741D01*
X0066382Y0097686D01*
X0066532Y0097628D01*
X0066680Y0097566D01*
X0066827Y0097500D01*
X0066972Y0097431D01*
X0067115Y0097358D01*
X0067257Y0097282D01*
X0067396Y0097202D01*
X0067534Y0097119D01*
X0067669Y0097032D01*
X0067803Y0096942D01*
X0067934Y0096849D01*
X0068062Y0096753D01*
X0068188Y0096653D01*
X0068312Y0096550D01*
X0068433Y0096445D01*
X0068552Y0096336D01*
X0068668Y0096225D01*
X0068781Y0096110D01*
X0068891Y0095993D01*
X0068998Y0095873D01*
X0069102Y0095751D01*
X0069203Y0095626D01*
X0069301Y0095498D01*
X0069396Y0095368D01*
X0069488Y0095236D01*
X0069576Y0095102D01*
X0069661Y0094965D01*
X0069743Y0094827D01*
X0069821Y0094686D01*
X0069895Y0094544D01*
X0069966Y0094400D01*
X0070034Y0094254D01*
X0070097Y0094106D01*
X0070158Y0093957D01*
X0070214Y0093806D01*
X0070267Y0093654D01*
X0070316Y0093501D01*
X0070361Y0093347D01*
X0070402Y0093192D01*
X0070440Y0093035D01*
X0070473Y0092878D01*
X0070503Y0092720D01*
X0070529Y0092561D01*
X0070550Y0092402D01*
X0070568Y0092242D01*
X0070582Y0092082D01*
X0070592Y0091921D01*
X0070598Y0091761D01*
X0070600Y0091600D01*
X0070598Y0091439D01*
X0070592Y0091279D01*
X0070582Y0091118D01*
X0070568Y0090958D01*
X0070550Y0090798D01*
X0070529Y0090639D01*
X0070503Y0090480D01*
X0070473Y0090322D01*
X0070440Y0090165D01*
X0070402Y0090008D01*
X0070361Y0089853D01*
X0070316Y0089699D01*
X0070267Y0089546D01*
X0070214Y0089394D01*
X0070158Y0089243D01*
X0070097Y0089094D01*
X0070034Y0088946D01*
X0069966Y0088800D01*
X0069895Y0088656D01*
X0069821Y0088514D01*
X0069743Y0088373D01*
X0069661Y0088235D01*
X0069576Y0088098D01*
X0069488Y0087964D01*
X0069396Y0087832D01*
X0069301Y0087702D01*
X0069203Y0087574D01*
X0069102Y0087449D01*
X0068998Y0087327D01*
X0068891Y0087207D01*
X0068781Y0087090D01*
X0068668Y0086975D01*
X0068552Y0086864D01*
X0068433Y0086755D01*
X0068312Y0086650D01*
X0068188Y0086547D01*
X0068062Y0086447D01*
X0067934Y0086351D01*
X0067803Y0086258D01*
X0067669Y0086168D01*
X0067534Y0086081D01*
X0067396Y0085998D01*
X0067257Y0085918D01*
X0067115Y0085842D01*
X0066972Y0085769D01*
X0066827Y0085700D01*
X0066680Y0085634D01*
X0066532Y0085572D01*
X0066382Y0085514D01*
X0066231Y0085459D01*
X0066078Y0085408D01*
X0065924Y0085361D01*
X0065769Y0085318D01*
X0065613Y0085279D01*
X0065457Y0085243D01*
X0065299Y0085212D01*
X0065141Y0085184D01*
X0064982Y0085160D01*
X0064822Y0085140D01*
X0064662Y0085124D01*
X0064502Y0085112D01*
X0064341Y0085104D01*
X0064180Y0085100D01*
X0064020Y0085100D01*
X0063859Y0085104D01*
X0063698Y0085112D01*
X0063538Y0085124D01*
X0063378Y0085140D01*
X0063218Y0085160D01*
X0063059Y0085184D01*
X0062901Y0085212D01*
X0062743Y0085243D01*
X0062587Y0085279D01*
X0062431Y0085318D01*
X0062276Y0085361D01*
X0062122Y0085408D01*
X0061969Y0085459D01*
X0061818Y0085514D01*
X0061668Y0085572D01*
X0061520Y0085634D01*
X0061373Y0085700D01*
X0061228Y0085769D01*
X0061085Y0085842D01*
X0060943Y0085918D01*
X0060804Y0085998D01*
X0060666Y0086081D01*
X0060531Y0086168D01*
X0060397Y0086258D01*
X0060266Y0086351D01*
X0060138Y0086447D01*
X0060012Y0086547D01*
X0059888Y0086650D01*
X0059767Y0086755D01*
X0059648Y0086864D01*
X0059532Y0086975D01*
X0059419Y0087090D01*
X0059309Y0087207D01*
X0059202Y0087327D01*
X0059098Y0087449D01*
X0058997Y0087574D01*
X0058899Y0087702D01*
X0058804Y0087832D01*
X0058712Y0087964D01*
X0058624Y0088098D01*
X0058539Y0088235D01*
X0058457Y0088373D01*
X0058379Y0088514D01*
X0058305Y0088656D01*
X0058234Y0088800D01*
X0058166Y0088946D01*
X0058103Y0089094D01*
X0058042Y0089243D01*
X0057986Y0089394D01*
X0057933Y0089546D01*
X0057884Y0089699D01*
X0057839Y0089853D01*
X0057798Y0090008D01*
X0057760Y0090165D01*
X0057727Y0090322D01*
X0057697Y0090480D01*
X0057671Y0090639D01*
X0057650Y0090798D01*
X0057632Y0090958D01*
X0057618Y0091118D01*
X0057608Y0091279D01*
X0057602Y0091439D01*
X0057600Y0091600D01*
X0035256Y0102722D02*
X0035258Y0102793D01*
X0035264Y0102864D01*
X0035274Y0102935D01*
X0035288Y0103004D01*
X0035305Y0103073D01*
X0035327Y0103141D01*
X0035352Y0103208D01*
X0035381Y0103273D01*
X0035413Y0103336D01*
X0035449Y0103398D01*
X0035488Y0103457D01*
X0035531Y0103514D01*
X0035576Y0103569D01*
X0035625Y0103621D01*
X0035676Y0103670D01*
X0035730Y0103716D01*
X0035787Y0103760D01*
X0035845Y0103800D01*
X0035906Y0103836D01*
X0035969Y0103870D01*
X0036034Y0103899D01*
X0036100Y0103925D01*
X0036168Y0103948D01*
X0036236Y0103966D01*
X0036306Y0103981D01*
X0036376Y0103992D01*
X0036447Y0103999D01*
X0036518Y0104002D01*
X0036589Y0104001D01*
X0036660Y0103996D01*
X0036731Y0103987D01*
X0036801Y0103974D01*
X0036870Y0103958D01*
X0036938Y0103937D01*
X0037005Y0103913D01*
X0037071Y0103885D01*
X0037134Y0103853D01*
X0037196Y0103818D01*
X0037256Y0103780D01*
X0037314Y0103738D01*
X0037369Y0103694D01*
X0037422Y0103646D01*
X0037472Y0103595D01*
X0037519Y0103542D01*
X0037563Y0103486D01*
X0037604Y0103428D01*
X0037642Y0103367D01*
X0037676Y0103305D01*
X0037706Y0103240D01*
X0037733Y0103175D01*
X0037757Y0103107D01*
X0037776Y0103039D01*
X0037792Y0102970D01*
X0037804Y0102899D01*
X0037812Y0102829D01*
X0037816Y0102758D01*
X0037816Y0102686D01*
X0037812Y0102615D01*
X0037804Y0102545D01*
X0037792Y0102474D01*
X0037776Y0102405D01*
X0037757Y0102337D01*
X0037733Y0102269D01*
X0037706Y0102204D01*
X0037676Y0102139D01*
X0037642Y0102077D01*
X0037604Y0102016D01*
X0037563Y0101958D01*
X0037519Y0101902D01*
X0037472Y0101849D01*
X0037422Y0101798D01*
X0037369Y0101750D01*
X0037314Y0101706D01*
X0037256Y0101664D01*
X0037196Y0101626D01*
X0037134Y0101591D01*
X0037071Y0101559D01*
X0037005Y0101531D01*
X0036938Y0101507D01*
X0036870Y0101486D01*
X0036801Y0101470D01*
X0036731Y0101457D01*
X0036660Y0101448D01*
X0036589Y0101443D01*
X0036518Y0101442D01*
X0036447Y0101445D01*
X0036376Y0101452D01*
X0036306Y0101463D01*
X0036236Y0101478D01*
X0036168Y0101496D01*
X0036100Y0101519D01*
X0036034Y0101545D01*
X0035969Y0101574D01*
X0035906Y0101608D01*
X0035845Y0101644D01*
X0035787Y0101684D01*
X0035730Y0101728D01*
X0035676Y0101774D01*
X0035625Y0101823D01*
X0035576Y0101875D01*
X0035531Y0101930D01*
X0035488Y0101987D01*
X0035449Y0102046D01*
X0035413Y0102108D01*
X0035381Y0102171D01*
X0035352Y0102236D01*
X0035327Y0102303D01*
X0035305Y0102371D01*
X0035288Y0102440D01*
X0035274Y0102509D01*
X0035264Y0102580D01*
X0035258Y0102651D01*
X0035256Y0102722D01*
X0035256Y0125478D02*
X0035258Y0125549D01*
X0035264Y0125620D01*
X0035274Y0125691D01*
X0035288Y0125760D01*
X0035305Y0125829D01*
X0035327Y0125897D01*
X0035352Y0125964D01*
X0035381Y0126029D01*
X0035413Y0126092D01*
X0035449Y0126154D01*
X0035488Y0126213D01*
X0035531Y0126270D01*
X0035576Y0126325D01*
X0035625Y0126377D01*
X0035676Y0126426D01*
X0035730Y0126472D01*
X0035787Y0126516D01*
X0035845Y0126556D01*
X0035906Y0126592D01*
X0035969Y0126626D01*
X0036034Y0126655D01*
X0036100Y0126681D01*
X0036168Y0126704D01*
X0036236Y0126722D01*
X0036306Y0126737D01*
X0036376Y0126748D01*
X0036447Y0126755D01*
X0036518Y0126758D01*
X0036589Y0126757D01*
X0036660Y0126752D01*
X0036731Y0126743D01*
X0036801Y0126730D01*
X0036870Y0126714D01*
X0036938Y0126693D01*
X0037005Y0126669D01*
X0037071Y0126641D01*
X0037134Y0126609D01*
X0037196Y0126574D01*
X0037256Y0126536D01*
X0037314Y0126494D01*
X0037369Y0126450D01*
X0037422Y0126402D01*
X0037472Y0126351D01*
X0037519Y0126298D01*
X0037563Y0126242D01*
X0037604Y0126184D01*
X0037642Y0126123D01*
X0037676Y0126061D01*
X0037706Y0125996D01*
X0037733Y0125931D01*
X0037757Y0125863D01*
X0037776Y0125795D01*
X0037792Y0125726D01*
X0037804Y0125655D01*
X0037812Y0125585D01*
X0037816Y0125514D01*
X0037816Y0125442D01*
X0037812Y0125371D01*
X0037804Y0125301D01*
X0037792Y0125230D01*
X0037776Y0125161D01*
X0037757Y0125093D01*
X0037733Y0125025D01*
X0037706Y0124960D01*
X0037676Y0124895D01*
X0037642Y0124833D01*
X0037604Y0124772D01*
X0037563Y0124714D01*
X0037519Y0124658D01*
X0037472Y0124605D01*
X0037422Y0124554D01*
X0037369Y0124506D01*
X0037314Y0124462D01*
X0037256Y0124420D01*
X0037196Y0124382D01*
X0037134Y0124347D01*
X0037071Y0124315D01*
X0037005Y0124287D01*
X0036938Y0124263D01*
X0036870Y0124242D01*
X0036801Y0124226D01*
X0036731Y0124213D01*
X0036660Y0124204D01*
X0036589Y0124199D01*
X0036518Y0124198D01*
X0036447Y0124201D01*
X0036376Y0124208D01*
X0036306Y0124219D01*
X0036236Y0124234D01*
X0036168Y0124252D01*
X0036100Y0124275D01*
X0036034Y0124301D01*
X0035969Y0124330D01*
X0035906Y0124364D01*
X0035845Y0124400D01*
X0035787Y0124440D01*
X0035730Y0124484D01*
X0035676Y0124530D01*
X0035625Y0124579D01*
X0035576Y0124631D01*
X0035531Y0124686D01*
X0035488Y0124743D01*
X0035449Y0124802D01*
X0035413Y0124864D01*
X0035381Y0124927D01*
X0035352Y0124992D01*
X0035327Y0125059D01*
X0035305Y0125127D01*
X0035288Y0125196D01*
X0035274Y0125265D01*
X0035264Y0125336D01*
X0035258Y0125407D01*
X0035256Y0125478D01*
X0025100Y0241600D02*
X0025102Y0241761D01*
X0025108Y0241921D01*
X0025118Y0242082D01*
X0025132Y0242242D01*
X0025150Y0242402D01*
X0025171Y0242561D01*
X0025197Y0242720D01*
X0025227Y0242878D01*
X0025260Y0243035D01*
X0025298Y0243192D01*
X0025339Y0243347D01*
X0025384Y0243501D01*
X0025433Y0243654D01*
X0025486Y0243806D01*
X0025542Y0243957D01*
X0025603Y0244106D01*
X0025666Y0244254D01*
X0025734Y0244400D01*
X0025805Y0244544D01*
X0025879Y0244686D01*
X0025957Y0244827D01*
X0026039Y0244965D01*
X0026124Y0245102D01*
X0026212Y0245236D01*
X0026304Y0245368D01*
X0026399Y0245498D01*
X0026497Y0245626D01*
X0026598Y0245751D01*
X0026702Y0245873D01*
X0026809Y0245993D01*
X0026919Y0246110D01*
X0027032Y0246225D01*
X0027148Y0246336D01*
X0027267Y0246445D01*
X0027388Y0246550D01*
X0027512Y0246653D01*
X0027638Y0246753D01*
X0027766Y0246849D01*
X0027897Y0246942D01*
X0028031Y0247032D01*
X0028166Y0247119D01*
X0028304Y0247202D01*
X0028443Y0247282D01*
X0028585Y0247358D01*
X0028728Y0247431D01*
X0028873Y0247500D01*
X0029020Y0247566D01*
X0029168Y0247628D01*
X0029318Y0247686D01*
X0029469Y0247741D01*
X0029622Y0247792D01*
X0029776Y0247839D01*
X0029931Y0247882D01*
X0030087Y0247921D01*
X0030243Y0247957D01*
X0030401Y0247988D01*
X0030559Y0248016D01*
X0030718Y0248040D01*
X0030878Y0248060D01*
X0031038Y0248076D01*
X0031198Y0248088D01*
X0031359Y0248096D01*
X0031520Y0248100D01*
X0031680Y0248100D01*
X0031841Y0248096D01*
X0032002Y0248088D01*
X0032162Y0248076D01*
X0032322Y0248060D01*
X0032482Y0248040D01*
X0032641Y0248016D01*
X0032799Y0247988D01*
X0032957Y0247957D01*
X0033113Y0247921D01*
X0033269Y0247882D01*
X0033424Y0247839D01*
X0033578Y0247792D01*
X0033731Y0247741D01*
X0033882Y0247686D01*
X0034032Y0247628D01*
X0034180Y0247566D01*
X0034327Y0247500D01*
X0034472Y0247431D01*
X0034615Y0247358D01*
X0034757Y0247282D01*
X0034896Y0247202D01*
X0035034Y0247119D01*
X0035169Y0247032D01*
X0035303Y0246942D01*
X0035434Y0246849D01*
X0035562Y0246753D01*
X0035688Y0246653D01*
X0035812Y0246550D01*
X0035933Y0246445D01*
X0036052Y0246336D01*
X0036168Y0246225D01*
X0036281Y0246110D01*
X0036391Y0245993D01*
X0036498Y0245873D01*
X0036602Y0245751D01*
X0036703Y0245626D01*
X0036801Y0245498D01*
X0036896Y0245368D01*
X0036988Y0245236D01*
X0037076Y0245102D01*
X0037161Y0244965D01*
X0037243Y0244827D01*
X0037321Y0244686D01*
X0037395Y0244544D01*
X0037466Y0244400D01*
X0037534Y0244254D01*
X0037597Y0244106D01*
X0037658Y0243957D01*
X0037714Y0243806D01*
X0037767Y0243654D01*
X0037816Y0243501D01*
X0037861Y0243347D01*
X0037902Y0243192D01*
X0037940Y0243035D01*
X0037973Y0242878D01*
X0038003Y0242720D01*
X0038029Y0242561D01*
X0038050Y0242402D01*
X0038068Y0242242D01*
X0038082Y0242082D01*
X0038092Y0241921D01*
X0038098Y0241761D01*
X0038100Y0241600D01*
X0038098Y0241439D01*
X0038092Y0241279D01*
X0038082Y0241118D01*
X0038068Y0240958D01*
X0038050Y0240798D01*
X0038029Y0240639D01*
X0038003Y0240480D01*
X0037973Y0240322D01*
X0037940Y0240165D01*
X0037902Y0240008D01*
X0037861Y0239853D01*
X0037816Y0239699D01*
X0037767Y0239546D01*
X0037714Y0239394D01*
X0037658Y0239243D01*
X0037597Y0239094D01*
X0037534Y0238946D01*
X0037466Y0238800D01*
X0037395Y0238656D01*
X0037321Y0238514D01*
X0037243Y0238373D01*
X0037161Y0238235D01*
X0037076Y0238098D01*
X0036988Y0237964D01*
X0036896Y0237832D01*
X0036801Y0237702D01*
X0036703Y0237574D01*
X0036602Y0237449D01*
X0036498Y0237327D01*
X0036391Y0237207D01*
X0036281Y0237090D01*
X0036168Y0236975D01*
X0036052Y0236864D01*
X0035933Y0236755D01*
X0035812Y0236650D01*
X0035688Y0236547D01*
X0035562Y0236447D01*
X0035434Y0236351D01*
X0035303Y0236258D01*
X0035169Y0236168D01*
X0035034Y0236081D01*
X0034896Y0235998D01*
X0034757Y0235918D01*
X0034615Y0235842D01*
X0034472Y0235769D01*
X0034327Y0235700D01*
X0034180Y0235634D01*
X0034032Y0235572D01*
X0033882Y0235514D01*
X0033731Y0235459D01*
X0033578Y0235408D01*
X0033424Y0235361D01*
X0033269Y0235318D01*
X0033113Y0235279D01*
X0032957Y0235243D01*
X0032799Y0235212D01*
X0032641Y0235184D01*
X0032482Y0235160D01*
X0032322Y0235140D01*
X0032162Y0235124D01*
X0032002Y0235112D01*
X0031841Y0235104D01*
X0031680Y0235100D01*
X0031520Y0235100D01*
X0031359Y0235104D01*
X0031198Y0235112D01*
X0031038Y0235124D01*
X0030878Y0235140D01*
X0030718Y0235160D01*
X0030559Y0235184D01*
X0030401Y0235212D01*
X0030243Y0235243D01*
X0030087Y0235279D01*
X0029931Y0235318D01*
X0029776Y0235361D01*
X0029622Y0235408D01*
X0029469Y0235459D01*
X0029318Y0235514D01*
X0029168Y0235572D01*
X0029020Y0235634D01*
X0028873Y0235700D01*
X0028728Y0235769D01*
X0028585Y0235842D01*
X0028443Y0235918D01*
X0028304Y0235998D01*
X0028166Y0236081D01*
X0028031Y0236168D01*
X0027897Y0236258D01*
X0027766Y0236351D01*
X0027638Y0236447D01*
X0027512Y0236547D01*
X0027388Y0236650D01*
X0027267Y0236755D01*
X0027148Y0236864D01*
X0027032Y0236975D01*
X0026919Y0237090D01*
X0026809Y0237207D01*
X0026702Y0237327D01*
X0026598Y0237449D01*
X0026497Y0237574D01*
X0026399Y0237702D01*
X0026304Y0237832D01*
X0026212Y0237964D01*
X0026124Y0238098D01*
X0026039Y0238235D01*
X0025957Y0238373D01*
X0025879Y0238514D01*
X0025805Y0238656D01*
X0025734Y0238800D01*
X0025666Y0238946D01*
X0025603Y0239094D01*
X0025542Y0239243D01*
X0025486Y0239394D01*
X0025433Y0239546D01*
X0025384Y0239699D01*
X0025339Y0239853D01*
X0025298Y0240008D01*
X0025260Y0240165D01*
X0025227Y0240322D01*
X0025197Y0240480D01*
X0025171Y0240639D01*
X0025150Y0240798D01*
X0025132Y0240958D01*
X0025118Y0241118D01*
X0025108Y0241279D01*
X0025102Y0241439D01*
X0025100Y0241600D01*
X0057600Y0241600D02*
X0057602Y0241761D01*
X0057608Y0241921D01*
X0057618Y0242082D01*
X0057632Y0242242D01*
X0057650Y0242402D01*
X0057671Y0242561D01*
X0057697Y0242720D01*
X0057727Y0242878D01*
X0057760Y0243035D01*
X0057798Y0243192D01*
X0057839Y0243347D01*
X0057884Y0243501D01*
X0057933Y0243654D01*
X0057986Y0243806D01*
X0058042Y0243957D01*
X0058103Y0244106D01*
X0058166Y0244254D01*
X0058234Y0244400D01*
X0058305Y0244544D01*
X0058379Y0244686D01*
X0058457Y0244827D01*
X0058539Y0244965D01*
X0058624Y0245102D01*
X0058712Y0245236D01*
X0058804Y0245368D01*
X0058899Y0245498D01*
X0058997Y0245626D01*
X0059098Y0245751D01*
X0059202Y0245873D01*
X0059309Y0245993D01*
X0059419Y0246110D01*
X0059532Y0246225D01*
X0059648Y0246336D01*
X0059767Y0246445D01*
X0059888Y0246550D01*
X0060012Y0246653D01*
X0060138Y0246753D01*
X0060266Y0246849D01*
X0060397Y0246942D01*
X0060531Y0247032D01*
X0060666Y0247119D01*
X0060804Y0247202D01*
X0060943Y0247282D01*
X0061085Y0247358D01*
X0061228Y0247431D01*
X0061373Y0247500D01*
X0061520Y0247566D01*
X0061668Y0247628D01*
X0061818Y0247686D01*
X0061969Y0247741D01*
X0062122Y0247792D01*
X0062276Y0247839D01*
X0062431Y0247882D01*
X0062587Y0247921D01*
X0062743Y0247957D01*
X0062901Y0247988D01*
X0063059Y0248016D01*
X0063218Y0248040D01*
X0063378Y0248060D01*
X0063538Y0248076D01*
X0063698Y0248088D01*
X0063859Y0248096D01*
X0064020Y0248100D01*
X0064180Y0248100D01*
X0064341Y0248096D01*
X0064502Y0248088D01*
X0064662Y0248076D01*
X0064822Y0248060D01*
X0064982Y0248040D01*
X0065141Y0248016D01*
X0065299Y0247988D01*
X0065457Y0247957D01*
X0065613Y0247921D01*
X0065769Y0247882D01*
X0065924Y0247839D01*
X0066078Y0247792D01*
X0066231Y0247741D01*
X0066382Y0247686D01*
X0066532Y0247628D01*
X0066680Y0247566D01*
X0066827Y0247500D01*
X0066972Y0247431D01*
X0067115Y0247358D01*
X0067257Y0247282D01*
X0067396Y0247202D01*
X0067534Y0247119D01*
X0067669Y0247032D01*
X0067803Y0246942D01*
X0067934Y0246849D01*
X0068062Y0246753D01*
X0068188Y0246653D01*
X0068312Y0246550D01*
X0068433Y0246445D01*
X0068552Y0246336D01*
X0068668Y0246225D01*
X0068781Y0246110D01*
X0068891Y0245993D01*
X0068998Y0245873D01*
X0069102Y0245751D01*
X0069203Y0245626D01*
X0069301Y0245498D01*
X0069396Y0245368D01*
X0069488Y0245236D01*
X0069576Y0245102D01*
X0069661Y0244965D01*
X0069743Y0244827D01*
X0069821Y0244686D01*
X0069895Y0244544D01*
X0069966Y0244400D01*
X0070034Y0244254D01*
X0070097Y0244106D01*
X0070158Y0243957D01*
X0070214Y0243806D01*
X0070267Y0243654D01*
X0070316Y0243501D01*
X0070361Y0243347D01*
X0070402Y0243192D01*
X0070440Y0243035D01*
X0070473Y0242878D01*
X0070503Y0242720D01*
X0070529Y0242561D01*
X0070550Y0242402D01*
X0070568Y0242242D01*
X0070582Y0242082D01*
X0070592Y0241921D01*
X0070598Y0241761D01*
X0070600Y0241600D01*
X0070598Y0241439D01*
X0070592Y0241279D01*
X0070582Y0241118D01*
X0070568Y0240958D01*
X0070550Y0240798D01*
X0070529Y0240639D01*
X0070503Y0240480D01*
X0070473Y0240322D01*
X0070440Y0240165D01*
X0070402Y0240008D01*
X0070361Y0239853D01*
X0070316Y0239699D01*
X0070267Y0239546D01*
X0070214Y0239394D01*
X0070158Y0239243D01*
X0070097Y0239094D01*
X0070034Y0238946D01*
X0069966Y0238800D01*
X0069895Y0238656D01*
X0069821Y0238514D01*
X0069743Y0238373D01*
X0069661Y0238235D01*
X0069576Y0238098D01*
X0069488Y0237964D01*
X0069396Y0237832D01*
X0069301Y0237702D01*
X0069203Y0237574D01*
X0069102Y0237449D01*
X0068998Y0237327D01*
X0068891Y0237207D01*
X0068781Y0237090D01*
X0068668Y0236975D01*
X0068552Y0236864D01*
X0068433Y0236755D01*
X0068312Y0236650D01*
X0068188Y0236547D01*
X0068062Y0236447D01*
X0067934Y0236351D01*
X0067803Y0236258D01*
X0067669Y0236168D01*
X0067534Y0236081D01*
X0067396Y0235998D01*
X0067257Y0235918D01*
X0067115Y0235842D01*
X0066972Y0235769D01*
X0066827Y0235700D01*
X0066680Y0235634D01*
X0066532Y0235572D01*
X0066382Y0235514D01*
X0066231Y0235459D01*
X0066078Y0235408D01*
X0065924Y0235361D01*
X0065769Y0235318D01*
X0065613Y0235279D01*
X0065457Y0235243D01*
X0065299Y0235212D01*
X0065141Y0235184D01*
X0064982Y0235160D01*
X0064822Y0235140D01*
X0064662Y0235124D01*
X0064502Y0235112D01*
X0064341Y0235104D01*
X0064180Y0235100D01*
X0064020Y0235100D01*
X0063859Y0235104D01*
X0063698Y0235112D01*
X0063538Y0235124D01*
X0063378Y0235140D01*
X0063218Y0235160D01*
X0063059Y0235184D01*
X0062901Y0235212D01*
X0062743Y0235243D01*
X0062587Y0235279D01*
X0062431Y0235318D01*
X0062276Y0235361D01*
X0062122Y0235408D01*
X0061969Y0235459D01*
X0061818Y0235514D01*
X0061668Y0235572D01*
X0061520Y0235634D01*
X0061373Y0235700D01*
X0061228Y0235769D01*
X0061085Y0235842D01*
X0060943Y0235918D01*
X0060804Y0235998D01*
X0060666Y0236081D01*
X0060531Y0236168D01*
X0060397Y0236258D01*
X0060266Y0236351D01*
X0060138Y0236447D01*
X0060012Y0236547D01*
X0059888Y0236650D01*
X0059767Y0236755D01*
X0059648Y0236864D01*
X0059532Y0236975D01*
X0059419Y0237090D01*
X0059309Y0237207D01*
X0059202Y0237327D01*
X0059098Y0237449D01*
X0058997Y0237574D01*
X0058899Y0237702D01*
X0058804Y0237832D01*
X0058712Y0237964D01*
X0058624Y0238098D01*
X0058539Y0238235D01*
X0058457Y0238373D01*
X0058379Y0238514D01*
X0058305Y0238656D01*
X0058234Y0238800D01*
X0058166Y0238946D01*
X0058103Y0239094D01*
X0058042Y0239243D01*
X0057986Y0239394D01*
X0057933Y0239546D01*
X0057884Y0239699D01*
X0057839Y0239853D01*
X0057798Y0240008D01*
X0057760Y0240165D01*
X0057727Y0240322D01*
X0057697Y0240480D01*
X0057671Y0240639D01*
X0057650Y0240798D01*
X0057632Y0240958D01*
X0057618Y0241118D01*
X0057608Y0241279D01*
X0057602Y0241439D01*
X0057600Y0241600D01*
X0327600Y0241600D02*
X0327602Y0241761D01*
X0327608Y0241921D01*
X0327618Y0242082D01*
X0327632Y0242242D01*
X0327650Y0242402D01*
X0327671Y0242561D01*
X0327697Y0242720D01*
X0327727Y0242878D01*
X0327760Y0243035D01*
X0327798Y0243192D01*
X0327839Y0243347D01*
X0327884Y0243501D01*
X0327933Y0243654D01*
X0327986Y0243806D01*
X0328042Y0243957D01*
X0328103Y0244106D01*
X0328166Y0244254D01*
X0328234Y0244400D01*
X0328305Y0244544D01*
X0328379Y0244686D01*
X0328457Y0244827D01*
X0328539Y0244965D01*
X0328624Y0245102D01*
X0328712Y0245236D01*
X0328804Y0245368D01*
X0328899Y0245498D01*
X0328997Y0245626D01*
X0329098Y0245751D01*
X0329202Y0245873D01*
X0329309Y0245993D01*
X0329419Y0246110D01*
X0329532Y0246225D01*
X0329648Y0246336D01*
X0329767Y0246445D01*
X0329888Y0246550D01*
X0330012Y0246653D01*
X0330138Y0246753D01*
X0330266Y0246849D01*
X0330397Y0246942D01*
X0330531Y0247032D01*
X0330666Y0247119D01*
X0330804Y0247202D01*
X0330943Y0247282D01*
X0331085Y0247358D01*
X0331228Y0247431D01*
X0331373Y0247500D01*
X0331520Y0247566D01*
X0331668Y0247628D01*
X0331818Y0247686D01*
X0331969Y0247741D01*
X0332122Y0247792D01*
X0332276Y0247839D01*
X0332431Y0247882D01*
X0332587Y0247921D01*
X0332743Y0247957D01*
X0332901Y0247988D01*
X0333059Y0248016D01*
X0333218Y0248040D01*
X0333378Y0248060D01*
X0333538Y0248076D01*
X0333698Y0248088D01*
X0333859Y0248096D01*
X0334020Y0248100D01*
X0334180Y0248100D01*
X0334341Y0248096D01*
X0334502Y0248088D01*
X0334662Y0248076D01*
X0334822Y0248060D01*
X0334982Y0248040D01*
X0335141Y0248016D01*
X0335299Y0247988D01*
X0335457Y0247957D01*
X0335613Y0247921D01*
X0335769Y0247882D01*
X0335924Y0247839D01*
X0336078Y0247792D01*
X0336231Y0247741D01*
X0336382Y0247686D01*
X0336532Y0247628D01*
X0336680Y0247566D01*
X0336827Y0247500D01*
X0336972Y0247431D01*
X0337115Y0247358D01*
X0337257Y0247282D01*
X0337396Y0247202D01*
X0337534Y0247119D01*
X0337669Y0247032D01*
X0337803Y0246942D01*
X0337934Y0246849D01*
X0338062Y0246753D01*
X0338188Y0246653D01*
X0338312Y0246550D01*
X0338433Y0246445D01*
X0338552Y0246336D01*
X0338668Y0246225D01*
X0338781Y0246110D01*
X0338891Y0245993D01*
X0338998Y0245873D01*
X0339102Y0245751D01*
X0339203Y0245626D01*
X0339301Y0245498D01*
X0339396Y0245368D01*
X0339488Y0245236D01*
X0339576Y0245102D01*
X0339661Y0244965D01*
X0339743Y0244827D01*
X0339821Y0244686D01*
X0339895Y0244544D01*
X0339966Y0244400D01*
X0340034Y0244254D01*
X0340097Y0244106D01*
X0340158Y0243957D01*
X0340214Y0243806D01*
X0340267Y0243654D01*
X0340316Y0243501D01*
X0340361Y0243347D01*
X0340402Y0243192D01*
X0340440Y0243035D01*
X0340473Y0242878D01*
X0340503Y0242720D01*
X0340529Y0242561D01*
X0340550Y0242402D01*
X0340568Y0242242D01*
X0340582Y0242082D01*
X0340592Y0241921D01*
X0340598Y0241761D01*
X0340600Y0241600D01*
X0340598Y0241439D01*
X0340592Y0241279D01*
X0340582Y0241118D01*
X0340568Y0240958D01*
X0340550Y0240798D01*
X0340529Y0240639D01*
X0340503Y0240480D01*
X0340473Y0240322D01*
X0340440Y0240165D01*
X0340402Y0240008D01*
X0340361Y0239853D01*
X0340316Y0239699D01*
X0340267Y0239546D01*
X0340214Y0239394D01*
X0340158Y0239243D01*
X0340097Y0239094D01*
X0340034Y0238946D01*
X0339966Y0238800D01*
X0339895Y0238656D01*
X0339821Y0238514D01*
X0339743Y0238373D01*
X0339661Y0238235D01*
X0339576Y0238098D01*
X0339488Y0237964D01*
X0339396Y0237832D01*
X0339301Y0237702D01*
X0339203Y0237574D01*
X0339102Y0237449D01*
X0338998Y0237327D01*
X0338891Y0237207D01*
X0338781Y0237090D01*
X0338668Y0236975D01*
X0338552Y0236864D01*
X0338433Y0236755D01*
X0338312Y0236650D01*
X0338188Y0236547D01*
X0338062Y0236447D01*
X0337934Y0236351D01*
X0337803Y0236258D01*
X0337669Y0236168D01*
X0337534Y0236081D01*
X0337396Y0235998D01*
X0337257Y0235918D01*
X0337115Y0235842D01*
X0336972Y0235769D01*
X0336827Y0235700D01*
X0336680Y0235634D01*
X0336532Y0235572D01*
X0336382Y0235514D01*
X0336231Y0235459D01*
X0336078Y0235408D01*
X0335924Y0235361D01*
X0335769Y0235318D01*
X0335613Y0235279D01*
X0335457Y0235243D01*
X0335299Y0235212D01*
X0335141Y0235184D01*
X0334982Y0235160D01*
X0334822Y0235140D01*
X0334662Y0235124D01*
X0334502Y0235112D01*
X0334341Y0235104D01*
X0334180Y0235100D01*
X0334020Y0235100D01*
X0333859Y0235104D01*
X0333698Y0235112D01*
X0333538Y0235124D01*
X0333378Y0235140D01*
X0333218Y0235160D01*
X0333059Y0235184D01*
X0332901Y0235212D01*
X0332743Y0235243D01*
X0332587Y0235279D01*
X0332431Y0235318D01*
X0332276Y0235361D01*
X0332122Y0235408D01*
X0331969Y0235459D01*
X0331818Y0235514D01*
X0331668Y0235572D01*
X0331520Y0235634D01*
X0331373Y0235700D01*
X0331228Y0235769D01*
X0331085Y0235842D01*
X0330943Y0235918D01*
X0330804Y0235998D01*
X0330666Y0236081D01*
X0330531Y0236168D01*
X0330397Y0236258D01*
X0330266Y0236351D01*
X0330138Y0236447D01*
X0330012Y0236547D01*
X0329888Y0236650D01*
X0329767Y0236755D01*
X0329648Y0236864D01*
X0329532Y0236975D01*
X0329419Y0237090D01*
X0329309Y0237207D01*
X0329202Y0237327D01*
X0329098Y0237449D01*
X0328997Y0237574D01*
X0328899Y0237702D01*
X0328804Y0237832D01*
X0328712Y0237964D01*
X0328624Y0238098D01*
X0328539Y0238235D01*
X0328457Y0238373D01*
X0328379Y0238514D01*
X0328305Y0238656D01*
X0328234Y0238800D01*
X0328166Y0238946D01*
X0328103Y0239094D01*
X0328042Y0239243D01*
X0327986Y0239394D01*
X0327933Y0239546D01*
X0327884Y0239699D01*
X0327839Y0239853D01*
X0327798Y0240008D01*
X0327760Y0240165D01*
X0327727Y0240322D01*
X0327697Y0240480D01*
X0327671Y0240639D01*
X0327650Y0240798D01*
X0327632Y0240958D01*
X0327618Y0241118D01*
X0327608Y0241279D01*
X0327602Y0241439D01*
X0327600Y0241600D01*
X0360100Y0241600D02*
X0360102Y0241761D01*
X0360108Y0241921D01*
X0360118Y0242082D01*
X0360132Y0242242D01*
X0360150Y0242402D01*
X0360171Y0242561D01*
X0360197Y0242720D01*
X0360227Y0242878D01*
X0360260Y0243035D01*
X0360298Y0243192D01*
X0360339Y0243347D01*
X0360384Y0243501D01*
X0360433Y0243654D01*
X0360486Y0243806D01*
X0360542Y0243957D01*
X0360603Y0244106D01*
X0360666Y0244254D01*
X0360734Y0244400D01*
X0360805Y0244544D01*
X0360879Y0244686D01*
X0360957Y0244827D01*
X0361039Y0244965D01*
X0361124Y0245102D01*
X0361212Y0245236D01*
X0361304Y0245368D01*
X0361399Y0245498D01*
X0361497Y0245626D01*
X0361598Y0245751D01*
X0361702Y0245873D01*
X0361809Y0245993D01*
X0361919Y0246110D01*
X0362032Y0246225D01*
X0362148Y0246336D01*
X0362267Y0246445D01*
X0362388Y0246550D01*
X0362512Y0246653D01*
X0362638Y0246753D01*
X0362766Y0246849D01*
X0362897Y0246942D01*
X0363031Y0247032D01*
X0363166Y0247119D01*
X0363304Y0247202D01*
X0363443Y0247282D01*
X0363585Y0247358D01*
X0363728Y0247431D01*
X0363873Y0247500D01*
X0364020Y0247566D01*
X0364168Y0247628D01*
X0364318Y0247686D01*
X0364469Y0247741D01*
X0364622Y0247792D01*
X0364776Y0247839D01*
X0364931Y0247882D01*
X0365087Y0247921D01*
X0365243Y0247957D01*
X0365401Y0247988D01*
X0365559Y0248016D01*
X0365718Y0248040D01*
X0365878Y0248060D01*
X0366038Y0248076D01*
X0366198Y0248088D01*
X0366359Y0248096D01*
X0366520Y0248100D01*
X0366680Y0248100D01*
X0366841Y0248096D01*
X0367002Y0248088D01*
X0367162Y0248076D01*
X0367322Y0248060D01*
X0367482Y0248040D01*
X0367641Y0248016D01*
X0367799Y0247988D01*
X0367957Y0247957D01*
X0368113Y0247921D01*
X0368269Y0247882D01*
X0368424Y0247839D01*
X0368578Y0247792D01*
X0368731Y0247741D01*
X0368882Y0247686D01*
X0369032Y0247628D01*
X0369180Y0247566D01*
X0369327Y0247500D01*
X0369472Y0247431D01*
X0369615Y0247358D01*
X0369757Y0247282D01*
X0369896Y0247202D01*
X0370034Y0247119D01*
X0370169Y0247032D01*
X0370303Y0246942D01*
X0370434Y0246849D01*
X0370562Y0246753D01*
X0370688Y0246653D01*
X0370812Y0246550D01*
X0370933Y0246445D01*
X0371052Y0246336D01*
X0371168Y0246225D01*
X0371281Y0246110D01*
X0371391Y0245993D01*
X0371498Y0245873D01*
X0371602Y0245751D01*
X0371703Y0245626D01*
X0371801Y0245498D01*
X0371896Y0245368D01*
X0371988Y0245236D01*
X0372076Y0245102D01*
X0372161Y0244965D01*
X0372243Y0244827D01*
X0372321Y0244686D01*
X0372395Y0244544D01*
X0372466Y0244400D01*
X0372534Y0244254D01*
X0372597Y0244106D01*
X0372658Y0243957D01*
X0372714Y0243806D01*
X0372767Y0243654D01*
X0372816Y0243501D01*
X0372861Y0243347D01*
X0372902Y0243192D01*
X0372940Y0243035D01*
X0372973Y0242878D01*
X0373003Y0242720D01*
X0373029Y0242561D01*
X0373050Y0242402D01*
X0373068Y0242242D01*
X0373082Y0242082D01*
X0373092Y0241921D01*
X0373098Y0241761D01*
X0373100Y0241600D01*
X0373098Y0241439D01*
X0373092Y0241279D01*
X0373082Y0241118D01*
X0373068Y0240958D01*
X0373050Y0240798D01*
X0373029Y0240639D01*
X0373003Y0240480D01*
X0372973Y0240322D01*
X0372940Y0240165D01*
X0372902Y0240008D01*
X0372861Y0239853D01*
X0372816Y0239699D01*
X0372767Y0239546D01*
X0372714Y0239394D01*
X0372658Y0239243D01*
X0372597Y0239094D01*
X0372534Y0238946D01*
X0372466Y0238800D01*
X0372395Y0238656D01*
X0372321Y0238514D01*
X0372243Y0238373D01*
X0372161Y0238235D01*
X0372076Y0238098D01*
X0371988Y0237964D01*
X0371896Y0237832D01*
X0371801Y0237702D01*
X0371703Y0237574D01*
X0371602Y0237449D01*
X0371498Y0237327D01*
X0371391Y0237207D01*
X0371281Y0237090D01*
X0371168Y0236975D01*
X0371052Y0236864D01*
X0370933Y0236755D01*
X0370812Y0236650D01*
X0370688Y0236547D01*
X0370562Y0236447D01*
X0370434Y0236351D01*
X0370303Y0236258D01*
X0370169Y0236168D01*
X0370034Y0236081D01*
X0369896Y0235998D01*
X0369757Y0235918D01*
X0369615Y0235842D01*
X0369472Y0235769D01*
X0369327Y0235700D01*
X0369180Y0235634D01*
X0369032Y0235572D01*
X0368882Y0235514D01*
X0368731Y0235459D01*
X0368578Y0235408D01*
X0368424Y0235361D01*
X0368269Y0235318D01*
X0368113Y0235279D01*
X0367957Y0235243D01*
X0367799Y0235212D01*
X0367641Y0235184D01*
X0367482Y0235160D01*
X0367322Y0235140D01*
X0367162Y0235124D01*
X0367002Y0235112D01*
X0366841Y0235104D01*
X0366680Y0235100D01*
X0366520Y0235100D01*
X0366359Y0235104D01*
X0366198Y0235112D01*
X0366038Y0235124D01*
X0365878Y0235140D01*
X0365718Y0235160D01*
X0365559Y0235184D01*
X0365401Y0235212D01*
X0365243Y0235243D01*
X0365087Y0235279D01*
X0364931Y0235318D01*
X0364776Y0235361D01*
X0364622Y0235408D01*
X0364469Y0235459D01*
X0364318Y0235514D01*
X0364168Y0235572D01*
X0364020Y0235634D01*
X0363873Y0235700D01*
X0363728Y0235769D01*
X0363585Y0235842D01*
X0363443Y0235918D01*
X0363304Y0235998D01*
X0363166Y0236081D01*
X0363031Y0236168D01*
X0362897Y0236258D01*
X0362766Y0236351D01*
X0362638Y0236447D01*
X0362512Y0236547D01*
X0362388Y0236650D01*
X0362267Y0236755D01*
X0362148Y0236864D01*
X0362032Y0236975D01*
X0361919Y0237090D01*
X0361809Y0237207D01*
X0361702Y0237327D01*
X0361598Y0237449D01*
X0361497Y0237574D01*
X0361399Y0237702D01*
X0361304Y0237832D01*
X0361212Y0237964D01*
X0361124Y0238098D01*
X0361039Y0238235D01*
X0360957Y0238373D01*
X0360879Y0238514D01*
X0360805Y0238656D01*
X0360734Y0238800D01*
X0360666Y0238946D01*
X0360603Y0239094D01*
X0360542Y0239243D01*
X0360486Y0239394D01*
X0360433Y0239546D01*
X0360384Y0239699D01*
X0360339Y0239853D01*
X0360298Y0240008D01*
X0360260Y0240165D01*
X0360227Y0240322D01*
X0360197Y0240480D01*
X0360171Y0240639D01*
X0360150Y0240798D01*
X0360132Y0240958D01*
X0360118Y0241118D01*
X0360108Y0241279D01*
X0360102Y0241439D01*
X0360100Y0241600D01*
X0327600Y0091600D02*
X0327602Y0091761D01*
X0327608Y0091921D01*
X0327618Y0092082D01*
X0327632Y0092242D01*
X0327650Y0092402D01*
X0327671Y0092561D01*
X0327697Y0092720D01*
X0327727Y0092878D01*
X0327760Y0093035D01*
X0327798Y0093192D01*
X0327839Y0093347D01*
X0327884Y0093501D01*
X0327933Y0093654D01*
X0327986Y0093806D01*
X0328042Y0093957D01*
X0328103Y0094106D01*
X0328166Y0094254D01*
X0328234Y0094400D01*
X0328305Y0094544D01*
X0328379Y0094686D01*
X0328457Y0094827D01*
X0328539Y0094965D01*
X0328624Y0095102D01*
X0328712Y0095236D01*
X0328804Y0095368D01*
X0328899Y0095498D01*
X0328997Y0095626D01*
X0329098Y0095751D01*
X0329202Y0095873D01*
X0329309Y0095993D01*
X0329419Y0096110D01*
X0329532Y0096225D01*
X0329648Y0096336D01*
X0329767Y0096445D01*
X0329888Y0096550D01*
X0330012Y0096653D01*
X0330138Y0096753D01*
X0330266Y0096849D01*
X0330397Y0096942D01*
X0330531Y0097032D01*
X0330666Y0097119D01*
X0330804Y0097202D01*
X0330943Y0097282D01*
X0331085Y0097358D01*
X0331228Y0097431D01*
X0331373Y0097500D01*
X0331520Y0097566D01*
X0331668Y0097628D01*
X0331818Y0097686D01*
X0331969Y0097741D01*
X0332122Y0097792D01*
X0332276Y0097839D01*
X0332431Y0097882D01*
X0332587Y0097921D01*
X0332743Y0097957D01*
X0332901Y0097988D01*
X0333059Y0098016D01*
X0333218Y0098040D01*
X0333378Y0098060D01*
X0333538Y0098076D01*
X0333698Y0098088D01*
X0333859Y0098096D01*
X0334020Y0098100D01*
X0334180Y0098100D01*
X0334341Y0098096D01*
X0334502Y0098088D01*
X0334662Y0098076D01*
X0334822Y0098060D01*
X0334982Y0098040D01*
X0335141Y0098016D01*
X0335299Y0097988D01*
X0335457Y0097957D01*
X0335613Y0097921D01*
X0335769Y0097882D01*
X0335924Y0097839D01*
X0336078Y0097792D01*
X0336231Y0097741D01*
X0336382Y0097686D01*
X0336532Y0097628D01*
X0336680Y0097566D01*
X0336827Y0097500D01*
X0336972Y0097431D01*
X0337115Y0097358D01*
X0337257Y0097282D01*
X0337396Y0097202D01*
X0337534Y0097119D01*
X0337669Y0097032D01*
X0337803Y0096942D01*
X0337934Y0096849D01*
X0338062Y0096753D01*
X0338188Y0096653D01*
X0338312Y0096550D01*
X0338433Y0096445D01*
X0338552Y0096336D01*
X0338668Y0096225D01*
X0338781Y0096110D01*
X0338891Y0095993D01*
X0338998Y0095873D01*
X0339102Y0095751D01*
X0339203Y0095626D01*
X0339301Y0095498D01*
X0339396Y0095368D01*
X0339488Y0095236D01*
X0339576Y0095102D01*
X0339661Y0094965D01*
X0339743Y0094827D01*
X0339821Y0094686D01*
X0339895Y0094544D01*
X0339966Y0094400D01*
X0340034Y0094254D01*
X0340097Y0094106D01*
X0340158Y0093957D01*
X0340214Y0093806D01*
X0340267Y0093654D01*
X0340316Y0093501D01*
X0340361Y0093347D01*
X0340402Y0093192D01*
X0340440Y0093035D01*
X0340473Y0092878D01*
X0340503Y0092720D01*
X0340529Y0092561D01*
X0340550Y0092402D01*
X0340568Y0092242D01*
X0340582Y0092082D01*
X0340592Y0091921D01*
X0340598Y0091761D01*
X0340600Y0091600D01*
X0340598Y0091439D01*
X0340592Y0091279D01*
X0340582Y0091118D01*
X0340568Y0090958D01*
X0340550Y0090798D01*
X0340529Y0090639D01*
X0340503Y0090480D01*
X0340473Y0090322D01*
X0340440Y0090165D01*
X0340402Y0090008D01*
X0340361Y0089853D01*
X0340316Y0089699D01*
X0340267Y0089546D01*
X0340214Y0089394D01*
X0340158Y0089243D01*
X0340097Y0089094D01*
X0340034Y0088946D01*
X0339966Y0088800D01*
X0339895Y0088656D01*
X0339821Y0088514D01*
X0339743Y0088373D01*
X0339661Y0088235D01*
X0339576Y0088098D01*
X0339488Y0087964D01*
X0339396Y0087832D01*
X0339301Y0087702D01*
X0339203Y0087574D01*
X0339102Y0087449D01*
X0338998Y0087327D01*
X0338891Y0087207D01*
X0338781Y0087090D01*
X0338668Y0086975D01*
X0338552Y0086864D01*
X0338433Y0086755D01*
X0338312Y0086650D01*
X0338188Y0086547D01*
X0338062Y0086447D01*
X0337934Y0086351D01*
X0337803Y0086258D01*
X0337669Y0086168D01*
X0337534Y0086081D01*
X0337396Y0085998D01*
X0337257Y0085918D01*
X0337115Y0085842D01*
X0336972Y0085769D01*
X0336827Y0085700D01*
X0336680Y0085634D01*
X0336532Y0085572D01*
X0336382Y0085514D01*
X0336231Y0085459D01*
X0336078Y0085408D01*
X0335924Y0085361D01*
X0335769Y0085318D01*
X0335613Y0085279D01*
X0335457Y0085243D01*
X0335299Y0085212D01*
X0335141Y0085184D01*
X0334982Y0085160D01*
X0334822Y0085140D01*
X0334662Y0085124D01*
X0334502Y0085112D01*
X0334341Y0085104D01*
X0334180Y0085100D01*
X0334020Y0085100D01*
X0333859Y0085104D01*
X0333698Y0085112D01*
X0333538Y0085124D01*
X0333378Y0085140D01*
X0333218Y0085160D01*
X0333059Y0085184D01*
X0332901Y0085212D01*
X0332743Y0085243D01*
X0332587Y0085279D01*
X0332431Y0085318D01*
X0332276Y0085361D01*
X0332122Y0085408D01*
X0331969Y0085459D01*
X0331818Y0085514D01*
X0331668Y0085572D01*
X0331520Y0085634D01*
X0331373Y0085700D01*
X0331228Y0085769D01*
X0331085Y0085842D01*
X0330943Y0085918D01*
X0330804Y0085998D01*
X0330666Y0086081D01*
X0330531Y0086168D01*
X0330397Y0086258D01*
X0330266Y0086351D01*
X0330138Y0086447D01*
X0330012Y0086547D01*
X0329888Y0086650D01*
X0329767Y0086755D01*
X0329648Y0086864D01*
X0329532Y0086975D01*
X0329419Y0087090D01*
X0329309Y0087207D01*
X0329202Y0087327D01*
X0329098Y0087449D01*
X0328997Y0087574D01*
X0328899Y0087702D01*
X0328804Y0087832D01*
X0328712Y0087964D01*
X0328624Y0088098D01*
X0328539Y0088235D01*
X0328457Y0088373D01*
X0328379Y0088514D01*
X0328305Y0088656D01*
X0328234Y0088800D01*
X0328166Y0088946D01*
X0328103Y0089094D01*
X0328042Y0089243D01*
X0327986Y0089394D01*
X0327933Y0089546D01*
X0327884Y0089699D01*
X0327839Y0089853D01*
X0327798Y0090008D01*
X0327760Y0090165D01*
X0327727Y0090322D01*
X0327697Y0090480D01*
X0327671Y0090639D01*
X0327650Y0090798D01*
X0327632Y0090958D01*
X0327618Y0091118D01*
X0327608Y0091279D01*
X0327602Y0091439D01*
X0327600Y0091600D01*
X0357072Y0051600D02*
X0357074Y0051734D01*
X0357080Y0051868D01*
X0357090Y0052002D01*
X0357104Y0052136D01*
X0357122Y0052269D01*
X0357143Y0052401D01*
X0357169Y0052533D01*
X0357199Y0052664D01*
X0357232Y0052794D01*
X0357269Y0052922D01*
X0357311Y0053050D01*
X0357355Y0053177D01*
X0357404Y0053302D01*
X0357456Y0053425D01*
X0357512Y0053547D01*
X0357572Y0053668D01*
X0357635Y0053786D01*
X0357701Y0053903D01*
X0357771Y0054017D01*
X0357844Y0054130D01*
X0357921Y0054240D01*
X0358001Y0054348D01*
X0358084Y0054453D01*
X0358170Y0054556D01*
X0358259Y0054656D01*
X0358351Y0054754D01*
X0358446Y0054849D01*
X0358544Y0054941D01*
X0358644Y0055030D01*
X0358747Y0055116D01*
X0358852Y0055199D01*
X0358960Y0055279D01*
X0359070Y0055356D01*
X0359183Y0055429D01*
X0359297Y0055499D01*
X0359414Y0055565D01*
X0359532Y0055628D01*
X0359653Y0055688D01*
X0359775Y0055744D01*
X0359898Y0055796D01*
X0360023Y0055845D01*
X0360150Y0055889D01*
X0360278Y0055931D01*
X0360406Y0055968D01*
X0360536Y0056001D01*
X0360667Y0056031D01*
X0360799Y0056057D01*
X0360931Y0056078D01*
X0361064Y0056096D01*
X0361198Y0056110D01*
X0361332Y0056120D01*
X0361466Y0056126D01*
X0361600Y0056128D01*
X0361734Y0056126D01*
X0361868Y0056120D01*
X0362002Y0056110D01*
X0362136Y0056096D01*
X0362269Y0056078D01*
X0362401Y0056057D01*
X0362533Y0056031D01*
X0362664Y0056001D01*
X0362794Y0055968D01*
X0362922Y0055931D01*
X0363050Y0055889D01*
X0363177Y0055845D01*
X0363302Y0055796D01*
X0363425Y0055744D01*
X0363547Y0055688D01*
X0363668Y0055628D01*
X0363786Y0055565D01*
X0363903Y0055499D01*
X0364017Y0055429D01*
X0364130Y0055356D01*
X0364240Y0055279D01*
X0364348Y0055199D01*
X0364453Y0055116D01*
X0364556Y0055030D01*
X0364656Y0054941D01*
X0364754Y0054849D01*
X0364849Y0054754D01*
X0364941Y0054656D01*
X0365030Y0054556D01*
X0365116Y0054453D01*
X0365199Y0054348D01*
X0365279Y0054240D01*
X0365356Y0054130D01*
X0365429Y0054017D01*
X0365499Y0053903D01*
X0365565Y0053786D01*
X0365628Y0053668D01*
X0365688Y0053547D01*
X0365744Y0053425D01*
X0365796Y0053302D01*
X0365845Y0053177D01*
X0365889Y0053050D01*
X0365931Y0052922D01*
X0365968Y0052794D01*
X0366001Y0052664D01*
X0366031Y0052533D01*
X0366057Y0052401D01*
X0366078Y0052269D01*
X0366096Y0052136D01*
X0366110Y0052002D01*
X0366120Y0051868D01*
X0366126Y0051734D01*
X0366128Y0051600D01*
X0366126Y0051466D01*
X0366120Y0051332D01*
X0366110Y0051198D01*
X0366096Y0051064D01*
X0366078Y0050931D01*
X0366057Y0050799D01*
X0366031Y0050667D01*
X0366001Y0050536D01*
X0365968Y0050406D01*
X0365931Y0050278D01*
X0365889Y0050150D01*
X0365845Y0050023D01*
X0365796Y0049898D01*
X0365744Y0049775D01*
X0365688Y0049653D01*
X0365628Y0049532D01*
X0365565Y0049414D01*
X0365499Y0049297D01*
X0365429Y0049183D01*
X0365356Y0049070D01*
X0365279Y0048960D01*
X0365199Y0048852D01*
X0365116Y0048747D01*
X0365030Y0048644D01*
X0364941Y0048544D01*
X0364849Y0048446D01*
X0364754Y0048351D01*
X0364656Y0048259D01*
X0364556Y0048170D01*
X0364453Y0048084D01*
X0364348Y0048001D01*
X0364240Y0047921D01*
X0364130Y0047844D01*
X0364017Y0047771D01*
X0363903Y0047701D01*
X0363786Y0047635D01*
X0363668Y0047572D01*
X0363547Y0047512D01*
X0363425Y0047456D01*
X0363302Y0047404D01*
X0363177Y0047355D01*
X0363050Y0047311D01*
X0362922Y0047269D01*
X0362794Y0047232D01*
X0362664Y0047199D01*
X0362533Y0047169D01*
X0362401Y0047143D01*
X0362269Y0047122D01*
X0362136Y0047104D01*
X0362002Y0047090D01*
X0361868Y0047080D01*
X0361734Y0047074D01*
X0361600Y0047072D01*
X0361466Y0047074D01*
X0361332Y0047080D01*
X0361198Y0047090D01*
X0361064Y0047104D01*
X0360931Y0047122D01*
X0360799Y0047143D01*
X0360667Y0047169D01*
X0360536Y0047199D01*
X0360406Y0047232D01*
X0360278Y0047269D01*
X0360150Y0047311D01*
X0360023Y0047355D01*
X0359898Y0047404D01*
X0359775Y0047456D01*
X0359653Y0047512D01*
X0359532Y0047572D01*
X0359414Y0047635D01*
X0359297Y0047701D01*
X0359183Y0047771D01*
X0359070Y0047844D01*
X0358960Y0047921D01*
X0358852Y0048001D01*
X0358747Y0048084D01*
X0358644Y0048170D01*
X0358544Y0048259D01*
X0358446Y0048351D01*
X0358351Y0048446D01*
X0358259Y0048544D01*
X0358170Y0048644D01*
X0358084Y0048747D01*
X0358001Y0048852D01*
X0357921Y0048960D01*
X0357844Y0049070D01*
X0357771Y0049183D01*
X0357701Y0049297D01*
X0357635Y0049414D01*
X0357572Y0049532D01*
X0357512Y0049653D01*
X0357456Y0049775D01*
X0357404Y0049898D01*
X0357355Y0050023D01*
X0357311Y0050150D01*
X0357269Y0050278D01*
X0357232Y0050406D01*
X0357199Y0050536D01*
X0357169Y0050667D01*
X0357143Y0050799D01*
X0357122Y0050931D01*
X0357104Y0051064D01*
X0357090Y0051198D01*
X0357080Y0051332D01*
X0357074Y0051466D01*
X0357072Y0051600D01*
X0360100Y0016600D02*
X0360102Y0016761D01*
X0360108Y0016921D01*
X0360118Y0017082D01*
X0360132Y0017242D01*
X0360150Y0017402D01*
X0360171Y0017561D01*
X0360197Y0017720D01*
X0360227Y0017878D01*
X0360260Y0018035D01*
X0360298Y0018192D01*
X0360339Y0018347D01*
X0360384Y0018501D01*
X0360433Y0018654D01*
X0360486Y0018806D01*
X0360542Y0018957D01*
X0360603Y0019106D01*
X0360666Y0019254D01*
X0360734Y0019400D01*
X0360805Y0019544D01*
X0360879Y0019686D01*
X0360957Y0019827D01*
X0361039Y0019965D01*
X0361124Y0020102D01*
X0361212Y0020236D01*
X0361304Y0020368D01*
X0361399Y0020498D01*
X0361497Y0020626D01*
X0361598Y0020751D01*
X0361702Y0020873D01*
X0361809Y0020993D01*
X0361919Y0021110D01*
X0362032Y0021225D01*
X0362148Y0021336D01*
X0362267Y0021445D01*
X0362388Y0021550D01*
X0362512Y0021653D01*
X0362638Y0021753D01*
X0362766Y0021849D01*
X0362897Y0021942D01*
X0363031Y0022032D01*
X0363166Y0022119D01*
X0363304Y0022202D01*
X0363443Y0022282D01*
X0363585Y0022358D01*
X0363728Y0022431D01*
X0363873Y0022500D01*
X0364020Y0022566D01*
X0364168Y0022628D01*
X0364318Y0022686D01*
X0364469Y0022741D01*
X0364622Y0022792D01*
X0364776Y0022839D01*
X0364931Y0022882D01*
X0365087Y0022921D01*
X0365243Y0022957D01*
X0365401Y0022988D01*
X0365559Y0023016D01*
X0365718Y0023040D01*
X0365878Y0023060D01*
X0366038Y0023076D01*
X0366198Y0023088D01*
X0366359Y0023096D01*
X0366520Y0023100D01*
X0366680Y0023100D01*
X0366841Y0023096D01*
X0367002Y0023088D01*
X0367162Y0023076D01*
X0367322Y0023060D01*
X0367482Y0023040D01*
X0367641Y0023016D01*
X0367799Y0022988D01*
X0367957Y0022957D01*
X0368113Y0022921D01*
X0368269Y0022882D01*
X0368424Y0022839D01*
X0368578Y0022792D01*
X0368731Y0022741D01*
X0368882Y0022686D01*
X0369032Y0022628D01*
X0369180Y0022566D01*
X0369327Y0022500D01*
X0369472Y0022431D01*
X0369615Y0022358D01*
X0369757Y0022282D01*
X0369896Y0022202D01*
X0370034Y0022119D01*
X0370169Y0022032D01*
X0370303Y0021942D01*
X0370434Y0021849D01*
X0370562Y0021753D01*
X0370688Y0021653D01*
X0370812Y0021550D01*
X0370933Y0021445D01*
X0371052Y0021336D01*
X0371168Y0021225D01*
X0371281Y0021110D01*
X0371391Y0020993D01*
X0371498Y0020873D01*
X0371602Y0020751D01*
X0371703Y0020626D01*
X0371801Y0020498D01*
X0371896Y0020368D01*
X0371988Y0020236D01*
X0372076Y0020102D01*
X0372161Y0019965D01*
X0372243Y0019827D01*
X0372321Y0019686D01*
X0372395Y0019544D01*
X0372466Y0019400D01*
X0372534Y0019254D01*
X0372597Y0019106D01*
X0372658Y0018957D01*
X0372714Y0018806D01*
X0372767Y0018654D01*
X0372816Y0018501D01*
X0372861Y0018347D01*
X0372902Y0018192D01*
X0372940Y0018035D01*
X0372973Y0017878D01*
X0373003Y0017720D01*
X0373029Y0017561D01*
X0373050Y0017402D01*
X0373068Y0017242D01*
X0373082Y0017082D01*
X0373092Y0016921D01*
X0373098Y0016761D01*
X0373100Y0016600D01*
X0373098Y0016439D01*
X0373092Y0016279D01*
X0373082Y0016118D01*
X0373068Y0015958D01*
X0373050Y0015798D01*
X0373029Y0015639D01*
X0373003Y0015480D01*
X0372973Y0015322D01*
X0372940Y0015165D01*
X0372902Y0015008D01*
X0372861Y0014853D01*
X0372816Y0014699D01*
X0372767Y0014546D01*
X0372714Y0014394D01*
X0372658Y0014243D01*
X0372597Y0014094D01*
X0372534Y0013946D01*
X0372466Y0013800D01*
X0372395Y0013656D01*
X0372321Y0013514D01*
X0372243Y0013373D01*
X0372161Y0013235D01*
X0372076Y0013098D01*
X0371988Y0012964D01*
X0371896Y0012832D01*
X0371801Y0012702D01*
X0371703Y0012574D01*
X0371602Y0012449D01*
X0371498Y0012327D01*
X0371391Y0012207D01*
X0371281Y0012090D01*
X0371168Y0011975D01*
X0371052Y0011864D01*
X0370933Y0011755D01*
X0370812Y0011650D01*
X0370688Y0011547D01*
X0370562Y0011447D01*
X0370434Y0011351D01*
X0370303Y0011258D01*
X0370169Y0011168D01*
X0370034Y0011081D01*
X0369896Y0010998D01*
X0369757Y0010918D01*
X0369615Y0010842D01*
X0369472Y0010769D01*
X0369327Y0010700D01*
X0369180Y0010634D01*
X0369032Y0010572D01*
X0368882Y0010514D01*
X0368731Y0010459D01*
X0368578Y0010408D01*
X0368424Y0010361D01*
X0368269Y0010318D01*
X0368113Y0010279D01*
X0367957Y0010243D01*
X0367799Y0010212D01*
X0367641Y0010184D01*
X0367482Y0010160D01*
X0367322Y0010140D01*
X0367162Y0010124D01*
X0367002Y0010112D01*
X0366841Y0010104D01*
X0366680Y0010100D01*
X0366520Y0010100D01*
X0366359Y0010104D01*
X0366198Y0010112D01*
X0366038Y0010124D01*
X0365878Y0010140D01*
X0365718Y0010160D01*
X0365559Y0010184D01*
X0365401Y0010212D01*
X0365243Y0010243D01*
X0365087Y0010279D01*
X0364931Y0010318D01*
X0364776Y0010361D01*
X0364622Y0010408D01*
X0364469Y0010459D01*
X0364318Y0010514D01*
X0364168Y0010572D01*
X0364020Y0010634D01*
X0363873Y0010700D01*
X0363728Y0010769D01*
X0363585Y0010842D01*
X0363443Y0010918D01*
X0363304Y0010998D01*
X0363166Y0011081D01*
X0363031Y0011168D01*
X0362897Y0011258D01*
X0362766Y0011351D01*
X0362638Y0011447D01*
X0362512Y0011547D01*
X0362388Y0011650D01*
X0362267Y0011755D01*
X0362148Y0011864D01*
X0362032Y0011975D01*
X0361919Y0012090D01*
X0361809Y0012207D01*
X0361702Y0012327D01*
X0361598Y0012449D01*
X0361497Y0012574D01*
X0361399Y0012702D01*
X0361304Y0012832D01*
X0361212Y0012964D01*
X0361124Y0013098D01*
X0361039Y0013235D01*
X0360957Y0013373D01*
X0360879Y0013514D01*
X0360805Y0013656D01*
X0360734Y0013800D01*
X0360666Y0013946D01*
X0360603Y0014094D01*
X0360542Y0014243D01*
X0360486Y0014394D01*
X0360433Y0014546D01*
X0360384Y0014699D01*
X0360339Y0014853D01*
X0360298Y0015008D01*
X0360260Y0015165D01*
X0360227Y0015322D01*
X0360197Y0015480D01*
X0360171Y0015639D01*
X0360150Y0015798D01*
X0360132Y0015958D01*
X0360118Y0016118D01*
X0360108Y0016279D01*
X0360102Y0016439D01*
X0360100Y0016600D01*
D12*
X0040788Y0097092D02*
X0036457Y0097092D01*
X0023406Y0097092D02*
X0020965Y0097092D01*
X0020965Y0131108D02*
X0023406Y0131108D01*
X0036457Y0131108D02*
X0040788Y0131108D01*
M02*
