G75*
%MOIN*%
%OFA0B0*%
%FSLAX25Y25*%
%IPPOS*%
%LPD*%
%AMOC8*
5,1,8,0,0,1.08239X$1,22.5*
%
%ADD10C,0.06600*%
%ADD11R,0.07400X0.07400*%
%ADD12OC8,0.11811*%
%ADD13C,0.07400*%
%ADD14C,0.10800*%
%ADD15C,0.08600*%
%ADD16C,0.03937*%
%ADD17C,0.02969*%
%ADD18C,0.01200*%
%ADD19C,0.02400*%
%ADD20C,0.01600*%
%ADD21C,0.00800*%
D10*
X0141600Y0092850D03*
X0151600Y0092850D03*
X0161600Y0092850D03*
X0065800Y0151600D03*
X0067400Y0161600D03*
X0065800Y0171600D03*
X0067400Y0181600D03*
D11*
X0096757Y0069159D03*
X0106600Y0069159D03*
X0116443Y0069159D03*
X0189257Y0069159D03*
X0199100Y0069159D03*
X0208943Y0069159D03*
X0281757Y0069159D03*
X0291600Y0069159D03*
X0301443Y0069159D03*
D12*
X0308923Y0041600D03*
X0274277Y0041600D03*
X0216423Y0041600D03*
X0181777Y0041600D03*
X0123923Y0041600D03*
X0089277Y0041600D03*
D13*
X0031600Y0195900D03*
X0031600Y0206600D03*
X0031600Y0217300D03*
X0352700Y0159400D03*
X0370500Y0159400D03*
X0370500Y0133800D03*
X0352700Y0133800D03*
X0352700Y0109400D03*
X0370500Y0109400D03*
X0370500Y0083800D03*
X0352700Y0083800D03*
D14*
X0300616Y0201561D03*
X0300616Y0221561D03*
X0327183Y0211561D03*
X0097584Y0201639D03*
X0097584Y0221639D03*
X0071017Y0211639D03*
D15*
X0359100Y0205576D03*
X0359100Y0191797D03*
X0359100Y0178017D03*
X0359100Y0219356D03*
D16*
X0040789Y0131108D02*
X0040789Y0131108D01*
X0036457Y0131108D01*
X0036457Y0131108D01*
X0040789Y0131108D01*
X0023347Y0131108D02*
X0023347Y0131108D01*
X0020985Y0131108D01*
X0020985Y0131108D01*
X0023347Y0131108D01*
X0023347Y0097092D02*
X0023347Y0097092D01*
X0020985Y0097092D01*
X0020985Y0097092D01*
X0023347Y0097092D01*
X0040789Y0097092D02*
X0040789Y0097092D01*
X0036457Y0097092D01*
X0036457Y0097092D01*
X0040789Y0097092D01*
D17*
X0046600Y0101600D03*
X0021600Y0101600D03*
X0021600Y0126600D03*
X0046600Y0127850D03*
X0066600Y0126600D03*
X0074100Y0117850D03*
X0074100Y0110350D03*
X0086600Y0114100D03*
X0101600Y0111600D03*
X0114100Y0111600D03*
X0116600Y0116600D03*
X0107850Y0124100D03*
X0091600Y0129100D03*
X0078475Y0138475D03*
X0091600Y0144100D03*
X0134100Y0124100D03*
X0144100Y0128475D03*
X0163850Y0136600D03*
X0169100Y0129100D03*
X0174100Y0129100D03*
X0189100Y0126600D03*
X0209100Y0129100D03*
X0210100Y0124100D03*
X0211600Y0119100D03*
X0231600Y0126600D03*
X0261600Y0134100D03*
X0261600Y0144100D03*
X0261600Y0154100D03*
X0295975Y0162225D03*
X0301600Y0134100D03*
X0316600Y0126600D03*
X0294100Y0099100D03*
X0261600Y0109100D03*
X0261600Y0114100D03*
X0187225Y0104100D03*
X0171600Y0105350D03*
X0171600Y0112850D03*
X0148475Y0103475D03*
X0129725Y0095975D03*
X0166600Y0145350D03*
X0146600Y0154100D03*
X0046600Y0164100D03*
X0346600Y0051600D03*
D18*
X0023369Y0014784D02*
X0020396Y0014784D01*
X0019198Y0015982D02*
X0023300Y0015982D01*
X0023300Y0014949D02*
X0024564Y0011898D01*
X0026898Y0009564D01*
X0029949Y0008300D01*
X0031186Y0008300D01*
X0033251Y0008300D01*
X0036302Y0009564D01*
X0038636Y0011898D01*
X0038636Y0011898D01*
X0039900Y0014949D01*
X0039900Y0018251D01*
X0038636Y0021302D01*
X0036302Y0023636D01*
X0033251Y0024900D01*
X0029949Y0024900D01*
X0026898Y0023636D01*
X0024564Y0021302D01*
X0024564Y0021302D01*
X0023300Y0018251D01*
X0023300Y0014949D01*
X0023865Y0013585D02*
X0021595Y0013585D01*
X0022793Y0012387D02*
X0024361Y0012387D01*
X0024564Y0011898D02*
X0024564Y0011898D01*
X0023992Y0011188D02*
X0025274Y0011188D01*
X0025190Y0009990D02*
X0026472Y0009990D01*
X0026898Y0009564D02*
X0026898Y0009564D01*
X0026389Y0008791D02*
X0028763Y0008791D01*
X0027587Y0007593D02*
X0370613Y0007593D01*
X0369437Y0008791D02*
X0371811Y0008791D01*
X0371302Y0009564D02*
X0373636Y0011898D01*
X0373636Y0011898D01*
X0374900Y0014949D01*
X0374900Y0018251D01*
X0373636Y0021302D01*
X0371302Y0023636D01*
X0368251Y0024900D01*
X0364949Y0024900D01*
X0361898Y0023636D01*
X0359564Y0021302D01*
X0359564Y0021302D01*
X0358300Y0018251D01*
X0358300Y0014949D01*
X0359564Y0011898D01*
X0361898Y0009564D01*
X0364949Y0008300D01*
X0367014Y0008300D01*
X0368251Y0008300D01*
X0371302Y0009564D01*
X0371302Y0009564D01*
X0371728Y0009990D02*
X0373010Y0009990D01*
X0372926Y0011188D02*
X0374208Y0011188D01*
X0373839Y0012387D02*
X0375407Y0012387D01*
X0374335Y0013585D02*
X0376605Y0013585D01*
X0377804Y0014784D02*
X0374831Y0014784D01*
X0374900Y0015982D02*
X0379002Y0015982D01*
X0380200Y0017180D02*
X0366020Y0003000D01*
X0032180Y0003000D01*
X0018000Y0017180D01*
X0018000Y0093279D01*
X0018354Y0092925D01*
X0043596Y0092925D01*
X0044650Y0093979D01*
X0044650Y0095471D01*
X0044650Y0134221D01*
X0043596Y0135275D01*
X0018354Y0135275D01*
X0018000Y0134921D01*
X0018000Y0241020D01*
X0032180Y0255200D01*
X0366020Y0255200D01*
X0380200Y0241020D01*
X0380200Y0017180D01*
X0380200Y0017181D02*
X0374900Y0017181D01*
X0374847Y0018379D02*
X0380200Y0018379D01*
X0380200Y0019578D02*
X0374350Y0019578D01*
X0373854Y0020776D02*
X0380200Y0020776D01*
X0380200Y0021975D02*
X0372963Y0021975D01*
X0373636Y0021302D02*
X0373636Y0021302D01*
X0371765Y0023173D02*
X0380200Y0023173D01*
X0380200Y0024372D02*
X0369526Y0024372D01*
X0371302Y0023636D02*
X0371302Y0023636D01*
X0363674Y0024372D02*
X0034526Y0024372D01*
X0036765Y0023173D02*
X0361435Y0023173D01*
X0361898Y0023636D02*
X0361898Y0023636D01*
X0360237Y0021975D02*
X0037963Y0021975D01*
X0038636Y0021302D02*
X0038636Y0021302D01*
X0038854Y0020776D02*
X0359346Y0020776D01*
X0358850Y0019578D02*
X0039350Y0019578D01*
X0039847Y0018379D02*
X0358353Y0018379D01*
X0358300Y0017181D02*
X0039900Y0017181D01*
X0039900Y0015982D02*
X0358300Y0015982D01*
X0358369Y0014784D02*
X0039831Y0014784D01*
X0039335Y0013585D02*
X0358865Y0013585D01*
X0359361Y0012387D02*
X0038839Y0012387D01*
X0037926Y0011188D02*
X0360274Y0011188D01*
X0359564Y0011898D02*
X0359564Y0011898D01*
X0361472Y0009990D02*
X0036728Y0009990D01*
X0036302Y0009564D02*
X0036302Y0009564D01*
X0034437Y0008791D02*
X0363763Y0008791D01*
X0361898Y0009564D02*
X0361898Y0009564D01*
X0368251Y0008300D02*
X0368251Y0008300D01*
X0369414Y0006394D02*
X0028786Y0006394D01*
X0029984Y0005196D02*
X0368216Y0005196D01*
X0367017Y0003997D02*
X0031183Y0003997D01*
X0023300Y0017181D02*
X0018000Y0017181D01*
X0018000Y0018379D02*
X0023353Y0018379D01*
X0023850Y0019578D02*
X0018000Y0019578D01*
X0018000Y0020776D02*
X0024346Y0020776D01*
X0025237Y0021975D02*
X0018000Y0021975D01*
X0018000Y0023173D02*
X0026435Y0023173D01*
X0026898Y0023636D02*
X0026898Y0023636D01*
X0028674Y0024372D02*
X0018000Y0024372D01*
X0018000Y0025570D02*
X0380200Y0025570D01*
X0380200Y0026769D02*
X0018000Y0026769D01*
X0018000Y0027967D02*
X0380200Y0027967D01*
X0380200Y0029166D02*
X0018000Y0029166D01*
X0018000Y0030364D02*
X0380200Y0030364D01*
X0380200Y0031563D02*
X0018000Y0031563D01*
X0018000Y0032761D02*
X0380200Y0032761D01*
X0380200Y0033960D02*
X0018000Y0033960D01*
X0018000Y0035158D02*
X0086094Y0035158D01*
X0086458Y0034794D02*
X0092096Y0034794D01*
X0096083Y0038781D01*
X0096083Y0044419D01*
X0092096Y0048405D01*
X0086458Y0048405D01*
X0082472Y0044419D01*
X0082472Y0038781D01*
X0086458Y0034794D01*
X0084896Y0036357D02*
X0018000Y0036357D01*
X0018000Y0037555D02*
X0083697Y0037555D01*
X0082499Y0038754D02*
X0018000Y0038754D01*
X0018000Y0039952D02*
X0082472Y0039952D01*
X0082472Y0041151D02*
X0018000Y0041151D01*
X0018000Y0042349D02*
X0082472Y0042349D01*
X0082472Y0043548D02*
X0018000Y0043548D01*
X0018000Y0044746D02*
X0082799Y0044746D01*
X0083998Y0045945D02*
X0018000Y0045945D01*
X0018000Y0047143D02*
X0085196Y0047143D01*
X0086395Y0048342D02*
X0018000Y0048342D01*
X0018000Y0049540D02*
X0345288Y0049540D01*
X0345612Y0049216D02*
X0347588Y0049216D01*
X0348984Y0050612D01*
X0348984Y0052588D01*
X0347588Y0053984D01*
X0345612Y0053984D01*
X0344928Y0053300D01*
X0342304Y0053300D01*
X0296484Y0099120D01*
X0296484Y0100088D01*
X0295088Y0101484D01*
X0293112Y0101484D01*
X0291716Y0100088D01*
X0291716Y0098112D01*
X0293112Y0096716D01*
X0294080Y0096716D01*
X0340896Y0049900D01*
X0344928Y0049900D01*
X0345612Y0049216D01*
X0347912Y0049540D02*
X0356470Y0049540D01*
X0356072Y0050500D02*
X0356914Y0048469D01*
X0358469Y0046914D01*
X0360500Y0046072D01*
X0362699Y0046072D01*
X0364731Y0046914D01*
X0366286Y0048469D01*
X0367128Y0050500D01*
X0367128Y0052699D01*
X0366286Y0054731D01*
X0364731Y0056286D01*
X0362699Y0057128D01*
X0360500Y0057128D01*
X0358469Y0056286D01*
X0356914Y0054731D01*
X0356072Y0052699D01*
X0356072Y0050500D01*
X0356072Y0050739D02*
X0348984Y0050739D01*
X0348984Y0051937D02*
X0356072Y0051937D01*
X0356253Y0053136D02*
X0348436Y0053136D01*
X0341270Y0054334D02*
X0356750Y0054334D01*
X0357716Y0055533D02*
X0340071Y0055533D01*
X0338873Y0056732D02*
X0359544Y0056732D01*
X0363656Y0056732D02*
X0380200Y0056732D01*
X0380200Y0057930D02*
X0337674Y0057930D01*
X0336476Y0059129D02*
X0380200Y0059129D01*
X0380200Y0060327D02*
X0335277Y0060327D01*
X0334079Y0061526D02*
X0380200Y0061526D01*
X0380200Y0062724D02*
X0332880Y0062724D01*
X0331682Y0063923D02*
X0380200Y0063923D01*
X0380200Y0065121D02*
X0330483Y0065121D01*
X0329285Y0066320D02*
X0380200Y0066320D01*
X0380200Y0067518D02*
X0328086Y0067518D01*
X0326888Y0068717D02*
X0380200Y0068717D01*
X0380200Y0069915D02*
X0325689Y0069915D01*
X0324490Y0071114D02*
X0380200Y0071114D01*
X0380200Y0072312D02*
X0323292Y0072312D01*
X0322093Y0073511D02*
X0380200Y0073511D01*
X0380200Y0074709D02*
X0320895Y0074709D01*
X0319696Y0075908D02*
X0380200Y0075908D01*
X0380200Y0077106D02*
X0318498Y0077106D01*
X0317299Y0078305D02*
X0380200Y0078305D01*
X0380200Y0079503D02*
X0373603Y0079503D01*
X0373278Y0079267D02*
X0373953Y0079757D01*
X0374543Y0080347D01*
X0375033Y0081022D01*
X0375412Y0081766D01*
X0375669Y0082559D01*
X0375800Y0083383D01*
X0375800Y0083400D01*
X0370900Y0083400D01*
X0370900Y0084200D01*
X0370100Y0084200D01*
X0370100Y0089100D01*
X0370083Y0089100D01*
X0369259Y0088969D01*
X0368466Y0088712D01*
X0367722Y0088333D01*
X0367047Y0087843D01*
X0366457Y0087253D01*
X0365967Y0086578D01*
X0365588Y0085834D01*
X0365330Y0085041D01*
X0365200Y0084217D01*
X0365200Y0084200D01*
X0370100Y0084200D01*
X0370100Y0083400D01*
X0365200Y0083400D01*
X0365200Y0083383D01*
X0365330Y0082559D01*
X0365588Y0081766D01*
X0365967Y0081022D01*
X0366457Y0080347D01*
X0367047Y0079757D01*
X0367722Y0079267D01*
X0368466Y0078888D01*
X0369259Y0078630D01*
X0370083Y0078500D01*
X0370100Y0078500D01*
X0370100Y0083400D01*
X0370900Y0083400D01*
X0370900Y0078500D01*
X0370917Y0078500D01*
X0371741Y0078630D01*
X0372534Y0078888D01*
X0373278Y0079267D01*
X0374800Y0080702D02*
X0380200Y0080702D01*
X0380200Y0081900D02*
X0375455Y0081900D01*
X0375755Y0083099D02*
X0380200Y0083099D01*
X0380200Y0084297D02*
X0375787Y0084297D01*
X0375800Y0084217D02*
X0375669Y0085041D01*
X0375412Y0085834D01*
X0375033Y0086578D01*
X0374543Y0087253D01*
X0373953Y0087843D01*
X0373278Y0088333D01*
X0372534Y0088712D01*
X0371741Y0088969D01*
X0370917Y0089100D01*
X0370900Y0089100D01*
X0370900Y0084200D01*
X0375800Y0084200D01*
X0375800Y0084217D01*
X0375522Y0085496D02*
X0380200Y0085496D01*
X0380200Y0086694D02*
X0374948Y0086694D01*
X0373884Y0087893D02*
X0380200Y0087893D01*
X0380200Y0089091D02*
X0370972Y0089091D01*
X0370900Y0089091D02*
X0370100Y0089091D01*
X0370028Y0089091D02*
X0353100Y0089091D01*
X0353100Y0088400D02*
X0353100Y0097221D01*
X0352221Y0098100D01*
X0339721Y0110600D01*
X0263472Y0110600D01*
X0262588Y0111484D01*
X0260612Y0111484D01*
X0259216Y0110088D01*
X0259216Y0108112D01*
X0260612Y0106716D01*
X0262588Y0106716D01*
X0263472Y0107600D01*
X0338479Y0107600D01*
X0350100Y0095979D01*
X0350100Y0087702D01*
X0350094Y0087700D01*
X0348800Y0086406D01*
X0348100Y0084715D01*
X0348100Y0082885D01*
X0348800Y0081194D01*
X0350094Y0079900D01*
X0351785Y0079200D01*
X0353615Y0079200D01*
X0355306Y0079900D01*
X0356600Y0081194D01*
X0357300Y0082885D01*
X0357300Y0084715D01*
X0356600Y0086406D01*
X0355306Y0087700D01*
X0353615Y0088400D01*
X0353100Y0088400D01*
X0354839Y0087893D02*
X0367116Y0087893D01*
X0366052Y0086694D02*
X0356311Y0086694D01*
X0356977Y0085496D02*
X0365478Y0085496D01*
X0365213Y0084297D02*
X0357300Y0084297D01*
X0357300Y0083099D02*
X0365245Y0083099D01*
X0365545Y0081900D02*
X0356892Y0081900D01*
X0356107Y0080702D02*
X0366200Y0080702D01*
X0367397Y0079503D02*
X0354347Y0079503D01*
X0351053Y0079503D02*
X0316101Y0079503D01*
X0314902Y0080702D02*
X0349293Y0080702D01*
X0348508Y0081900D02*
X0313704Y0081900D01*
X0312505Y0083099D02*
X0348100Y0083099D01*
X0348100Y0084297D02*
X0338159Y0084297D01*
X0338802Y0084564D02*
X0335751Y0083300D01*
X0333686Y0083300D01*
X0332449Y0083300D01*
X0329398Y0084564D01*
X0329398Y0084564D01*
X0327064Y0086898D01*
X0327064Y0086898D01*
X0325800Y0089949D01*
X0325800Y0093251D01*
X0327064Y0096302D01*
X0329398Y0098636D01*
X0329398Y0098636D01*
X0332449Y0099900D01*
X0335751Y0099900D01*
X0338802Y0098636D01*
X0338802Y0098636D01*
X0341136Y0096302D01*
X0341136Y0096302D01*
X0342400Y0093251D01*
X0342400Y0089949D01*
X0341136Y0086898D01*
X0341136Y0086898D01*
X0338802Y0084564D01*
X0338802Y0084564D01*
X0339734Y0085496D02*
X0348423Y0085496D01*
X0349089Y0086694D02*
X0340932Y0086694D01*
X0341548Y0087893D02*
X0350100Y0087893D01*
X0350100Y0089091D02*
X0342045Y0089091D01*
X0342400Y0090290D02*
X0350100Y0090290D01*
X0350100Y0091488D02*
X0342400Y0091488D01*
X0342400Y0092687D02*
X0350100Y0092687D01*
X0350100Y0093885D02*
X0342137Y0093885D01*
X0341641Y0095084D02*
X0350100Y0095084D01*
X0349796Y0096282D02*
X0341144Y0096282D01*
X0339957Y0097481D02*
X0348598Y0097481D01*
X0347399Y0098679D02*
X0338698Y0098679D01*
X0335804Y0099878D02*
X0346201Y0099878D01*
X0345002Y0101076D02*
X0295495Y0101076D01*
X0296484Y0099878D02*
X0332396Y0099878D01*
X0329502Y0098679D02*
X0296925Y0098679D01*
X0298123Y0097481D02*
X0328243Y0097481D01*
X0327056Y0096282D02*
X0299322Y0096282D01*
X0300520Y0095084D02*
X0326559Y0095084D01*
X0326063Y0093885D02*
X0301719Y0093885D01*
X0302917Y0092687D02*
X0325800Y0092687D01*
X0325800Y0091488D02*
X0304116Y0091488D01*
X0305314Y0090290D02*
X0325800Y0090290D01*
X0326155Y0089091D02*
X0306513Y0089091D01*
X0307711Y0087893D02*
X0326652Y0087893D01*
X0327268Y0086694D02*
X0308910Y0086694D01*
X0310108Y0085496D02*
X0328466Y0085496D01*
X0329398Y0084564D02*
X0329398Y0084564D01*
X0330041Y0084297D02*
X0311307Y0084297D01*
X0308896Y0081900D02*
X0293100Y0081900D01*
X0293100Y0082221D02*
X0292221Y0083100D01*
X0287221Y0088100D01*
X0208471Y0088100D01*
X0204350Y0092221D01*
X0204350Y0109729D01*
X0211337Y0116716D01*
X0212588Y0116716D01*
X0213984Y0118112D01*
X0213984Y0120088D01*
X0212588Y0121484D01*
X0210612Y0121484D01*
X0209216Y0120088D01*
X0209216Y0118837D01*
X0202229Y0111850D01*
X0201350Y0110971D01*
X0201350Y0090979D01*
X0206350Y0085979D01*
X0207229Y0085100D01*
X0285979Y0085100D01*
X0290100Y0080979D01*
X0290100Y0073759D01*
X0287527Y0073759D01*
X0287000Y0073232D01*
X0287000Y0065086D01*
X0287527Y0064559D01*
X0295673Y0064559D01*
X0296189Y0065075D01*
X0296252Y0064841D01*
X0296462Y0064477D01*
X0296760Y0064179D01*
X0297125Y0063968D01*
X0297532Y0063859D01*
X0301058Y0063859D01*
X0301058Y0068775D01*
X0301827Y0068775D01*
X0301827Y0069543D01*
X0306743Y0069543D01*
X0306743Y0073070D01*
X0306633Y0073477D01*
X0306423Y0073841D01*
X0306125Y0074139D01*
X0305760Y0074350D01*
X0305353Y0074459D01*
X0301827Y0074459D01*
X0301827Y0069543D01*
X0301058Y0069543D01*
X0301058Y0074459D01*
X0297532Y0074459D01*
X0297125Y0074350D01*
X0296760Y0074139D01*
X0296462Y0073841D01*
X0296252Y0073477D01*
X0296189Y0073243D01*
X0295673Y0073759D01*
X0293100Y0073759D01*
X0293100Y0082221D01*
X0292223Y0083099D02*
X0307697Y0083099D01*
X0306499Y0084297D02*
X0291024Y0084297D01*
X0289826Y0085496D02*
X0305300Y0085496D01*
X0304102Y0086694D02*
X0288627Y0086694D01*
X0287428Y0087893D02*
X0302903Y0087893D01*
X0301705Y0089091D02*
X0207480Y0089091D01*
X0206281Y0090290D02*
X0300506Y0090290D01*
X0299307Y0091488D02*
X0205083Y0091488D01*
X0204350Y0092687D02*
X0298109Y0092687D01*
X0296910Y0093885D02*
X0204350Y0093885D01*
X0204350Y0095084D02*
X0295712Y0095084D01*
X0294513Y0096282D02*
X0204350Y0096282D01*
X0204350Y0097481D02*
X0292347Y0097481D01*
X0291716Y0098679D02*
X0204350Y0098679D01*
X0204350Y0099878D02*
X0291716Y0099878D01*
X0292705Y0101076D02*
X0204350Y0101076D01*
X0204350Y0102275D02*
X0343804Y0102275D01*
X0342605Y0103473D02*
X0204350Y0103473D01*
X0204350Y0104672D02*
X0341407Y0104672D01*
X0340208Y0105870D02*
X0204350Y0105870D01*
X0204350Y0107069D02*
X0260259Y0107069D01*
X0259216Y0108268D02*
X0204350Y0108268D01*
X0204350Y0109466D02*
X0259216Y0109466D01*
X0259793Y0110665D02*
X0205286Y0110665D01*
X0206484Y0111863D02*
X0260465Y0111863D01*
X0260612Y0111716D02*
X0262588Y0111716D01*
X0263472Y0112600D01*
X0339721Y0112600D01*
X0352221Y0125100D01*
X0353100Y0125979D01*
X0353100Y0129200D01*
X0353615Y0129200D01*
X0355306Y0129900D01*
X0356600Y0131194D01*
X0357300Y0132885D01*
X0357300Y0134715D01*
X0356600Y0136406D01*
X0355306Y0137700D01*
X0353615Y0138400D01*
X0351785Y0138400D01*
X0350094Y0137700D01*
X0348800Y0136406D01*
X0348100Y0134715D01*
X0348100Y0132885D01*
X0348800Y0131194D01*
X0350094Y0129900D01*
X0350100Y0129898D01*
X0350100Y0127221D01*
X0338479Y0115600D01*
X0263472Y0115600D01*
X0262588Y0116484D01*
X0260612Y0116484D01*
X0259216Y0115088D01*
X0259216Y0113112D01*
X0260612Y0111716D01*
X0259267Y0113062D02*
X0207683Y0113062D01*
X0208881Y0114260D02*
X0259216Y0114260D01*
X0259587Y0115459D02*
X0210080Y0115459D01*
X0211278Y0116657D02*
X0339536Y0116657D01*
X0340734Y0117856D02*
X0213727Y0117856D01*
X0213984Y0119054D02*
X0341933Y0119054D01*
X0343131Y0120253D02*
X0213819Y0120253D01*
X0212621Y0121451D02*
X0344330Y0121451D01*
X0345528Y0122650D02*
X0212021Y0122650D01*
X0212484Y0123112D02*
X0212484Y0125088D01*
X0211088Y0126484D01*
X0209112Y0126484D01*
X0207716Y0125088D01*
X0207716Y0123837D01*
X0197600Y0113721D01*
X0197600Y0073759D01*
X0195027Y0073759D01*
X0194500Y0073232D01*
X0194500Y0065086D01*
X0195027Y0064559D01*
X0203173Y0064559D01*
X0203689Y0065075D01*
X0203752Y0064841D01*
X0203962Y0064477D01*
X0204260Y0064179D01*
X0204625Y0063968D01*
X0205032Y0063859D01*
X0208558Y0063859D01*
X0208558Y0068775D01*
X0209327Y0068775D01*
X0209327Y0069543D01*
X0214243Y0069543D01*
X0214243Y0073070D01*
X0214133Y0073477D01*
X0213923Y0073841D01*
X0213625Y0074139D01*
X0213260Y0074350D01*
X0212853Y0074459D01*
X0209327Y0074459D01*
X0209327Y0069543D01*
X0208558Y0069543D01*
X0208558Y0074459D01*
X0205032Y0074459D01*
X0204625Y0074350D01*
X0204260Y0074139D01*
X0203962Y0073841D01*
X0203752Y0073477D01*
X0203689Y0073243D01*
X0203173Y0073759D01*
X0200600Y0073759D01*
X0200600Y0112479D01*
X0209837Y0121716D01*
X0211088Y0121716D01*
X0212484Y0123112D01*
X0212484Y0123848D02*
X0346727Y0123848D01*
X0347925Y0125047D02*
X0212484Y0125047D01*
X0211327Y0126245D02*
X0349124Y0126245D01*
X0350100Y0127444D02*
X0210816Y0127444D01*
X0211484Y0128112D02*
X0210088Y0126716D01*
X0208837Y0126716D01*
X0196850Y0114729D01*
X0196850Y0090979D01*
X0191850Y0085979D01*
X0190971Y0085100D01*
X0112221Y0085100D01*
X0108100Y0080979D01*
X0108100Y0073759D01*
X0110673Y0073759D01*
X0111189Y0073243D01*
X0111252Y0073477D01*
X0111462Y0073841D01*
X0111760Y0074139D01*
X0112125Y0074350D01*
X0112532Y0074459D01*
X0116058Y0074459D01*
X0116058Y0069543D01*
X0116827Y0069543D01*
X0121743Y0069543D01*
X0121743Y0073070D01*
X0121633Y0073477D01*
X0121423Y0073841D01*
X0121125Y0074139D01*
X0120760Y0074350D01*
X0120353Y0074459D01*
X0116827Y0074459D01*
X0116827Y0069543D01*
X0116827Y0068775D01*
X0121743Y0068775D01*
X0121743Y0065248D01*
X0121633Y0064841D01*
X0121423Y0064477D01*
X0121125Y0064179D01*
X0120760Y0063968D01*
X0120353Y0063859D01*
X0116827Y0063859D01*
X0116827Y0068775D01*
X0116058Y0068775D01*
X0116058Y0063859D01*
X0112532Y0063859D01*
X0112125Y0063968D01*
X0111760Y0064179D01*
X0111462Y0064477D01*
X0111252Y0064841D01*
X0111189Y0065075D01*
X0110673Y0064559D01*
X0102527Y0064559D01*
X0102000Y0065086D01*
X0102000Y0073232D01*
X0102527Y0073759D01*
X0105100Y0073759D01*
X0105100Y0082221D01*
X0105979Y0083100D01*
X0110100Y0087221D01*
X0110100Y0087221D01*
X0110979Y0088100D01*
X0138695Y0088100D01*
X0138484Y0088187D01*
X0136937Y0089734D01*
X0136100Y0091756D01*
X0136100Y0093944D01*
X0136320Y0094475D01*
X0131597Y0094475D01*
X0130713Y0093591D01*
X0128737Y0093591D01*
X0127341Y0094987D01*
X0127341Y0096963D01*
X0128737Y0098359D01*
X0130713Y0098359D01*
X0131597Y0097475D01*
X0135354Y0097475D01*
X0166716Y0128837D01*
X0166716Y0130088D01*
X0168112Y0131484D01*
X0170088Y0131484D01*
X0171484Y0130088D01*
X0171484Y0128606D01*
X0171716Y0128837D01*
X0171716Y0130088D01*
X0173112Y0131484D01*
X0175088Y0131484D01*
X0176306Y0130266D01*
X0176867Y0130827D01*
X0175924Y0131218D01*
X0165199Y0141942D01*
X0164513Y0142227D01*
X0163477Y0143263D01*
X0162916Y0144617D01*
X0162916Y0146083D01*
X0163477Y0147437D01*
X0164513Y0148473D01*
X0165867Y0149034D01*
X0167333Y0149034D01*
X0168687Y0148473D01*
X0169723Y0147437D01*
X0170008Y0146751D01*
X0179258Y0137500D01*
X0260181Y0137500D01*
X0260867Y0137784D01*
X0262333Y0137784D01*
X0263019Y0137500D01*
X0300181Y0137500D01*
X0300867Y0137784D01*
X0302333Y0137784D01*
X0303687Y0137223D01*
X0304723Y0136187D01*
X0305284Y0134833D01*
X0305284Y0133367D01*
X0304723Y0132013D01*
X0303687Y0130977D01*
X0302333Y0130416D01*
X0300867Y0130416D01*
X0300181Y0130700D01*
X0263019Y0130700D01*
X0262333Y0130416D01*
X0260867Y0130416D01*
X0260181Y0130700D01*
X0210872Y0130700D01*
X0211484Y0130088D01*
X0211484Y0128112D01*
X0211484Y0128642D02*
X0350100Y0128642D01*
X0350100Y0129841D02*
X0211484Y0129841D01*
X0209100Y0129100D02*
X0195350Y0115350D01*
X0195350Y0091600D01*
X0190350Y0086600D01*
X0111600Y0086600D01*
X0106600Y0081600D01*
X0106600Y0069159D01*
X0102000Y0068717D02*
X0101357Y0068717D01*
X0101357Y0069915D02*
X0102000Y0069915D01*
X0102000Y0071114D02*
X0101357Y0071114D01*
X0101357Y0072312D02*
X0102000Y0072312D01*
X0101357Y0073232D02*
X0100830Y0073759D01*
X0092685Y0073759D01*
X0092157Y0073232D01*
X0092157Y0065086D01*
X0092685Y0064559D01*
X0100830Y0064559D01*
X0101357Y0065086D01*
X0101357Y0073232D01*
X0101079Y0073511D02*
X0102279Y0073511D01*
X0105100Y0074709D02*
X0018000Y0074709D01*
X0018000Y0073511D02*
X0092436Y0073511D01*
X0092157Y0072312D02*
X0075350Y0072312D01*
X0075350Y0072381D02*
X0074911Y0072820D01*
X0073289Y0072820D01*
X0072850Y0072381D01*
X0072850Y0071759D01*
X0073289Y0071320D01*
X0074911Y0071320D01*
X0075350Y0071759D01*
X0075350Y0072381D01*
X0072850Y0072312D02*
X0018000Y0072312D01*
X0018000Y0071114D02*
X0092157Y0071114D01*
X0092157Y0069915D02*
X0018000Y0069915D01*
X0018000Y0068717D02*
X0092157Y0068717D01*
X0092157Y0067518D02*
X0079723Y0067518D01*
X0079830Y0067411D02*
X0079391Y0067850D01*
X0078769Y0067850D01*
X0078330Y0067411D01*
X0078330Y0065789D01*
X0078769Y0065350D01*
X0079391Y0065350D01*
X0079830Y0065789D01*
X0079830Y0067411D01*
X0079830Y0066320D02*
X0092157Y0066320D01*
X0092157Y0065121D02*
X0018000Y0065121D01*
X0018000Y0063923D02*
X0112295Y0063923D01*
X0116058Y0063923D02*
X0116827Y0063923D01*
X0116827Y0065121D02*
X0116058Y0065121D01*
X0116058Y0066320D02*
X0116827Y0066320D01*
X0116827Y0067518D02*
X0116058Y0067518D01*
X0116058Y0068717D02*
X0116827Y0068717D01*
X0116827Y0069915D02*
X0116058Y0069915D01*
X0116058Y0071114D02*
X0116827Y0071114D01*
X0116827Y0072312D02*
X0116058Y0072312D01*
X0116058Y0073511D02*
X0116827Y0073511D01*
X0121614Y0073511D02*
X0184936Y0073511D01*
X0185185Y0073759D02*
X0184657Y0073232D01*
X0184657Y0065086D01*
X0185185Y0064559D01*
X0193330Y0064559D01*
X0193857Y0065086D01*
X0193857Y0073232D01*
X0193330Y0073759D01*
X0185185Y0073759D01*
X0184657Y0072312D02*
X0121743Y0072312D01*
X0121743Y0071114D02*
X0184657Y0071114D01*
X0184657Y0069915D02*
X0121743Y0069915D01*
X0121743Y0068717D02*
X0184657Y0068717D01*
X0184657Y0067518D02*
X0121743Y0067518D01*
X0121743Y0066320D02*
X0184657Y0066320D01*
X0184657Y0065121D02*
X0121708Y0065121D01*
X0120590Y0063923D02*
X0204795Y0063923D01*
X0208558Y0063923D02*
X0209327Y0063923D01*
X0209327Y0063859D02*
X0212853Y0063859D01*
X0213260Y0063968D01*
X0213625Y0064179D01*
X0213923Y0064477D01*
X0214133Y0064841D01*
X0214243Y0065248D01*
X0214243Y0068775D01*
X0209327Y0068775D01*
X0209327Y0063859D01*
X0209327Y0065121D02*
X0208558Y0065121D01*
X0208558Y0066320D02*
X0209327Y0066320D01*
X0209327Y0067518D02*
X0208558Y0067518D01*
X0208558Y0068717D02*
X0209327Y0068717D01*
X0209327Y0069915D02*
X0208558Y0069915D01*
X0208558Y0071114D02*
X0209327Y0071114D01*
X0209327Y0072312D02*
X0208558Y0072312D01*
X0208558Y0073511D02*
X0209327Y0073511D01*
X0214114Y0073511D02*
X0277436Y0073511D01*
X0277685Y0073759D02*
X0277157Y0073232D01*
X0277157Y0065086D01*
X0277685Y0064559D01*
X0285830Y0064559D01*
X0286357Y0065086D01*
X0286357Y0073232D01*
X0285830Y0073759D01*
X0277685Y0073759D01*
X0277157Y0072312D02*
X0214243Y0072312D01*
X0214243Y0071114D02*
X0277157Y0071114D01*
X0277157Y0069915D02*
X0214243Y0069915D01*
X0214243Y0068717D02*
X0277157Y0068717D01*
X0277157Y0067518D02*
X0214243Y0067518D01*
X0214243Y0066320D02*
X0277157Y0066320D01*
X0277157Y0065121D02*
X0214208Y0065121D01*
X0213090Y0063923D02*
X0297295Y0063923D01*
X0301058Y0063923D02*
X0301827Y0063923D01*
X0301827Y0063859D02*
X0305353Y0063859D01*
X0305760Y0063968D01*
X0306125Y0064179D01*
X0306423Y0064477D01*
X0306633Y0064841D01*
X0306743Y0065248D01*
X0306743Y0068775D01*
X0301827Y0068775D01*
X0301827Y0063859D01*
X0301827Y0065121D02*
X0301058Y0065121D01*
X0301058Y0066320D02*
X0301827Y0066320D01*
X0301827Y0067518D02*
X0301058Y0067518D01*
X0301058Y0068717D02*
X0301827Y0068717D01*
X0301827Y0069915D02*
X0301058Y0069915D01*
X0301058Y0071114D02*
X0301827Y0071114D01*
X0301827Y0072312D02*
X0301058Y0072312D01*
X0301058Y0073511D02*
X0301827Y0073511D01*
X0296271Y0073511D02*
X0295921Y0073511D01*
X0293100Y0074709D02*
X0316087Y0074709D01*
X0317285Y0073511D02*
X0306614Y0073511D01*
X0306743Y0072312D02*
X0318484Y0072312D01*
X0319682Y0071114D02*
X0306743Y0071114D01*
X0306743Y0069915D02*
X0320881Y0069915D01*
X0322079Y0068717D02*
X0306743Y0068717D01*
X0306743Y0067518D02*
X0323278Y0067518D01*
X0324476Y0066320D02*
X0306743Y0066320D01*
X0306708Y0065121D02*
X0325675Y0065121D01*
X0326873Y0063923D02*
X0305590Y0063923D01*
X0291600Y0069159D02*
X0291600Y0081600D01*
X0286600Y0086600D01*
X0207850Y0086600D01*
X0202850Y0091600D01*
X0202850Y0110350D01*
X0211600Y0119100D01*
X0209216Y0119054D02*
X0207175Y0119054D01*
X0208234Y0117856D02*
X0205977Y0117856D01*
X0207036Y0116657D02*
X0204778Y0116657D01*
X0205837Y0115459D02*
X0203580Y0115459D01*
X0204639Y0114260D02*
X0202381Y0114260D01*
X0203440Y0113062D02*
X0201183Y0113062D01*
X0200600Y0111863D02*
X0202242Y0111863D01*
X0201350Y0110665D02*
X0200600Y0110665D01*
X0200600Y0109466D02*
X0201350Y0109466D01*
X0201350Y0108268D02*
X0200600Y0108268D01*
X0200600Y0107069D02*
X0201350Y0107069D01*
X0201350Y0105870D02*
X0200600Y0105870D01*
X0200600Y0104672D02*
X0201350Y0104672D01*
X0201350Y0103473D02*
X0200600Y0103473D01*
X0200600Y0102275D02*
X0201350Y0102275D01*
X0201350Y0101076D02*
X0200600Y0101076D01*
X0200600Y0099878D02*
X0201350Y0099878D01*
X0201350Y0098679D02*
X0200600Y0098679D01*
X0200600Y0097481D02*
X0201350Y0097481D01*
X0201350Y0096282D02*
X0200600Y0096282D01*
X0200600Y0095084D02*
X0201350Y0095084D01*
X0201350Y0093885D02*
X0200600Y0093885D01*
X0200600Y0092687D02*
X0201350Y0092687D01*
X0201350Y0091488D02*
X0200600Y0091488D01*
X0200600Y0090290D02*
X0202039Y0090290D01*
X0203237Y0089091D02*
X0200600Y0089091D01*
X0200600Y0087893D02*
X0204436Y0087893D01*
X0205634Y0086694D02*
X0200600Y0086694D01*
X0200600Y0085496D02*
X0206833Y0085496D01*
X0200600Y0084297D02*
X0286781Y0084297D01*
X0287980Y0083099D02*
X0200600Y0083099D01*
X0200600Y0081900D02*
X0289178Y0081900D01*
X0290100Y0080702D02*
X0200600Y0080702D01*
X0200600Y0079503D02*
X0290100Y0079503D01*
X0290100Y0078305D02*
X0200600Y0078305D01*
X0200600Y0077106D02*
X0290100Y0077106D01*
X0290100Y0075908D02*
X0200600Y0075908D01*
X0200600Y0074709D02*
X0290100Y0074709D01*
X0287279Y0073511D02*
X0286079Y0073511D01*
X0286357Y0072312D02*
X0287000Y0072312D01*
X0287000Y0071114D02*
X0286357Y0071114D01*
X0286357Y0069915D02*
X0287000Y0069915D01*
X0287000Y0068717D02*
X0286357Y0068717D01*
X0286357Y0067518D02*
X0287000Y0067518D01*
X0287000Y0066320D02*
X0286357Y0066320D01*
X0286357Y0065121D02*
X0287000Y0065121D01*
X0293100Y0075908D02*
X0314888Y0075908D01*
X0313690Y0077106D02*
X0293100Y0077106D01*
X0293100Y0078305D02*
X0312491Y0078305D01*
X0311293Y0079503D02*
X0293100Y0079503D01*
X0293100Y0080702D02*
X0310094Y0080702D01*
X0328072Y0062724D02*
X0018000Y0062724D01*
X0018000Y0061526D02*
X0071935Y0061526D01*
X0071850Y0061441D02*
X0071850Y0060819D01*
X0072289Y0060380D01*
X0073911Y0060380D01*
X0074350Y0060819D01*
X0074350Y0061441D01*
X0073911Y0061880D01*
X0072289Y0061880D01*
X0071850Y0061441D01*
X0074265Y0061526D02*
X0329270Y0061526D01*
X0330469Y0060327D02*
X0018000Y0060327D01*
X0018000Y0059129D02*
X0028557Y0059129D01*
X0028768Y0059339D02*
X0027361Y0057932D01*
X0026600Y0056095D01*
X0026600Y0054105D01*
X0027361Y0052268D01*
X0028768Y0050861D01*
X0030605Y0050100D01*
X0032595Y0050100D01*
X0034432Y0050861D01*
X0035839Y0052268D01*
X0036600Y0054105D01*
X0036600Y0056095D01*
X0035839Y0057932D01*
X0034432Y0059339D01*
X0032595Y0060100D01*
X0030605Y0060100D01*
X0028768Y0059339D01*
X0027360Y0057930D02*
X0018000Y0057930D01*
X0018000Y0056732D02*
X0026864Y0056732D01*
X0026600Y0055533D02*
X0018000Y0055533D01*
X0018000Y0054334D02*
X0026600Y0054334D01*
X0027002Y0053136D02*
X0018000Y0053136D01*
X0018000Y0051937D02*
X0027691Y0051937D01*
X0029063Y0050739D02*
X0018000Y0050739D01*
X0034137Y0050739D02*
X0047063Y0050739D01*
X0046768Y0050861D02*
X0048605Y0050100D01*
X0050595Y0050100D01*
X0052432Y0050861D01*
X0053839Y0052268D01*
X0054600Y0054105D01*
X0054600Y0056095D01*
X0053839Y0057932D01*
X0052432Y0059339D01*
X0050595Y0060100D01*
X0048605Y0060100D01*
X0046768Y0059339D01*
X0045361Y0057932D01*
X0044600Y0056095D01*
X0044600Y0054105D01*
X0045361Y0052268D01*
X0046768Y0050861D01*
X0045691Y0051937D02*
X0035509Y0051937D01*
X0036198Y0053136D02*
X0045002Y0053136D01*
X0044600Y0054334D02*
X0036600Y0054334D01*
X0036600Y0055533D02*
X0044600Y0055533D01*
X0044864Y0056732D02*
X0036336Y0056732D01*
X0035840Y0057930D02*
X0045360Y0057930D01*
X0046557Y0059129D02*
X0034643Y0059129D01*
X0018000Y0066320D02*
X0067380Y0066320D01*
X0067380Y0065789D02*
X0067819Y0065350D01*
X0068441Y0065350D01*
X0068880Y0065789D01*
X0068880Y0067411D01*
X0068441Y0067850D01*
X0067819Y0067850D01*
X0067380Y0067411D01*
X0067380Y0065789D01*
X0068880Y0066320D02*
X0078330Y0066320D01*
X0078437Y0067518D02*
X0068773Y0067518D01*
X0067487Y0067518D02*
X0018000Y0067518D01*
X0018000Y0075908D02*
X0105100Y0075908D01*
X0105100Y0077106D02*
X0018000Y0077106D01*
X0018000Y0078305D02*
X0105100Y0078305D01*
X0105100Y0079503D02*
X0018000Y0079503D01*
X0018000Y0080702D02*
X0105100Y0080702D01*
X0105100Y0081900D02*
X0018000Y0081900D01*
X0018000Y0083099D02*
X0105977Y0083099D01*
X0107176Y0084297D02*
X0068159Y0084297D01*
X0068802Y0084564D02*
X0068802Y0084564D01*
X0071136Y0086898D01*
X0071136Y0086898D01*
X0072400Y0089949D01*
X0072400Y0093251D01*
X0071136Y0096302D01*
X0068802Y0098636D01*
X0068802Y0098636D01*
X0065751Y0099900D01*
X0062449Y0099900D01*
X0059398Y0098636D01*
X0057064Y0096302D01*
X0057064Y0096302D01*
X0055800Y0093251D01*
X0055800Y0089949D01*
X0057064Y0086898D01*
X0059398Y0084564D01*
X0062449Y0083300D01*
X0063686Y0083300D01*
X0065751Y0083300D01*
X0068802Y0084564D01*
X0069734Y0085496D02*
X0108374Y0085496D01*
X0109573Y0086694D02*
X0070932Y0086694D01*
X0071548Y0087893D02*
X0110771Y0087893D01*
X0111419Y0084297D02*
X0197600Y0084297D01*
X0197600Y0083099D02*
X0110220Y0083099D01*
X0109022Y0081900D02*
X0197600Y0081900D01*
X0197600Y0080702D02*
X0108100Y0080702D01*
X0108100Y0079503D02*
X0197600Y0079503D01*
X0197600Y0078305D02*
X0108100Y0078305D01*
X0108100Y0077106D02*
X0197600Y0077106D01*
X0197600Y0075908D02*
X0108100Y0075908D01*
X0108100Y0074709D02*
X0197600Y0074709D01*
X0194779Y0073511D02*
X0193579Y0073511D01*
X0193857Y0072312D02*
X0194500Y0072312D01*
X0194500Y0071114D02*
X0193857Y0071114D01*
X0193857Y0069915D02*
X0194500Y0069915D01*
X0194500Y0068717D02*
X0193857Y0068717D01*
X0193857Y0067518D02*
X0194500Y0067518D01*
X0194500Y0066320D02*
X0193857Y0066320D01*
X0193857Y0065121D02*
X0194500Y0065121D01*
X0199100Y0069159D02*
X0199100Y0113100D01*
X0210100Y0124100D01*
X0207716Y0123848D02*
X0205969Y0123848D01*
X0206528Y0122650D02*
X0204771Y0122650D01*
X0205330Y0121451D02*
X0203572Y0121451D01*
X0204131Y0120253D02*
X0202374Y0120253D01*
X0202933Y0119054D02*
X0201175Y0119054D01*
X0201734Y0117856D02*
X0199977Y0117856D01*
X0200536Y0116657D02*
X0198778Y0116657D01*
X0199337Y0115459D02*
X0197580Y0115459D01*
X0198139Y0114260D02*
X0196850Y0114260D01*
X0196850Y0113062D02*
X0197600Y0113062D01*
X0197600Y0111863D02*
X0196850Y0111863D01*
X0196850Y0110665D02*
X0197600Y0110665D01*
X0197600Y0109466D02*
X0196850Y0109466D01*
X0196850Y0108268D02*
X0197600Y0108268D01*
X0197600Y0107069D02*
X0196850Y0107069D01*
X0196850Y0105870D02*
X0197600Y0105870D01*
X0197600Y0104672D02*
X0196850Y0104672D01*
X0196850Y0103473D02*
X0197600Y0103473D01*
X0197600Y0102275D02*
X0196850Y0102275D01*
X0196850Y0101076D02*
X0197600Y0101076D01*
X0197600Y0099878D02*
X0196850Y0099878D01*
X0196850Y0098679D02*
X0197600Y0098679D01*
X0197600Y0097481D02*
X0196850Y0097481D01*
X0196850Y0096282D02*
X0197600Y0096282D01*
X0197600Y0095084D02*
X0196850Y0095084D01*
X0196850Y0093885D02*
X0197600Y0093885D01*
X0197600Y0092687D02*
X0196850Y0092687D01*
X0196850Y0091488D02*
X0197600Y0091488D01*
X0197600Y0090290D02*
X0196161Y0090290D01*
X0194963Y0089091D02*
X0197600Y0089091D01*
X0197600Y0087893D02*
X0193764Y0087893D01*
X0192566Y0086694D02*
X0197600Y0086694D01*
X0197600Y0085496D02*
X0191367Y0085496D01*
X0189729Y0088100D02*
X0152838Y0088100D01*
X0153481Y0088309D01*
X0154168Y0088659D01*
X0154792Y0089112D01*
X0155338Y0089658D01*
X0155791Y0090282D01*
X0156141Y0090969D01*
X0156379Y0091703D01*
X0156500Y0092464D01*
X0156500Y0092466D01*
X0151984Y0092466D01*
X0151984Y0093234D01*
X0151216Y0093234D01*
X0151216Y0097256D01*
X0184660Y0130700D01*
X0207328Y0130700D01*
X0206716Y0130088D01*
X0206716Y0128837D01*
X0194729Y0116850D01*
X0194729Y0116850D01*
X0193850Y0115971D01*
X0193850Y0092221D01*
X0189729Y0088100D01*
X0190720Y0089091D02*
X0163501Y0089091D01*
X0163979Y0089289D02*
X0165161Y0090471D01*
X0165800Y0092015D01*
X0165800Y0093685D01*
X0165161Y0095229D01*
X0163979Y0096411D01*
X0162435Y0097050D01*
X0160765Y0097050D01*
X0159221Y0096411D01*
X0158039Y0095229D01*
X0157400Y0093685D01*
X0157400Y0092015D01*
X0158039Y0090471D01*
X0159221Y0089289D01*
X0160765Y0088650D01*
X0162435Y0088650D01*
X0163979Y0089289D01*
X0164980Y0090290D02*
X0191919Y0090290D01*
X0193117Y0091488D02*
X0165582Y0091488D01*
X0165800Y0092687D02*
X0193850Y0092687D01*
X0193850Y0093885D02*
X0165717Y0093885D01*
X0165221Y0095084D02*
X0193850Y0095084D01*
X0193850Y0096282D02*
X0164107Y0096282D01*
X0159093Y0096282D02*
X0155097Y0096282D01*
X0155338Y0096042D02*
X0154792Y0096587D01*
X0154168Y0097041D01*
X0153481Y0097391D01*
X0152747Y0097629D01*
X0151986Y0097750D01*
X0151984Y0097750D01*
X0151984Y0093234D01*
X0156500Y0093234D01*
X0156500Y0093236D01*
X0156379Y0093997D01*
X0156141Y0094731D01*
X0155791Y0095418D01*
X0155338Y0096042D01*
X0155961Y0095084D02*
X0157979Y0095084D01*
X0157483Y0093885D02*
X0156397Y0093885D01*
X0157400Y0092687D02*
X0151984Y0092687D01*
X0151984Y0093885D02*
X0151216Y0093885D01*
X0151216Y0095084D02*
X0151984Y0095084D01*
X0151984Y0096282D02*
X0151216Y0096282D01*
X0151441Y0097481D02*
X0151984Y0097481D01*
X0153204Y0097481D02*
X0193850Y0097481D01*
X0193850Y0098679D02*
X0152639Y0098679D01*
X0153838Y0099878D02*
X0193850Y0099878D01*
X0193850Y0101076D02*
X0155036Y0101076D01*
X0156235Y0102275D02*
X0185678Y0102275D01*
X0186237Y0101716D02*
X0188213Y0101716D01*
X0189609Y0103112D01*
X0189609Y0104363D01*
X0189721Y0104475D01*
X0190600Y0105354D01*
X0190600Y0124728D01*
X0191484Y0125612D01*
X0191484Y0127588D01*
X0190088Y0128984D01*
X0188112Y0128984D01*
X0186716Y0127588D01*
X0186716Y0125612D01*
X0187600Y0124728D01*
X0187600Y0106596D01*
X0187488Y0106484D01*
X0186237Y0106484D01*
X0184841Y0105088D01*
X0184841Y0103112D01*
X0186237Y0101716D01*
X0184841Y0103473D02*
X0173095Y0103473D01*
X0172588Y0102966D02*
X0173984Y0104362D01*
X0173984Y0106338D01*
X0173100Y0107222D01*
X0173100Y0110978D01*
X0173984Y0111862D01*
X0173984Y0113838D01*
X0172588Y0115234D01*
X0170612Y0115234D01*
X0169216Y0113838D01*
X0169216Y0111862D01*
X0170100Y0110978D01*
X0170100Y0107222D01*
X0169216Y0106338D01*
X0169216Y0104362D01*
X0170612Y0102966D01*
X0172588Y0102966D01*
X0173984Y0104672D02*
X0184841Y0104672D01*
X0185624Y0105870D02*
X0173984Y0105870D01*
X0173253Y0107069D02*
X0187600Y0107069D01*
X0187600Y0108268D02*
X0173100Y0108268D01*
X0173100Y0109466D02*
X0187600Y0109466D01*
X0187600Y0110665D02*
X0173100Y0110665D01*
X0173984Y0111863D02*
X0187600Y0111863D01*
X0187600Y0113062D02*
X0173984Y0113062D01*
X0173562Y0114260D02*
X0187600Y0114260D01*
X0187600Y0115459D02*
X0169418Y0115459D01*
X0169638Y0114260D02*
X0168220Y0114260D01*
X0169216Y0113062D02*
X0167021Y0113062D01*
X0165823Y0111863D02*
X0169216Y0111863D01*
X0170100Y0110665D02*
X0164624Y0110665D01*
X0163426Y0109466D02*
X0170100Y0109466D01*
X0170100Y0108268D02*
X0162227Y0108268D01*
X0161029Y0107069D02*
X0169947Y0107069D01*
X0169216Y0105870D02*
X0159830Y0105870D01*
X0158632Y0104672D02*
X0169216Y0104672D01*
X0170105Y0103473D02*
X0157433Y0103473D01*
X0148475Y0103475D02*
X0174100Y0129100D01*
X0172667Y0131039D02*
X0170533Y0131039D01*
X0171484Y0129841D02*
X0171716Y0129841D01*
X0171521Y0128642D02*
X0171484Y0128642D01*
X0169100Y0129100D02*
X0135975Y0095975D01*
X0129725Y0095975D01*
X0131591Y0097481D02*
X0135360Y0097481D01*
X0136558Y0098679D02*
X0068698Y0098679D01*
X0068802Y0098636D02*
X0068802Y0098636D01*
X0069957Y0097481D02*
X0127859Y0097481D01*
X0127341Y0096282D02*
X0071144Y0096282D01*
X0071641Y0095084D02*
X0127341Y0095084D01*
X0128443Y0093885D02*
X0072137Y0093885D01*
X0072400Y0092687D02*
X0136100Y0092687D01*
X0136100Y0093885D02*
X0131007Y0093885D01*
X0136211Y0091488D02*
X0072400Y0091488D01*
X0072400Y0090290D02*
X0136707Y0090290D01*
X0137580Y0089091D02*
X0072045Y0089091D01*
X0060041Y0084297D02*
X0018000Y0084297D01*
X0018000Y0085496D02*
X0058466Y0085496D01*
X0059398Y0084564D02*
X0059398Y0084564D01*
X0057268Y0086694D02*
X0018000Y0086694D01*
X0018000Y0087893D02*
X0056652Y0087893D01*
X0057064Y0086898D02*
X0057064Y0086898D01*
X0056155Y0089091D02*
X0018000Y0089091D01*
X0018000Y0090290D02*
X0055800Y0090290D01*
X0055800Y0091488D02*
X0018000Y0091488D01*
X0018000Y0092687D02*
X0055800Y0092687D01*
X0056063Y0093885D02*
X0044556Y0093885D01*
X0044650Y0095084D02*
X0056559Y0095084D01*
X0057056Y0096282D02*
X0044650Y0096282D01*
X0044650Y0097481D02*
X0058243Y0097481D01*
X0059398Y0098636D02*
X0059398Y0098636D01*
X0059502Y0098679D02*
X0044650Y0098679D01*
X0044650Y0099878D02*
X0062396Y0099878D01*
X0065804Y0099878D02*
X0137757Y0099878D01*
X0138955Y0101076D02*
X0044650Y0101076D01*
X0044650Y0102275D02*
X0140154Y0102275D01*
X0141352Y0103473D02*
X0044650Y0103473D01*
X0044650Y0104672D02*
X0142551Y0104672D01*
X0143749Y0105870D02*
X0044650Y0105870D01*
X0044650Y0107069D02*
X0144948Y0107069D01*
X0146146Y0108268D02*
X0075389Y0108268D01*
X0075088Y0107966D02*
X0076484Y0109362D01*
X0076484Y0111338D01*
X0075600Y0112222D01*
X0075600Y0115978D01*
X0076484Y0116862D01*
X0076484Y0118838D01*
X0075088Y0120234D01*
X0073112Y0120234D01*
X0071716Y0118838D01*
X0071716Y0116862D01*
X0072600Y0115978D01*
X0072600Y0112222D01*
X0071716Y0111338D01*
X0071716Y0109362D01*
X0073112Y0107966D01*
X0075088Y0107966D01*
X0076484Y0109466D02*
X0112862Y0109466D01*
X0112828Y0109500D02*
X0113112Y0109216D01*
X0115088Y0109216D01*
X0116484Y0110612D01*
X0116484Y0112588D01*
X0115088Y0113984D01*
X0113112Y0113984D01*
X0112828Y0113700D01*
X0109315Y0113700D01*
X0097450Y0125000D01*
X0097450Y0134345D01*
X0096220Y0135575D01*
X0071433Y0160362D01*
X0071600Y0160765D01*
X0071600Y0162435D01*
X0070961Y0163979D01*
X0069779Y0165161D01*
X0068235Y0165800D01*
X0066565Y0165800D01*
X0065021Y0165161D01*
X0063839Y0163979D01*
X0063200Y0162435D01*
X0063200Y0160765D01*
X0063839Y0159221D01*
X0065021Y0158039D01*
X0066565Y0157400D01*
X0068235Y0157400D01*
X0068391Y0157464D01*
X0093250Y0132605D01*
X0093250Y0124940D01*
X0093229Y0124918D01*
X0093250Y0124075D01*
X0093250Y0123230D01*
X0093271Y0123209D01*
X0093272Y0123179D01*
X0093883Y0122597D01*
X0094480Y0122000D01*
X0094510Y0122000D01*
X0107008Y0110097D01*
X0107605Y0109500D01*
X0107635Y0109500D01*
X0107657Y0109479D01*
X0108500Y0109500D01*
X0112828Y0109500D01*
X0115338Y0109466D02*
X0147345Y0109466D01*
X0148543Y0110665D02*
X0116484Y0110665D01*
X0116484Y0111863D02*
X0149742Y0111863D01*
X0150940Y0113062D02*
X0116010Y0113062D01*
X0115612Y0114216D02*
X0114728Y0115100D01*
X0108479Y0115100D01*
X0107600Y0115979D01*
X0097600Y0125979D01*
X0097600Y0143489D01*
X0071594Y0170100D01*
X0069725Y0170100D01*
X0069361Y0169221D01*
X0068179Y0168039D01*
X0066635Y0167400D01*
X0064965Y0167400D01*
X0063421Y0168039D01*
X0062239Y0169221D01*
X0061600Y0170765D01*
X0061600Y0172435D01*
X0062239Y0173979D01*
X0063421Y0175161D01*
X0064965Y0175800D01*
X0066635Y0175800D01*
X0068179Y0175161D01*
X0069361Y0173979D01*
X0069725Y0173100D01*
X0071614Y0173100D01*
X0071621Y0173107D01*
X0072234Y0173100D01*
X0072846Y0173100D01*
X0072853Y0173093D01*
X0072864Y0173093D01*
X0073291Y0172655D01*
X0073725Y0172221D01*
X0073725Y0172211D01*
X0100166Y0145155D01*
X0100600Y0144721D01*
X0100600Y0144711D01*
X0100607Y0144704D01*
X0100600Y0144091D01*
X0100600Y0127221D01*
X0109721Y0118100D01*
X0114728Y0118100D01*
X0115612Y0118984D01*
X0117588Y0118984D01*
X0118472Y0118100D01*
X0143229Y0118100D01*
X0161466Y0136337D01*
X0161466Y0137588D01*
X0162862Y0138984D01*
X0164838Y0138984D01*
X0166234Y0137588D01*
X0166234Y0135612D01*
X0164838Y0134216D01*
X0163587Y0134216D01*
X0144471Y0115100D01*
X0118472Y0115100D01*
X0117588Y0114216D01*
X0115612Y0114216D01*
X0115568Y0114260D02*
X0108727Y0114260D01*
X0108120Y0115459D02*
X0107468Y0115459D01*
X0106922Y0116657D02*
X0106210Y0116657D01*
X0105723Y0117856D02*
X0104952Y0117856D01*
X0104525Y0119054D02*
X0103693Y0119054D01*
X0103326Y0120253D02*
X0102435Y0120253D01*
X0102128Y0121451D02*
X0101176Y0121451D01*
X0100929Y0122650D02*
X0099918Y0122650D01*
X0099731Y0123848D02*
X0098659Y0123848D01*
X0098532Y0125047D02*
X0097450Y0125047D01*
X0097450Y0126245D02*
X0097600Y0126245D01*
X0097600Y0127444D02*
X0097450Y0127444D01*
X0097450Y0128642D02*
X0097600Y0128642D01*
X0097600Y0129841D02*
X0097450Y0129841D01*
X0097450Y0131039D02*
X0097600Y0131039D01*
X0097600Y0132238D02*
X0097450Y0132238D01*
X0097450Y0133436D02*
X0097600Y0133436D01*
X0097600Y0134635D02*
X0097160Y0134635D01*
X0097600Y0135833D02*
X0095962Y0135833D01*
X0094763Y0137032D02*
X0097600Y0137032D01*
X0097600Y0138230D02*
X0093565Y0138230D01*
X0092366Y0139429D02*
X0097600Y0139429D01*
X0097600Y0140627D02*
X0091168Y0140627D01*
X0089969Y0141826D02*
X0097600Y0141826D01*
X0097600Y0143024D02*
X0088770Y0143024D01*
X0087572Y0144223D02*
X0096883Y0144223D01*
X0095711Y0145421D02*
X0086373Y0145421D01*
X0085175Y0146620D02*
X0094540Y0146620D01*
X0093369Y0147818D02*
X0083976Y0147818D01*
X0082778Y0149017D02*
X0092197Y0149017D01*
X0091026Y0150215D02*
X0081579Y0150215D01*
X0080381Y0151414D02*
X0089855Y0151414D01*
X0088684Y0152612D02*
X0079182Y0152612D01*
X0077984Y0153811D02*
X0087512Y0153811D01*
X0086341Y0155009D02*
X0076785Y0155009D01*
X0075587Y0156208D02*
X0085170Y0156208D01*
X0083999Y0157406D02*
X0074388Y0157406D01*
X0073190Y0158605D02*
X0082827Y0158605D01*
X0081656Y0159803D02*
X0071991Y0159803D01*
X0071600Y0161002D02*
X0080485Y0161002D01*
X0079313Y0162201D02*
X0071600Y0162201D01*
X0071201Y0163399D02*
X0078142Y0163399D01*
X0076971Y0164598D02*
X0070342Y0164598D01*
X0068245Y0165796D02*
X0075800Y0165796D01*
X0074628Y0166995D02*
X0018000Y0166995D01*
X0018000Y0168193D02*
X0063267Y0168193D01*
X0062169Y0169392D02*
X0018000Y0169392D01*
X0018000Y0170590D02*
X0061672Y0170590D01*
X0061600Y0171789D02*
X0018000Y0171789D01*
X0018000Y0172987D02*
X0061829Y0172987D01*
X0062446Y0174186D02*
X0018000Y0174186D01*
X0018000Y0175384D02*
X0063961Y0175384D01*
X0065021Y0178039D02*
X0066565Y0177400D01*
X0068235Y0177400D01*
X0068991Y0177713D01*
X0100725Y0145979D01*
X0100725Y0129104D01*
X0105466Y0124363D01*
X0105466Y0123112D01*
X0106862Y0121716D01*
X0108838Y0121716D01*
X0109722Y0122600D01*
X0132228Y0122600D01*
X0133112Y0121716D01*
X0135088Y0121716D01*
X0136484Y0123112D01*
X0136484Y0125088D01*
X0135088Y0126484D01*
X0133112Y0126484D01*
X0132228Y0125600D01*
X0109722Y0125600D01*
X0108838Y0126484D01*
X0107587Y0126484D01*
X0103725Y0130346D01*
X0103725Y0147221D01*
X0102846Y0148100D01*
X0071185Y0179762D01*
X0071600Y0180765D01*
X0071600Y0182435D01*
X0070961Y0183979D01*
X0069779Y0185161D01*
X0068899Y0185525D01*
X0069646Y0185525D01*
X0094646Y0160525D01*
X0294303Y0160525D01*
X0294987Y0159841D01*
X0296963Y0159841D01*
X0298359Y0161237D01*
X0298359Y0163213D01*
X0296963Y0164609D01*
X0294987Y0164609D01*
X0294303Y0163925D01*
X0096054Y0163925D01*
X0072050Y0187929D01*
X0071054Y0188925D01*
X0051679Y0188925D01*
X0035825Y0204779D01*
X0036200Y0205685D01*
X0036200Y0207515D01*
X0035500Y0209206D01*
X0034206Y0210500D01*
X0032515Y0211200D01*
X0030685Y0211200D01*
X0028994Y0210500D01*
X0027700Y0209206D01*
X0027000Y0207515D01*
X0027000Y0205685D01*
X0027700Y0203994D01*
X0028994Y0202700D01*
X0030685Y0202000D01*
X0032515Y0202000D01*
X0033421Y0202375D01*
X0050271Y0185525D01*
X0065901Y0185525D01*
X0065021Y0185161D01*
X0063839Y0183979D01*
X0063200Y0182435D01*
X0063200Y0180765D01*
X0063839Y0179221D01*
X0065021Y0178039D01*
X0065644Y0177781D02*
X0018000Y0177781D01*
X0018000Y0176583D02*
X0070121Y0176583D01*
X0071320Y0175384D02*
X0067639Y0175384D01*
X0069154Y0174186D02*
X0072518Y0174186D01*
X0072967Y0172987D02*
X0073717Y0172987D01*
X0074138Y0171789D02*
X0074915Y0171789D01*
X0075309Y0170590D02*
X0076114Y0170590D01*
X0076481Y0169392D02*
X0077312Y0169392D01*
X0077652Y0168193D02*
X0078511Y0168193D01*
X0078823Y0166995D02*
X0079709Y0166995D01*
X0079994Y0165796D02*
X0080908Y0165796D01*
X0081166Y0164598D02*
X0082106Y0164598D01*
X0082337Y0163399D02*
X0083305Y0163399D01*
X0083508Y0162201D02*
X0084503Y0162201D01*
X0084679Y0161002D02*
X0085702Y0161002D01*
X0085851Y0159803D02*
X0086900Y0159803D01*
X0087022Y0158605D02*
X0088099Y0158605D01*
X0088193Y0157406D02*
X0089297Y0157406D01*
X0089365Y0156208D02*
X0090496Y0156208D01*
X0090536Y0155009D02*
X0091694Y0155009D01*
X0091707Y0153811D02*
X0092893Y0153811D01*
X0092878Y0152612D02*
X0094091Y0152612D01*
X0094050Y0151414D02*
X0095290Y0151414D01*
X0095221Y0150215D02*
X0096488Y0150215D01*
X0096392Y0149017D02*
X0097687Y0149017D01*
X0097563Y0147818D02*
X0098885Y0147818D01*
X0098735Y0146620D02*
X0100084Y0146620D01*
X0099906Y0145421D02*
X0100725Y0145421D01*
X0100725Y0144223D02*
X0100601Y0144223D01*
X0100600Y0143024D02*
X0100725Y0143024D01*
X0100725Y0141826D02*
X0100600Y0141826D01*
X0100600Y0140627D02*
X0100725Y0140627D01*
X0100725Y0139429D02*
X0100600Y0139429D01*
X0100600Y0138230D02*
X0100725Y0138230D01*
X0100725Y0137032D02*
X0100600Y0137032D01*
X0100600Y0135833D02*
X0100725Y0135833D01*
X0100725Y0134635D02*
X0100600Y0134635D01*
X0100600Y0133436D02*
X0100725Y0133436D01*
X0100725Y0132238D02*
X0100600Y0132238D01*
X0100600Y0131039D02*
X0100725Y0131039D01*
X0100725Y0129841D02*
X0100600Y0129841D01*
X0100600Y0128642D02*
X0101186Y0128642D01*
X0100600Y0127444D02*
X0102385Y0127444D01*
X0101576Y0126245D02*
X0103583Y0126245D01*
X0102775Y0125047D02*
X0104782Y0125047D01*
X0105466Y0123848D02*
X0103973Y0123848D01*
X0105172Y0122650D02*
X0105929Y0122650D01*
X0106370Y0121451D02*
X0146580Y0121451D01*
X0147778Y0122650D02*
X0136021Y0122650D01*
X0136484Y0123848D02*
X0148977Y0123848D01*
X0150175Y0125047D02*
X0136484Y0125047D01*
X0135327Y0126245D02*
X0151374Y0126245D01*
X0152572Y0127444D02*
X0106628Y0127444D01*
X0105429Y0128642D02*
X0153771Y0128642D01*
X0154969Y0129841D02*
X0104231Y0129841D01*
X0103725Y0131039D02*
X0156168Y0131039D01*
X0157366Y0132238D02*
X0103725Y0132238D01*
X0103725Y0133436D02*
X0158565Y0133436D01*
X0159763Y0134635D02*
X0103725Y0134635D01*
X0103725Y0135833D02*
X0160962Y0135833D01*
X0161466Y0137032D02*
X0103725Y0137032D01*
X0103725Y0138230D02*
X0162108Y0138230D01*
X0163850Y0136600D02*
X0143850Y0116600D01*
X0116600Y0116600D01*
X0109100Y0116600D01*
X0099100Y0126600D01*
X0099100Y0144100D01*
X0072225Y0171600D01*
X0065800Y0171600D01*
X0068333Y0168193D02*
X0073457Y0168193D01*
X0072286Y0169392D02*
X0069431Y0169392D01*
X0066555Y0165796D02*
X0018000Y0165796D01*
X0018000Y0164598D02*
X0064458Y0164598D01*
X0063599Y0163399D02*
X0018000Y0163399D01*
X0018000Y0162201D02*
X0063200Y0162201D01*
X0063200Y0161002D02*
X0018000Y0161002D01*
X0018000Y0159803D02*
X0063598Y0159803D01*
X0064455Y0158605D02*
X0018000Y0158605D01*
X0018000Y0157406D02*
X0066549Y0157406D01*
X0066186Y0156500D02*
X0066184Y0156500D01*
X0066184Y0151984D01*
X0070700Y0151984D01*
X0070700Y0151986D01*
X0070579Y0152747D01*
X0070341Y0153481D01*
X0069991Y0154168D01*
X0069538Y0154792D01*
X0068992Y0155338D01*
X0068368Y0155791D01*
X0067681Y0156141D01*
X0066947Y0156379D01*
X0066186Y0156500D01*
X0066184Y0156208D02*
X0065416Y0156208D01*
X0065414Y0156500D02*
X0064653Y0156379D01*
X0063919Y0156141D01*
X0063232Y0155791D01*
X0062608Y0155338D01*
X0062062Y0154792D01*
X0061609Y0154168D01*
X0061259Y0153481D01*
X0061021Y0152747D01*
X0060900Y0151986D01*
X0060900Y0151984D01*
X0065416Y0151984D01*
X0065416Y0151216D01*
X0066184Y0151216D01*
X0066184Y0146700D01*
X0066186Y0146700D01*
X0066947Y0146821D01*
X0067681Y0147059D01*
X0068368Y0147409D01*
X0068992Y0147862D01*
X0069538Y0148408D01*
X0069991Y0149032D01*
X0070341Y0149719D01*
X0070579Y0150453D01*
X0070700Y0151214D01*
X0070700Y0151216D01*
X0066184Y0151216D01*
X0066184Y0151984D01*
X0065416Y0151984D01*
X0065416Y0156500D01*
X0065414Y0156500D01*
X0064125Y0156208D02*
X0018000Y0156208D01*
X0018000Y0155009D02*
X0062280Y0155009D01*
X0061427Y0153811D02*
X0018000Y0153811D01*
X0018000Y0152612D02*
X0060999Y0152612D01*
X0060900Y0151216D02*
X0060900Y0151214D01*
X0061021Y0150453D01*
X0061259Y0149719D01*
X0061609Y0149032D01*
X0062062Y0148408D01*
X0062608Y0147862D01*
X0063232Y0147409D01*
X0063919Y0147059D01*
X0064653Y0146821D01*
X0065414Y0146700D01*
X0065416Y0146700D01*
X0065416Y0151216D01*
X0060900Y0151216D01*
X0061098Y0150215D02*
X0018000Y0150215D01*
X0018000Y0149017D02*
X0061620Y0149017D01*
X0062669Y0147818D02*
X0018000Y0147818D01*
X0018000Y0146620D02*
X0079235Y0146620D01*
X0078037Y0147818D02*
X0068931Y0147818D01*
X0069980Y0149017D02*
X0076838Y0149017D01*
X0075640Y0150215D02*
X0070502Y0150215D01*
X0070601Y0152612D02*
X0073243Y0152612D01*
X0074441Y0151414D02*
X0066184Y0151414D01*
X0065416Y0151414D02*
X0018000Y0151414D01*
X0018000Y0145421D02*
X0080434Y0145421D01*
X0081632Y0144223D02*
X0018000Y0144223D01*
X0018000Y0143024D02*
X0082831Y0143024D01*
X0084029Y0141826D02*
X0018000Y0141826D01*
X0018000Y0140627D02*
X0085228Y0140627D01*
X0086426Y0139429D02*
X0018000Y0139429D01*
X0018000Y0138230D02*
X0087625Y0138230D01*
X0088823Y0137032D02*
X0018000Y0137032D01*
X0018000Y0135833D02*
X0090022Y0135833D01*
X0091220Y0134635D02*
X0044236Y0134635D01*
X0044650Y0133436D02*
X0092419Y0133436D01*
X0093250Y0132238D02*
X0044650Y0132238D01*
X0044650Y0131039D02*
X0093250Y0131039D01*
X0093250Y0129841D02*
X0044650Y0129841D01*
X0044650Y0128642D02*
X0093250Y0128642D01*
X0093250Y0127444D02*
X0044650Y0127444D01*
X0044650Y0126245D02*
X0093250Y0126245D01*
X0093250Y0125047D02*
X0044650Y0125047D01*
X0044650Y0123848D02*
X0093250Y0123848D01*
X0093828Y0122650D02*
X0044650Y0122650D01*
X0044650Y0121451D02*
X0095086Y0121451D01*
X0096345Y0120253D02*
X0044650Y0120253D01*
X0044650Y0119054D02*
X0071932Y0119054D01*
X0071716Y0117856D02*
X0044650Y0117856D01*
X0044650Y0116657D02*
X0071921Y0116657D01*
X0072600Y0115459D02*
X0044650Y0115459D01*
X0044650Y0114260D02*
X0072600Y0114260D01*
X0072600Y0113062D02*
X0044650Y0113062D01*
X0044650Y0111863D02*
X0072241Y0111863D01*
X0071716Y0110665D02*
X0044650Y0110665D01*
X0044650Y0109466D02*
X0071716Y0109466D01*
X0072811Y0108268D02*
X0044650Y0108268D01*
X0074100Y0110350D02*
X0074100Y0117850D01*
X0076484Y0117856D02*
X0098862Y0117856D01*
X0097603Y0119054D02*
X0076268Y0119054D01*
X0076279Y0116657D02*
X0100120Y0116657D01*
X0101378Y0115459D02*
X0075600Y0115459D01*
X0075600Y0114260D02*
X0102637Y0114260D01*
X0103895Y0113062D02*
X0075600Y0113062D01*
X0075959Y0111863D02*
X0105154Y0111863D01*
X0106412Y0110665D02*
X0076484Y0110665D01*
X0102225Y0129725D02*
X0107850Y0124100D01*
X0134100Y0124100D01*
X0132873Y0126245D02*
X0109077Y0126245D01*
X0107569Y0120253D02*
X0145381Y0120253D01*
X0144183Y0119054D02*
X0108767Y0119054D01*
X0117632Y0114260D02*
X0152139Y0114260D01*
X0153337Y0115459D02*
X0144830Y0115459D01*
X0146028Y0116657D02*
X0154536Y0116657D01*
X0155734Y0117856D02*
X0147227Y0117856D01*
X0148425Y0119054D02*
X0156933Y0119054D01*
X0158131Y0120253D02*
X0149624Y0120253D01*
X0150822Y0121451D02*
X0159330Y0121451D01*
X0160528Y0122650D02*
X0152021Y0122650D01*
X0153219Y0123848D02*
X0161727Y0123848D01*
X0162925Y0125047D02*
X0154418Y0125047D01*
X0155616Y0126245D02*
X0164124Y0126245D01*
X0165322Y0127444D02*
X0156815Y0127444D01*
X0158014Y0128642D02*
X0166521Y0128642D01*
X0166716Y0129841D02*
X0159212Y0129841D01*
X0160411Y0131039D02*
X0167667Y0131039D01*
X0162808Y0133436D02*
X0173705Y0133436D01*
X0172507Y0134635D02*
X0165257Y0134635D01*
X0166234Y0135833D02*
X0171308Y0135833D01*
X0170110Y0137032D02*
X0166234Y0137032D01*
X0165592Y0138230D02*
X0168911Y0138230D01*
X0167713Y0139429D02*
X0103725Y0139429D01*
X0103725Y0140627D02*
X0166514Y0140627D01*
X0165316Y0141826D02*
X0103725Y0141826D01*
X0103725Y0143024D02*
X0163715Y0143024D01*
X0163079Y0144223D02*
X0103725Y0144223D01*
X0103725Y0145421D02*
X0162916Y0145421D01*
X0163138Y0146620D02*
X0103725Y0146620D01*
X0103128Y0147818D02*
X0163858Y0147818D01*
X0165825Y0149017D02*
X0101929Y0149017D01*
X0100731Y0150215D02*
X0315114Y0150215D01*
X0313916Y0149017D02*
X0167375Y0149017D01*
X0169342Y0147818D02*
X0312717Y0147818D01*
X0311519Y0146620D02*
X0170138Y0146620D01*
X0171337Y0145421D02*
X0259550Y0145421D01*
X0259216Y0145088D02*
X0259216Y0143112D01*
X0260612Y0141716D01*
X0262588Y0141716D01*
X0263272Y0142400D01*
X0312107Y0142400D01*
X0356820Y0187113D01*
X0358066Y0186597D01*
X0360134Y0186597D01*
X0362046Y0187388D01*
X0363508Y0188851D01*
X0364300Y0190762D01*
X0364300Y0192831D01*
X0363508Y0194742D01*
X0362046Y0196205D01*
X0360134Y0196997D01*
X0358066Y0196997D01*
X0356154Y0196205D01*
X0354692Y0194742D01*
X0353900Y0192831D01*
X0353900Y0190762D01*
X0354416Y0189517D01*
X0310699Y0145800D01*
X0263272Y0145800D01*
X0262588Y0146484D01*
X0260612Y0146484D01*
X0259216Y0145088D01*
X0259216Y0144223D02*
X0172535Y0144223D01*
X0173734Y0143024D02*
X0259304Y0143024D01*
X0260502Y0141826D02*
X0174932Y0141826D01*
X0176131Y0140627D02*
X0380200Y0140627D01*
X0380200Y0139429D02*
X0177330Y0139429D01*
X0178528Y0138230D02*
X0351375Y0138230D01*
X0349426Y0137032D02*
X0303879Y0137032D01*
X0304870Y0135833D02*
X0348563Y0135833D01*
X0348100Y0134635D02*
X0305284Y0134635D01*
X0305284Y0133436D02*
X0348100Y0133436D01*
X0348368Y0132238D02*
X0304816Y0132238D01*
X0303750Y0131039D02*
X0348955Y0131039D01*
X0351600Y0132700D02*
X0351600Y0126600D01*
X0339100Y0114100D01*
X0261600Y0114100D01*
X0262735Y0111863D02*
X0348741Y0111863D01*
X0348800Y0112006D02*
X0348100Y0110315D01*
X0348100Y0108485D01*
X0348800Y0106794D01*
X0350094Y0105500D01*
X0351785Y0104800D01*
X0353615Y0104800D01*
X0355306Y0105500D01*
X0356600Y0106794D01*
X0357300Y0108485D01*
X0357300Y0110315D01*
X0356600Y0112006D01*
X0355306Y0113300D01*
X0353615Y0114000D01*
X0351785Y0114000D01*
X0350094Y0113300D01*
X0348800Y0112006D01*
X0348245Y0110665D02*
X0263407Y0110665D01*
X0261600Y0109100D02*
X0339100Y0109100D01*
X0351600Y0096600D01*
X0351600Y0084900D01*
X0352700Y0083800D01*
X0353100Y0090290D02*
X0380200Y0090290D01*
X0380200Y0091488D02*
X0353100Y0091488D01*
X0353100Y0092687D02*
X0380200Y0092687D01*
X0380200Y0093885D02*
X0353100Y0093885D01*
X0353100Y0095084D02*
X0380200Y0095084D01*
X0380200Y0096282D02*
X0353100Y0096282D01*
X0352840Y0097481D02*
X0380200Y0097481D01*
X0380200Y0098679D02*
X0351642Y0098679D01*
X0350443Y0099878D02*
X0380200Y0099878D01*
X0380200Y0101076D02*
X0349245Y0101076D01*
X0348046Y0102275D02*
X0380200Y0102275D01*
X0380200Y0103473D02*
X0346848Y0103473D01*
X0345649Y0104672D02*
X0380200Y0104672D01*
X0380200Y0105870D02*
X0373476Y0105870D01*
X0373106Y0105500D02*
X0374400Y0106794D01*
X0375100Y0108485D01*
X0375100Y0110315D01*
X0374400Y0112006D01*
X0373106Y0113300D01*
X0371415Y0114000D01*
X0369585Y0114000D01*
X0367894Y0113300D01*
X0366600Y0112006D01*
X0365900Y0110315D01*
X0365900Y0108485D01*
X0366600Y0106794D01*
X0367894Y0105500D01*
X0369585Y0104800D01*
X0371415Y0104800D01*
X0373106Y0105500D01*
X0374513Y0107069D02*
X0380200Y0107069D01*
X0380200Y0108268D02*
X0375010Y0108268D01*
X0375100Y0109466D02*
X0380200Y0109466D01*
X0380200Y0110665D02*
X0374955Y0110665D01*
X0374459Y0111863D02*
X0380200Y0111863D01*
X0380200Y0113062D02*
X0373344Y0113062D01*
X0367656Y0113062D02*
X0355544Y0113062D01*
X0356659Y0111863D02*
X0366541Y0111863D01*
X0366045Y0110665D02*
X0357155Y0110665D01*
X0357300Y0109466D02*
X0365900Y0109466D01*
X0365990Y0108268D02*
X0357210Y0108268D01*
X0356713Y0107069D02*
X0366487Y0107069D01*
X0367524Y0105870D02*
X0355676Y0105870D01*
X0349724Y0105870D02*
X0344451Y0105870D01*
X0343252Y0107069D02*
X0348687Y0107069D01*
X0348190Y0108268D02*
X0342054Y0108268D01*
X0340855Y0109466D02*
X0348100Y0109466D01*
X0349856Y0113062D02*
X0340183Y0113062D01*
X0341381Y0114260D02*
X0380200Y0114260D01*
X0380200Y0115459D02*
X0342580Y0115459D01*
X0343778Y0116657D02*
X0380200Y0116657D01*
X0380200Y0117856D02*
X0344977Y0117856D01*
X0346175Y0119054D02*
X0380200Y0119054D01*
X0380200Y0120253D02*
X0347374Y0120253D01*
X0348572Y0121451D02*
X0380200Y0121451D01*
X0380200Y0122650D02*
X0349771Y0122650D01*
X0350969Y0123848D02*
X0380200Y0123848D01*
X0380200Y0125047D02*
X0352168Y0125047D01*
X0353100Y0126245D02*
X0380200Y0126245D01*
X0380200Y0127444D02*
X0353100Y0127444D01*
X0353100Y0128642D02*
X0369223Y0128642D01*
X0369259Y0128630D02*
X0370083Y0128500D01*
X0370100Y0128500D01*
X0370100Y0133400D01*
X0365200Y0133400D01*
X0365200Y0133383D01*
X0365330Y0132559D01*
X0365588Y0131766D01*
X0365967Y0131022D01*
X0366457Y0130347D01*
X0367047Y0129757D01*
X0367722Y0129267D01*
X0368466Y0128888D01*
X0369259Y0128630D01*
X0370100Y0128642D02*
X0370900Y0128642D01*
X0370900Y0128500D02*
X0370917Y0128500D01*
X0371741Y0128630D01*
X0372534Y0128888D01*
X0373278Y0129267D01*
X0373953Y0129757D01*
X0374543Y0130347D01*
X0375033Y0131022D01*
X0375412Y0131766D01*
X0375669Y0132559D01*
X0375800Y0133383D01*
X0375800Y0133400D01*
X0370900Y0133400D01*
X0370900Y0134200D01*
X0370100Y0134200D01*
X0370100Y0139100D01*
X0370083Y0139100D01*
X0369259Y0138969D01*
X0368466Y0138712D01*
X0367722Y0138333D01*
X0367047Y0137843D01*
X0366457Y0137253D01*
X0365967Y0136578D01*
X0365588Y0135834D01*
X0365330Y0135041D01*
X0365200Y0134217D01*
X0365200Y0134200D01*
X0370100Y0134200D01*
X0370100Y0133400D01*
X0370900Y0133400D01*
X0370900Y0128500D01*
X0371777Y0128642D02*
X0380200Y0128642D01*
X0380200Y0129841D02*
X0374036Y0129841D01*
X0375042Y0131039D02*
X0380200Y0131039D01*
X0380200Y0132238D02*
X0375565Y0132238D01*
X0375800Y0134200D02*
X0375800Y0134217D01*
X0375669Y0135041D01*
X0375412Y0135834D01*
X0375033Y0136578D01*
X0374543Y0137253D01*
X0373953Y0137843D01*
X0373278Y0138333D01*
X0372534Y0138712D01*
X0371741Y0138969D01*
X0370917Y0139100D01*
X0370900Y0139100D01*
X0370900Y0134200D01*
X0375800Y0134200D01*
X0375734Y0134635D02*
X0380200Y0134635D01*
X0380200Y0135833D02*
X0375412Y0135833D01*
X0374703Y0137032D02*
X0380200Y0137032D01*
X0380200Y0138230D02*
X0373419Y0138230D01*
X0370900Y0138230D02*
X0370100Y0138230D01*
X0370100Y0137032D02*
X0370900Y0137032D01*
X0370900Y0135833D02*
X0370100Y0135833D01*
X0370100Y0134635D02*
X0370900Y0134635D01*
X0370900Y0133436D02*
X0380200Y0133436D01*
X0370900Y0132238D02*
X0370100Y0132238D01*
X0370100Y0133436D02*
X0357300Y0133436D01*
X0357300Y0134635D02*
X0365266Y0134635D01*
X0365588Y0135833D02*
X0356837Y0135833D01*
X0355974Y0137032D02*
X0366297Y0137032D01*
X0367581Y0138230D02*
X0354025Y0138230D01*
X0352700Y0133800D02*
X0351600Y0132700D01*
X0355162Y0129841D02*
X0366964Y0129841D01*
X0365958Y0131039D02*
X0356445Y0131039D01*
X0357032Y0132238D02*
X0365435Y0132238D01*
X0370100Y0131039D02*
X0370900Y0131039D01*
X0370900Y0129841D02*
X0370100Y0129841D01*
X0380200Y0141826D02*
X0262698Y0141826D01*
X0262588Y0151716D02*
X0263272Y0152400D01*
X0308328Y0152400D01*
X0356820Y0200892D01*
X0358066Y0200376D01*
X0360134Y0200376D01*
X0362046Y0201168D01*
X0363508Y0202631D01*
X0364300Y0204542D01*
X0364300Y0206611D01*
X0363508Y0208522D01*
X0362046Y0209985D01*
X0360134Y0210776D01*
X0358066Y0210776D01*
X0356154Y0209985D01*
X0354692Y0208522D01*
X0353900Y0206611D01*
X0353900Y0204542D01*
X0354416Y0203296D01*
X0306919Y0155800D01*
X0263272Y0155800D01*
X0262588Y0156484D01*
X0260612Y0156484D01*
X0259216Y0155088D01*
X0259216Y0153112D01*
X0260612Y0151716D01*
X0262588Y0151716D01*
X0259716Y0152612D02*
X0098334Y0152612D01*
X0099532Y0151414D02*
X0316313Y0151414D01*
X0317511Y0152612D02*
X0308540Y0152612D01*
X0309739Y0153811D02*
X0318710Y0153811D01*
X0319908Y0155009D02*
X0310937Y0155009D01*
X0312136Y0156208D02*
X0321107Y0156208D01*
X0322305Y0157406D02*
X0313334Y0157406D01*
X0314533Y0158605D02*
X0323504Y0158605D01*
X0324702Y0159803D02*
X0315731Y0159803D01*
X0316930Y0161002D02*
X0325901Y0161002D01*
X0327100Y0162201D02*
X0318128Y0162201D01*
X0319327Y0163399D02*
X0328298Y0163399D01*
X0329497Y0164598D02*
X0320525Y0164598D01*
X0321724Y0165796D02*
X0330695Y0165796D01*
X0331894Y0166995D02*
X0322922Y0166995D01*
X0324121Y0168193D02*
X0333092Y0168193D01*
X0334291Y0169392D02*
X0325319Y0169392D01*
X0326518Y0170590D02*
X0335489Y0170590D01*
X0336688Y0171789D02*
X0327716Y0171789D01*
X0328915Y0172987D02*
X0337886Y0172987D01*
X0339085Y0174186D02*
X0330113Y0174186D01*
X0331312Y0175384D02*
X0340283Y0175384D01*
X0341482Y0176583D02*
X0332510Y0176583D01*
X0333709Y0177781D02*
X0342680Y0177781D01*
X0343879Y0178980D02*
X0334907Y0178980D01*
X0336106Y0180178D02*
X0345077Y0180178D01*
X0346276Y0181377D02*
X0337304Y0181377D01*
X0338503Y0182575D02*
X0347474Y0182575D01*
X0348673Y0183774D02*
X0339702Y0183774D01*
X0340900Y0184972D02*
X0349871Y0184972D01*
X0351070Y0186171D02*
X0342099Y0186171D01*
X0343297Y0187369D02*
X0352268Y0187369D01*
X0353467Y0188568D02*
X0344496Y0188568D01*
X0345694Y0189766D02*
X0354313Y0189766D01*
X0353900Y0190965D02*
X0346893Y0190965D01*
X0348091Y0192163D02*
X0353900Y0192163D01*
X0354120Y0193362D02*
X0349290Y0193362D01*
X0350488Y0194560D02*
X0354616Y0194560D01*
X0355708Y0195759D02*
X0351687Y0195759D01*
X0352885Y0196957D02*
X0357970Y0196957D01*
X0360230Y0196957D02*
X0380200Y0196957D01*
X0380200Y0195759D02*
X0362492Y0195759D01*
X0363584Y0194560D02*
X0380200Y0194560D01*
X0380200Y0193362D02*
X0364080Y0193362D01*
X0364300Y0192163D02*
X0380200Y0192163D01*
X0380200Y0190965D02*
X0364300Y0190965D01*
X0363887Y0189766D02*
X0380200Y0189766D01*
X0380200Y0188568D02*
X0363225Y0188568D01*
X0361999Y0187369D02*
X0380200Y0187369D01*
X0380200Y0186171D02*
X0355878Y0186171D01*
X0354680Y0184972D02*
X0380200Y0184972D01*
X0380200Y0183774D02*
X0360471Y0183774D01*
X0360482Y0183772D02*
X0359564Y0183917D01*
X0359484Y0183917D01*
X0359484Y0178402D01*
X0358716Y0178402D01*
X0358716Y0183917D01*
X0358636Y0183917D01*
X0357718Y0183772D01*
X0356835Y0183485D01*
X0356008Y0183063D01*
X0355256Y0182518D01*
X0354600Y0181861D01*
X0354054Y0181110D01*
X0353632Y0180282D01*
X0353345Y0179399D01*
X0353200Y0178482D01*
X0353200Y0178402D01*
X0358716Y0178402D01*
X0358716Y0177633D01*
X0359484Y0177633D01*
X0359484Y0172117D01*
X0359564Y0172117D01*
X0360482Y0172263D01*
X0361365Y0172550D01*
X0362192Y0172971D01*
X0362944Y0173517D01*
X0363600Y0174174D01*
X0364146Y0174925D01*
X0364568Y0175752D01*
X0364855Y0176636D01*
X0365000Y0177553D01*
X0365000Y0177633D01*
X0359484Y0177633D01*
X0359484Y0178402D01*
X0365000Y0178402D01*
X0365000Y0178482D01*
X0364855Y0179399D01*
X0364568Y0180282D01*
X0364146Y0181110D01*
X0363600Y0181861D01*
X0362944Y0182518D01*
X0362192Y0183063D01*
X0361365Y0183485D01*
X0360482Y0183772D01*
X0359484Y0183774D02*
X0358716Y0183774D01*
X0357729Y0183774D02*
X0353481Y0183774D01*
X0352283Y0182575D02*
X0355336Y0182575D01*
X0354248Y0181377D02*
X0351084Y0181377D01*
X0349885Y0180178D02*
X0353598Y0180178D01*
X0353279Y0178980D02*
X0348687Y0178980D01*
X0347488Y0177781D02*
X0358716Y0177781D01*
X0358716Y0177633D02*
X0353200Y0177633D01*
X0353200Y0177553D01*
X0353345Y0176636D01*
X0353632Y0175752D01*
X0354054Y0174925D01*
X0354600Y0174174D01*
X0355256Y0173517D01*
X0356008Y0172971D01*
X0356835Y0172550D01*
X0357718Y0172263D01*
X0358636Y0172117D01*
X0358716Y0172117D01*
X0358716Y0177633D01*
X0359484Y0177781D02*
X0380200Y0177781D01*
X0380200Y0176583D02*
X0364837Y0176583D01*
X0364380Y0175384D02*
X0380200Y0175384D01*
X0380200Y0174186D02*
X0363609Y0174186D01*
X0362214Y0172987D02*
X0380200Y0172987D01*
X0380200Y0171789D02*
X0341496Y0171789D01*
X0342694Y0172987D02*
X0355986Y0172987D01*
X0354591Y0174186D02*
X0343893Y0174186D01*
X0345091Y0175384D02*
X0353820Y0175384D01*
X0353363Y0176583D02*
X0346290Y0176583D01*
X0340297Y0170590D02*
X0380200Y0170590D01*
X0380200Y0169392D02*
X0339099Y0169392D01*
X0337900Y0168193D02*
X0380200Y0168193D01*
X0380200Y0166995D02*
X0336702Y0166995D01*
X0335503Y0165796D02*
X0380200Y0165796D01*
X0380200Y0164598D02*
X0334305Y0164598D01*
X0333106Y0163399D02*
X0350334Y0163399D01*
X0350094Y0163300D02*
X0348800Y0162006D01*
X0348100Y0160315D01*
X0348100Y0158485D01*
X0348800Y0156794D01*
X0350094Y0155500D01*
X0351785Y0154800D01*
X0353615Y0154800D01*
X0355306Y0155500D01*
X0356600Y0156794D01*
X0357300Y0158485D01*
X0357300Y0160315D01*
X0356600Y0162006D01*
X0355306Y0163300D01*
X0353615Y0164000D01*
X0351785Y0164000D01*
X0350094Y0163300D01*
X0348995Y0162201D02*
X0331908Y0162201D01*
X0330709Y0161002D02*
X0348385Y0161002D01*
X0348100Y0159803D02*
X0329511Y0159803D01*
X0328312Y0158605D02*
X0348100Y0158605D01*
X0348547Y0157406D02*
X0327114Y0157406D01*
X0325915Y0156208D02*
X0349387Y0156208D01*
X0351279Y0155009D02*
X0324717Y0155009D01*
X0323518Y0153811D02*
X0380200Y0153811D01*
X0380200Y0155009D02*
X0371921Y0155009D01*
X0371415Y0154800D02*
X0373106Y0155500D01*
X0374400Y0156794D01*
X0375100Y0158485D01*
X0375100Y0160315D01*
X0374400Y0162006D01*
X0373106Y0163300D01*
X0371415Y0164000D01*
X0369585Y0164000D01*
X0367894Y0163300D01*
X0366600Y0162006D01*
X0365900Y0160315D01*
X0365900Y0158485D01*
X0366600Y0156794D01*
X0367894Y0155500D01*
X0369585Y0154800D01*
X0371415Y0154800D01*
X0369079Y0155009D02*
X0354121Y0155009D01*
X0356013Y0156208D02*
X0367187Y0156208D01*
X0366347Y0157406D02*
X0356853Y0157406D01*
X0357300Y0158605D02*
X0365900Y0158605D01*
X0365900Y0159803D02*
X0357300Y0159803D01*
X0357015Y0161002D02*
X0366185Y0161002D01*
X0366795Y0162201D02*
X0356405Y0162201D01*
X0355066Y0163399D02*
X0368134Y0163399D01*
X0372866Y0163399D02*
X0380200Y0163399D01*
X0380200Y0162201D02*
X0374205Y0162201D01*
X0374815Y0161002D02*
X0380200Y0161002D01*
X0380200Y0159803D02*
X0375100Y0159803D01*
X0375100Y0158605D02*
X0380200Y0158605D01*
X0380200Y0157406D02*
X0374653Y0157406D01*
X0373813Y0156208D02*
X0380200Y0156208D01*
X0380200Y0152612D02*
X0322320Y0152612D01*
X0321121Y0151414D02*
X0380200Y0151414D01*
X0380200Y0150215D02*
X0319923Y0150215D01*
X0318724Y0149017D02*
X0380200Y0149017D01*
X0380200Y0147818D02*
X0317526Y0147818D01*
X0316327Y0146620D02*
X0380200Y0146620D01*
X0380200Y0145421D02*
X0315129Y0145421D01*
X0313930Y0144223D02*
X0380200Y0144223D01*
X0380200Y0143024D02*
X0312732Y0143024D01*
X0307327Y0156208D02*
X0262864Y0156208D01*
X0260336Y0156208D02*
X0094738Y0156208D01*
X0093540Y0157406D02*
X0308526Y0157406D01*
X0309724Y0158605D02*
X0092341Y0158605D01*
X0091143Y0159803D02*
X0310923Y0159803D01*
X0312121Y0161002D02*
X0298124Y0161002D01*
X0298359Y0162201D02*
X0313320Y0162201D01*
X0314518Y0163399D02*
X0298173Y0163399D01*
X0296974Y0164598D02*
X0315717Y0164598D01*
X0316916Y0165796D02*
X0094183Y0165796D01*
X0092985Y0166995D02*
X0318114Y0166995D01*
X0319313Y0168193D02*
X0091786Y0168193D01*
X0090588Y0169392D02*
X0320511Y0169392D01*
X0321710Y0170590D02*
X0089389Y0170590D01*
X0088191Y0171789D02*
X0322908Y0171789D01*
X0324107Y0172987D02*
X0086992Y0172987D01*
X0085794Y0174186D02*
X0325305Y0174186D01*
X0326504Y0175384D02*
X0084595Y0175384D01*
X0083396Y0176583D02*
X0327702Y0176583D01*
X0328901Y0177781D02*
X0082198Y0177781D01*
X0080999Y0178980D02*
X0330099Y0178980D01*
X0331298Y0180178D02*
X0079801Y0180178D01*
X0078602Y0181377D02*
X0332496Y0181377D01*
X0333695Y0182575D02*
X0077404Y0182575D01*
X0076205Y0183774D02*
X0334893Y0183774D01*
X0336092Y0184972D02*
X0075007Y0184972D01*
X0073808Y0186171D02*
X0337290Y0186171D01*
X0338489Y0187369D02*
X0072610Y0187369D01*
X0071411Y0188568D02*
X0339687Y0188568D01*
X0340886Y0189766D02*
X0050838Y0189766D01*
X0049639Y0190965D02*
X0342084Y0190965D01*
X0343283Y0192163D02*
X0048441Y0192163D01*
X0047242Y0193362D02*
X0344481Y0193362D01*
X0345680Y0194560D02*
X0046044Y0194560D01*
X0044845Y0195759D02*
X0095318Y0195759D01*
X0096331Y0195339D02*
X0094016Y0196298D01*
X0092243Y0198071D01*
X0091284Y0200386D01*
X0091284Y0202893D01*
X0092243Y0205208D01*
X0094016Y0206980D01*
X0096331Y0207939D01*
X0098837Y0207939D01*
X0101153Y0206980D01*
X0102925Y0205208D01*
X0103884Y0202893D01*
X0103884Y0200386D01*
X0102925Y0198071D01*
X0101153Y0196298D01*
X0098837Y0195339D01*
X0096331Y0195339D01*
X0093357Y0196957D02*
X0043647Y0196957D01*
X0042448Y0198156D02*
X0092208Y0198156D01*
X0091712Y0199354D02*
X0041250Y0199354D01*
X0040051Y0200553D02*
X0091284Y0200553D01*
X0091284Y0201751D02*
X0038853Y0201751D01*
X0037654Y0202950D02*
X0091308Y0202950D01*
X0091804Y0204148D02*
X0072792Y0204148D01*
X0072529Y0204039D02*
X0075322Y0205196D01*
X0077460Y0207334D01*
X0078617Y0210128D01*
X0078617Y0213151D01*
X0077460Y0215944D01*
X0075322Y0218082D01*
X0072529Y0219239D01*
X0069506Y0219239D01*
X0066712Y0218082D01*
X0064574Y0215944D01*
X0063417Y0213151D01*
X0063417Y0210128D01*
X0064574Y0207334D01*
X0066712Y0205196D01*
X0069506Y0204039D01*
X0072529Y0204039D01*
X0075473Y0205347D02*
X0092382Y0205347D01*
X0093581Y0206545D02*
X0076671Y0206545D01*
X0077630Y0207744D02*
X0095859Y0207744D01*
X0099309Y0207744D02*
X0299081Y0207744D01*
X0299363Y0207861D02*
X0297047Y0206902D01*
X0295275Y0205129D01*
X0294316Y0202814D01*
X0294316Y0200307D01*
X0295275Y0197992D01*
X0297047Y0196220D01*
X0299363Y0195261D01*
X0301869Y0195261D01*
X0304184Y0196220D01*
X0305957Y0197992D01*
X0306916Y0200307D01*
X0306916Y0202814D01*
X0305957Y0205129D01*
X0304184Y0206902D01*
X0301869Y0207861D01*
X0299363Y0207861D01*
X0302151Y0207744D02*
X0321303Y0207744D01*
X0321350Y0207663D02*
X0321909Y0206935D01*
X0322557Y0206286D01*
X0323285Y0205728D01*
X0324080Y0205269D01*
X0324928Y0204918D01*
X0325814Y0204680D01*
X0326583Y0204579D01*
X0326583Y0210961D01*
X0327783Y0210961D01*
X0327783Y0212161D01*
X0334164Y0212161D01*
X0334063Y0212929D01*
X0333825Y0213816D01*
X0333474Y0214663D01*
X0333015Y0215458D01*
X0332457Y0216186D01*
X0331808Y0216835D01*
X0331080Y0217393D01*
X0330285Y0217852D01*
X0329438Y0218203D01*
X0328551Y0218441D01*
X0327783Y0218542D01*
X0327783Y0212161D01*
X0326583Y0212161D01*
X0326583Y0218542D01*
X0325814Y0218441D01*
X0324928Y0218203D01*
X0324080Y0217852D01*
X0323285Y0217393D01*
X0322557Y0216835D01*
X0321909Y0216186D01*
X0321350Y0215458D01*
X0320891Y0214663D01*
X0320540Y0213816D01*
X0320302Y0212929D01*
X0320201Y0212161D01*
X0326583Y0212161D01*
X0326583Y0210961D01*
X0320201Y0210961D01*
X0320302Y0210192D01*
X0320540Y0209306D01*
X0320891Y0208458D01*
X0321350Y0207663D01*
X0320690Y0208942D02*
X0078126Y0208942D01*
X0078617Y0210141D02*
X0320316Y0210141D01*
X0320251Y0212538D02*
X0078617Y0212538D01*
X0078617Y0211339D02*
X0326583Y0211339D01*
X0326583Y0210141D02*
X0327783Y0210141D01*
X0327783Y0210961D02*
X0327783Y0204579D01*
X0328551Y0204680D01*
X0329438Y0204918D01*
X0330285Y0205269D01*
X0331080Y0205728D01*
X0331808Y0206286D01*
X0332457Y0206935D01*
X0333015Y0207663D01*
X0333474Y0208458D01*
X0333825Y0209306D01*
X0334063Y0210192D01*
X0334164Y0210961D01*
X0327783Y0210961D01*
X0327783Y0211339D02*
X0380200Y0211339D01*
X0380200Y0210141D02*
X0361668Y0210141D01*
X0363088Y0208942D02*
X0380200Y0208942D01*
X0380200Y0207744D02*
X0363831Y0207744D01*
X0364300Y0206545D02*
X0380200Y0206545D01*
X0380200Y0205347D02*
X0364300Y0205347D01*
X0364137Y0204148D02*
X0380200Y0204148D01*
X0380200Y0202950D02*
X0363641Y0202950D01*
X0362629Y0201751D02*
X0380200Y0201751D01*
X0380200Y0200553D02*
X0360560Y0200553D01*
X0357640Y0200553D02*
X0356481Y0200553D01*
X0355282Y0199354D02*
X0380200Y0199354D01*
X0380200Y0198156D02*
X0354084Y0198156D01*
X0351672Y0200553D02*
X0306916Y0200553D01*
X0306916Y0201751D02*
X0352871Y0201751D01*
X0354069Y0202950D02*
X0306859Y0202950D01*
X0306363Y0204148D02*
X0354063Y0204148D01*
X0353900Y0205347D02*
X0330420Y0205347D01*
X0332067Y0206545D02*
X0353900Y0206545D01*
X0354369Y0207744D02*
X0333062Y0207744D01*
X0333675Y0208942D02*
X0355112Y0208942D01*
X0356532Y0210141D02*
X0334049Y0210141D01*
X0334114Y0212538D02*
X0380200Y0212538D01*
X0380200Y0213737D02*
X0362519Y0213737D01*
X0362782Y0213845D02*
X0364610Y0215674D01*
X0365600Y0218063D01*
X0365600Y0220649D01*
X0364610Y0223038D01*
X0362782Y0224866D01*
X0360393Y0225856D01*
X0357807Y0225856D01*
X0355418Y0224866D01*
X0353590Y0223038D01*
X0352600Y0220649D01*
X0352600Y0218063D01*
X0353590Y0215674D01*
X0355418Y0213845D01*
X0357807Y0212856D01*
X0360393Y0212856D01*
X0362782Y0213845D01*
X0363871Y0214935D02*
X0380200Y0214935D01*
X0380200Y0216134D02*
X0364801Y0216134D01*
X0365297Y0217332D02*
X0380200Y0217332D01*
X0380200Y0218531D02*
X0365600Y0218531D01*
X0365600Y0219729D02*
X0380200Y0219729D01*
X0380200Y0220928D02*
X0365485Y0220928D01*
X0364988Y0222126D02*
X0380200Y0222126D01*
X0380200Y0223325D02*
X0364324Y0223325D01*
X0363125Y0224523D02*
X0380200Y0224523D01*
X0380200Y0225722D02*
X0360717Y0225722D01*
X0357483Y0225722D02*
X0305364Y0225722D01*
X0305957Y0225129D02*
X0304184Y0226902D01*
X0301869Y0227861D01*
X0299363Y0227861D01*
X0297047Y0226902D01*
X0295275Y0225129D01*
X0294316Y0222814D01*
X0294316Y0220307D01*
X0295275Y0217992D01*
X0297047Y0216220D01*
X0299363Y0215261D01*
X0301869Y0215261D01*
X0304184Y0216220D01*
X0305957Y0217992D01*
X0306916Y0220307D01*
X0306916Y0222814D01*
X0305957Y0225129D01*
X0306208Y0224523D02*
X0355075Y0224523D01*
X0353876Y0223325D02*
X0306704Y0223325D01*
X0306916Y0222126D02*
X0353212Y0222126D01*
X0352715Y0220928D02*
X0306916Y0220928D01*
X0306676Y0219729D02*
X0352600Y0219729D01*
X0352600Y0218531D02*
X0327870Y0218531D01*
X0327783Y0218531D02*
X0326583Y0218531D01*
X0326495Y0218531D02*
X0306180Y0218531D01*
X0305297Y0217332D02*
X0323205Y0217332D01*
X0321868Y0216134D02*
X0303976Y0216134D01*
X0297255Y0216134D02*
X0100755Y0216134D01*
X0101153Y0216298D02*
X0102925Y0218071D01*
X0103884Y0220386D01*
X0103884Y0222893D01*
X0102925Y0225208D01*
X0101153Y0226980D01*
X0098837Y0227939D01*
X0096331Y0227939D01*
X0094016Y0226980D01*
X0092243Y0225208D01*
X0091284Y0222893D01*
X0091284Y0220386D01*
X0092243Y0218071D01*
X0094016Y0216298D01*
X0096331Y0215339D01*
X0098837Y0215339D01*
X0101153Y0216298D01*
X0102186Y0217332D02*
X0295935Y0217332D01*
X0295052Y0218531D02*
X0103116Y0218531D01*
X0103612Y0219729D02*
X0294555Y0219729D01*
X0294316Y0220928D02*
X0103884Y0220928D01*
X0103884Y0222126D02*
X0294316Y0222126D01*
X0294527Y0223325D02*
X0103705Y0223325D01*
X0103209Y0224523D02*
X0295024Y0224523D01*
X0295867Y0225722D02*
X0102412Y0225722D01*
X0101213Y0226920D02*
X0297092Y0226920D01*
X0304139Y0226920D02*
X0380200Y0226920D01*
X0380200Y0228119D02*
X0018000Y0228119D01*
X0018000Y0229317D02*
X0380200Y0229317D01*
X0380200Y0230516D02*
X0018000Y0230516D01*
X0018000Y0231714D02*
X0380200Y0231714D01*
X0380200Y0232913D02*
X0018000Y0232913D01*
X0018000Y0234111D02*
X0027991Y0234111D01*
X0026898Y0234564D02*
X0029949Y0233300D01*
X0031186Y0233300D01*
X0033251Y0233300D01*
X0036302Y0234564D01*
X0038636Y0236898D01*
X0038636Y0236898D01*
X0039900Y0239949D01*
X0039900Y0243251D01*
X0038636Y0246302D01*
X0036302Y0248636D01*
X0033251Y0249900D01*
X0029949Y0249900D01*
X0026898Y0248636D01*
X0024564Y0246302D01*
X0024564Y0246302D01*
X0023300Y0243251D01*
X0023300Y0239949D01*
X0024564Y0236898D01*
X0026898Y0234564D01*
X0026898Y0234564D01*
X0026152Y0235310D02*
X0018000Y0235310D01*
X0018000Y0236508D02*
X0024954Y0236508D01*
X0024564Y0236898D02*
X0024564Y0236898D01*
X0024229Y0237707D02*
X0018000Y0237707D01*
X0018000Y0238905D02*
X0023732Y0238905D01*
X0023300Y0240104D02*
X0018000Y0240104D01*
X0018282Y0241302D02*
X0023300Y0241302D01*
X0023300Y0242501D02*
X0019481Y0242501D01*
X0020679Y0243699D02*
X0023486Y0243699D01*
X0023982Y0244898D02*
X0021878Y0244898D01*
X0023076Y0246096D02*
X0024479Y0246096D01*
X0024275Y0247295D02*
X0025557Y0247295D01*
X0025473Y0248493D02*
X0026755Y0248493D01*
X0026898Y0248636D02*
X0026898Y0248636D01*
X0026672Y0249692D02*
X0029447Y0249692D01*
X0027870Y0250890D02*
X0370330Y0250890D01*
X0371528Y0249692D02*
X0368753Y0249692D01*
X0368251Y0249900D02*
X0364949Y0249900D01*
X0361898Y0248636D01*
X0359564Y0246302D01*
X0359564Y0246302D01*
X0358300Y0243251D01*
X0358300Y0239949D01*
X0359564Y0236898D01*
X0361898Y0234564D01*
X0364949Y0233300D01*
X0367014Y0233300D01*
X0368251Y0233300D01*
X0371302Y0234564D01*
X0373636Y0236898D01*
X0373636Y0236898D01*
X0374900Y0239949D01*
X0374900Y0243251D01*
X0373636Y0246302D01*
X0371302Y0248636D01*
X0368251Y0249900D01*
X0369131Y0252089D02*
X0029069Y0252089D01*
X0030267Y0253287D02*
X0367933Y0253287D01*
X0366734Y0254486D02*
X0031466Y0254486D01*
X0033753Y0249692D02*
X0061947Y0249692D01*
X0062449Y0249900D02*
X0059398Y0248636D01*
X0057064Y0246302D01*
X0057064Y0246302D01*
X0055800Y0243251D01*
X0055800Y0239949D01*
X0057064Y0236898D01*
X0059398Y0234564D01*
X0062449Y0233300D01*
X0063686Y0233300D01*
X0065751Y0233300D01*
X0068802Y0234564D01*
X0071136Y0236898D01*
X0071136Y0236898D01*
X0072400Y0239949D01*
X0072400Y0243251D01*
X0071136Y0246302D01*
X0068802Y0248636D01*
X0065751Y0249900D01*
X0062449Y0249900D01*
X0059398Y0248636D02*
X0059398Y0248636D01*
X0059255Y0248493D02*
X0036445Y0248493D01*
X0036302Y0248636D02*
X0036302Y0248636D01*
X0037643Y0247295D02*
X0058057Y0247295D01*
X0056979Y0246096D02*
X0038721Y0246096D01*
X0038636Y0246302D02*
X0038636Y0246302D01*
X0039218Y0244898D02*
X0056482Y0244898D01*
X0055986Y0243699D02*
X0039714Y0243699D01*
X0039900Y0242501D02*
X0055800Y0242501D01*
X0055800Y0241302D02*
X0039900Y0241302D01*
X0039900Y0240104D02*
X0055800Y0240104D01*
X0056232Y0238905D02*
X0039468Y0238905D01*
X0038971Y0237707D02*
X0056729Y0237707D01*
X0057064Y0236898D02*
X0057064Y0236898D01*
X0057454Y0236508D02*
X0038246Y0236508D01*
X0037048Y0235310D02*
X0058652Y0235310D01*
X0059398Y0234564D02*
X0059398Y0234564D01*
X0060491Y0234111D02*
X0035209Y0234111D01*
X0036302Y0234564D02*
X0036302Y0234564D01*
X0032515Y0221900D02*
X0030685Y0221900D01*
X0028994Y0221200D01*
X0027700Y0219906D01*
X0027000Y0218215D01*
X0027000Y0216385D01*
X0027700Y0214694D01*
X0028994Y0213400D01*
X0030685Y0212700D01*
X0032515Y0212700D01*
X0034206Y0213400D01*
X0035500Y0214694D01*
X0036200Y0216385D01*
X0036200Y0218215D01*
X0035500Y0219906D01*
X0034206Y0221200D01*
X0032515Y0221900D01*
X0034478Y0220928D02*
X0091284Y0220928D01*
X0091284Y0222126D02*
X0018000Y0222126D01*
X0018000Y0220928D02*
X0028722Y0220928D01*
X0027627Y0219729D02*
X0018000Y0219729D01*
X0018000Y0218531D02*
X0027131Y0218531D01*
X0027000Y0217332D02*
X0018000Y0217332D01*
X0018000Y0216134D02*
X0027104Y0216134D01*
X0027601Y0214935D02*
X0018000Y0214935D01*
X0018000Y0213737D02*
X0028658Y0213737D01*
X0028636Y0210141D02*
X0018000Y0210141D01*
X0018000Y0211339D02*
X0063417Y0211339D01*
X0063417Y0210141D02*
X0034564Y0210141D01*
X0035609Y0208942D02*
X0063908Y0208942D01*
X0064405Y0207744D02*
X0036105Y0207744D01*
X0036200Y0206545D02*
X0065363Y0206545D01*
X0066562Y0205347D02*
X0036060Y0205347D01*
X0036456Y0204148D02*
X0069242Y0204148D01*
X0063417Y0212538D02*
X0018000Y0212538D01*
X0018000Y0208942D02*
X0027591Y0208942D01*
X0027095Y0207744D02*
X0018000Y0207744D01*
X0018000Y0206545D02*
X0027000Y0206545D01*
X0027140Y0205347D02*
X0018000Y0205347D01*
X0018000Y0204148D02*
X0027636Y0204148D01*
X0028745Y0202950D02*
X0018000Y0202950D01*
X0018000Y0201751D02*
X0034044Y0201751D01*
X0033634Y0200812D02*
X0032841Y0201069D01*
X0032017Y0201200D01*
X0032000Y0201200D01*
X0032000Y0196300D01*
X0036900Y0196300D01*
X0036900Y0196317D01*
X0036769Y0197141D01*
X0036512Y0197934D01*
X0036133Y0198678D01*
X0035643Y0199353D01*
X0035053Y0199943D01*
X0034378Y0200433D01*
X0033634Y0200812D01*
X0034142Y0200553D02*
X0035243Y0200553D01*
X0035641Y0199354D02*
X0036441Y0199354D01*
X0036399Y0198156D02*
X0037640Y0198156D01*
X0036799Y0196957D02*
X0038838Y0196957D01*
X0040037Y0195759D02*
X0032000Y0195759D01*
X0032000Y0195500D02*
X0032000Y0196300D01*
X0031200Y0196300D01*
X0031200Y0201200D01*
X0031183Y0201200D01*
X0030359Y0201069D01*
X0029566Y0200812D01*
X0028822Y0200433D01*
X0028147Y0199943D01*
X0027557Y0199353D01*
X0027067Y0198678D01*
X0026688Y0197934D01*
X0026430Y0197141D01*
X0026300Y0196317D01*
X0026300Y0196300D01*
X0031200Y0196300D01*
X0031200Y0195500D01*
X0032000Y0195500D01*
X0036900Y0195500D01*
X0036900Y0195483D01*
X0036769Y0194659D01*
X0036512Y0193866D01*
X0036133Y0193122D01*
X0035643Y0192447D01*
X0035053Y0191857D01*
X0034378Y0191367D01*
X0033634Y0190988D01*
X0032841Y0190730D01*
X0032017Y0190600D01*
X0032000Y0190600D01*
X0032000Y0195500D01*
X0031200Y0195500D02*
X0031200Y0190600D01*
X0031183Y0190600D01*
X0030359Y0190730D01*
X0029566Y0190988D01*
X0028822Y0191367D01*
X0028147Y0191857D01*
X0027557Y0192447D01*
X0027067Y0193122D01*
X0026688Y0193866D01*
X0026430Y0194659D01*
X0026300Y0195483D01*
X0026300Y0195500D01*
X0031200Y0195500D01*
X0031200Y0195759D02*
X0018000Y0195759D01*
X0018000Y0196957D02*
X0026401Y0196957D01*
X0026801Y0198156D02*
X0018000Y0198156D01*
X0018000Y0199354D02*
X0027559Y0199354D01*
X0029058Y0200553D02*
X0018000Y0200553D01*
X0018000Y0194560D02*
X0026463Y0194560D01*
X0026945Y0193362D02*
X0018000Y0193362D01*
X0018000Y0192163D02*
X0027841Y0192163D01*
X0029638Y0190965D02*
X0018000Y0190965D01*
X0018000Y0189766D02*
X0046030Y0189766D01*
X0047228Y0188568D02*
X0018000Y0188568D01*
X0018000Y0187369D02*
X0048427Y0187369D01*
X0049625Y0186171D02*
X0018000Y0186171D01*
X0018000Y0184972D02*
X0064833Y0184972D01*
X0063754Y0183774D02*
X0018000Y0183774D01*
X0018000Y0182575D02*
X0063258Y0182575D01*
X0063200Y0181377D02*
X0018000Y0181377D01*
X0018000Y0180178D02*
X0063443Y0180178D01*
X0064081Y0178980D02*
X0018000Y0178980D01*
X0031200Y0190965D02*
X0032000Y0190965D01*
X0032000Y0192163D02*
X0031200Y0192163D01*
X0031200Y0193362D02*
X0032000Y0193362D01*
X0032000Y0194560D02*
X0031200Y0194560D01*
X0031200Y0196957D02*
X0032000Y0196957D01*
X0032000Y0198156D02*
X0031200Y0198156D01*
X0031200Y0199354D02*
X0032000Y0199354D01*
X0032000Y0200553D02*
X0031200Y0200553D01*
X0036737Y0194560D02*
X0041236Y0194560D01*
X0042434Y0193362D02*
X0036255Y0193362D01*
X0035359Y0192163D02*
X0043633Y0192163D01*
X0044831Y0190965D02*
X0033562Y0190965D01*
X0067225Y0181600D02*
X0102225Y0146600D01*
X0102225Y0129725D01*
X0097135Y0153811D02*
X0259216Y0153811D01*
X0259216Y0155009D02*
X0095937Y0155009D01*
X0094169Y0161002D02*
X0089944Y0161002D01*
X0088746Y0162201D02*
X0092970Y0162201D01*
X0091772Y0163399D02*
X0087547Y0163399D01*
X0086349Y0164598D02*
X0090573Y0164598D01*
X0089375Y0165796D02*
X0085150Y0165796D01*
X0083952Y0166995D02*
X0088176Y0166995D01*
X0086978Y0168193D02*
X0082753Y0168193D01*
X0081555Y0169392D02*
X0085779Y0169392D01*
X0084581Y0170590D02*
X0080356Y0170590D01*
X0079158Y0171789D02*
X0083382Y0171789D01*
X0082184Y0172987D02*
X0077959Y0172987D01*
X0076761Y0174186D02*
X0080985Y0174186D01*
X0079787Y0175384D02*
X0075562Y0175384D01*
X0074364Y0176583D02*
X0078588Y0176583D01*
X0077390Y0177781D02*
X0073165Y0177781D01*
X0071967Y0178980D02*
X0076191Y0178980D01*
X0074993Y0180178D02*
X0071357Y0180178D01*
X0071600Y0181377D02*
X0073794Y0181377D01*
X0072596Y0182575D02*
X0071542Y0182575D01*
X0071397Y0183774D02*
X0071046Y0183774D01*
X0070199Y0184972D02*
X0069967Y0184972D01*
X0067400Y0181600D02*
X0067225Y0181600D01*
X0095382Y0164598D02*
X0294976Y0164598D01*
X0298160Y0195759D02*
X0099850Y0195759D01*
X0101812Y0196957D02*
X0296309Y0196957D01*
X0295207Y0198156D02*
X0102960Y0198156D01*
X0103457Y0199354D02*
X0294711Y0199354D01*
X0294316Y0200553D02*
X0103884Y0200553D01*
X0103884Y0201751D02*
X0294316Y0201751D01*
X0294372Y0202950D02*
X0103860Y0202950D01*
X0103364Y0204148D02*
X0294869Y0204148D01*
X0295493Y0205347D02*
X0102786Y0205347D01*
X0101588Y0206545D02*
X0296691Y0206545D01*
X0304540Y0206545D02*
X0322298Y0206545D01*
X0323945Y0205347D02*
X0305739Y0205347D01*
X0306521Y0199354D02*
X0350474Y0199354D01*
X0349275Y0198156D02*
X0306024Y0198156D01*
X0304922Y0196957D02*
X0348077Y0196957D01*
X0346878Y0195759D02*
X0303072Y0195759D01*
X0326583Y0205347D02*
X0327783Y0205347D01*
X0327783Y0206545D02*
X0326583Y0206545D01*
X0326583Y0207744D02*
X0327783Y0207744D01*
X0327783Y0208942D02*
X0326583Y0208942D01*
X0326583Y0212538D02*
X0327783Y0212538D01*
X0327783Y0213737D02*
X0326583Y0213737D01*
X0326583Y0214935D02*
X0327783Y0214935D01*
X0327783Y0216134D02*
X0326583Y0216134D01*
X0326583Y0217332D02*
X0327783Y0217332D01*
X0331160Y0217332D02*
X0352903Y0217332D01*
X0353399Y0216134D02*
X0332497Y0216134D01*
X0333317Y0214935D02*
X0354328Y0214935D01*
X0355681Y0213737D02*
X0333847Y0213737D01*
X0321048Y0214935D02*
X0077878Y0214935D01*
X0078375Y0213737D02*
X0320519Y0213737D01*
X0329398Y0234564D02*
X0332449Y0233300D01*
X0334514Y0233300D01*
X0335751Y0233300D01*
X0338802Y0234564D01*
X0341136Y0236898D01*
X0341136Y0236898D01*
X0342400Y0239949D01*
X0342400Y0243251D01*
X0341136Y0246302D01*
X0338802Y0248636D01*
X0335751Y0249900D01*
X0332449Y0249900D01*
X0329398Y0248636D01*
X0327064Y0246302D01*
X0327064Y0246302D01*
X0325800Y0243251D01*
X0325800Y0239949D01*
X0327064Y0236898D01*
X0329398Y0234564D01*
X0329398Y0234564D01*
X0328652Y0235310D02*
X0069548Y0235310D01*
X0070746Y0236508D02*
X0327454Y0236508D01*
X0327064Y0236898D02*
X0327064Y0236898D01*
X0326729Y0237707D02*
X0071471Y0237707D01*
X0071968Y0238905D02*
X0326232Y0238905D01*
X0325800Y0240104D02*
X0072400Y0240104D01*
X0072400Y0241302D02*
X0325800Y0241302D01*
X0325800Y0242501D02*
X0072400Y0242501D01*
X0072214Y0243699D02*
X0325986Y0243699D01*
X0326482Y0244898D02*
X0071718Y0244898D01*
X0071221Y0246096D02*
X0326979Y0246096D01*
X0328057Y0247295D02*
X0070143Y0247295D01*
X0071136Y0246302D02*
X0071136Y0246302D01*
X0068945Y0248493D02*
X0329255Y0248493D01*
X0329398Y0248636D02*
X0329398Y0248636D01*
X0331947Y0249692D02*
X0066253Y0249692D01*
X0068802Y0248636D02*
X0068802Y0248636D01*
X0067709Y0234111D02*
X0330491Y0234111D01*
X0335751Y0233300D02*
X0335751Y0233300D01*
X0337709Y0234111D02*
X0362991Y0234111D01*
X0361898Y0234564D02*
X0361898Y0234564D01*
X0361152Y0235310D02*
X0339548Y0235310D01*
X0338802Y0234564D02*
X0338802Y0234564D01*
X0340746Y0236508D02*
X0359954Y0236508D01*
X0359564Y0236898D02*
X0359564Y0236898D01*
X0359229Y0237707D02*
X0341471Y0237707D01*
X0341968Y0238905D02*
X0358732Y0238905D01*
X0358300Y0240104D02*
X0342400Y0240104D01*
X0342400Y0241302D02*
X0358300Y0241302D01*
X0358300Y0242501D02*
X0342400Y0242501D01*
X0342214Y0243699D02*
X0358486Y0243699D01*
X0358982Y0244898D02*
X0341718Y0244898D01*
X0341221Y0246096D02*
X0359479Y0246096D01*
X0360557Y0247295D02*
X0340143Y0247295D01*
X0341136Y0246302D02*
X0341136Y0246302D01*
X0338945Y0248493D02*
X0361755Y0248493D01*
X0361898Y0248636D02*
X0361898Y0248636D01*
X0364447Y0249692D02*
X0336253Y0249692D01*
X0338802Y0248636D02*
X0338802Y0248636D01*
X0368251Y0233300D02*
X0368251Y0233300D01*
X0370209Y0234111D02*
X0380200Y0234111D01*
X0380200Y0235310D02*
X0372048Y0235310D01*
X0371302Y0234564D02*
X0371302Y0234564D01*
X0373246Y0236508D02*
X0380200Y0236508D01*
X0380200Y0237707D02*
X0373971Y0237707D01*
X0374468Y0238905D02*
X0380200Y0238905D01*
X0380200Y0240104D02*
X0374900Y0240104D01*
X0374900Y0241302D02*
X0379918Y0241302D01*
X0378719Y0242501D02*
X0374900Y0242501D01*
X0374714Y0243699D02*
X0377521Y0243699D01*
X0376322Y0244898D02*
X0374218Y0244898D01*
X0373721Y0246096D02*
X0375124Y0246096D01*
X0373636Y0246302D02*
X0373636Y0246302D01*
X0373925Y0247295D02*
X0372643Y0247295D01*
X0372727Y0248493D02*
X0371445Y0248493D01*
X0371302Y0248636D02*
X0371302Y0248636D01*
X0362864Y0182575D02*
X0380200Y0182575D01*
X0380200Y0181377D02*
X0363952Y0181377D01*
X0364602Y0180178D02*
X0380200Y0180178D01*
X0380200Y0178980D02*
X0364921Y0178980D01*
X0359484Y0178980D02*
X0358716Y0178980D01*
X0358716Y0180178D02*
X0359484Y0180178D01*
X0359484Y0181377D02*
X0358716Y0181377D01*
X0358716Y0182575D02*
X0359484Y0182575D01*
X0359484Y0176583D02*
X0358716Y0176583D01*
X0358716Y0175384D02*
X0359484Y0175384D01*
X0359484Y0174186D02*
X0358716Y0174186D01*
X0358716Y0172987D02*
X0359484Y0172987D01*
X0339010Y0107069D02*
X0262941Y0107069D01*
X0210579Y0121451D02*
X0209572Y0121451D01*
X0209381Y0120253D02*
X0208374Y0120253D01*
X0207716Y0125047D02*
X0207168Y0125047D01*
X0208366Y0126245D02*
X0208873Y0126245D01*
X0206521Y0128642D02*
X0190430Y0128642D01*
X0191484Y0127444D02*
X0205322Y0127444D01*
X0204124Y0126245D02*
X0191484Y0126245D01*
X0190919Y0125047D02*
X0202925Y0125047D01*
X0201727Y0123848D02*
X0190600Y0123848D01*
X0190600Y0122650D02*
X0200528Y0122650D01*
X0199330Y0121451D02*
X0190600Y0121451D01*
X0190600Y0120253D02*
X0198131Y0120253D01*
X0196933Y0119054D02*
X0190600Y0119054D01*
X0190600Y0117856D02*
X0195734Y0117856D01*
X0194536Y0116657D02*
X0190600Y0116657D01*
X0190600Y0115459D02*
X0193850Y0115459D01*
X0193850Y0114260D02*
X0190600Y0114260D01*
X0190600Y0113062D02*
X0193850Y0113062D01*
X0193850Y0111863D02*
X0190600Y0111863D01*
X0190600Y0110665D02*
X0193850Y0110665D01*
X0193850Y0109466D02*
X0190600Y0109466D01*
X0190600Y0108268D02*
X0193850Y0108268D01*
X0193850Y0107069D02*
X0190600Y0107069D01*
X0190600Y0105870D02*
X0193850Y0105870D01*
X0193850Y0104672D02*
X0189918Y0104672D01*
X0189609Y0103473D02*
X0193850Y0103473D01*
X0193850Y0102275D02*
X0188772Y0102275D01*
X0187225Y0104100D02*
X0189100Y0105975D01*
X0189100Y0126600D01*
X0187281Y0125047D02*
X0179006Y0125047D01*
X0177808Y0123848D02*
X0187600Y0123848D01*
X0187600Y0122650D02*
X0176609Y0122650D01*
X0175411Y0121451D02*
X0187600Y0121451D01*
X0187600Y0120253D02*
X0174212Y0120253D01*
X0173014Y0119054D02*
X0187600Y0119054D01*
X0187600Y0117856D02*
X0171815Y0117856D01*
X0170617Y0116657D02*
X0187600Y0116657D01*
X0186716Y0126245D02*
X0180205Y0126245D01*
X0181403Y0127444D02*
X0186716Y0127444D01*
X0187770Y0128642D02*
X0182602Y0128642D01*
X0183800Y0129841D02*
X0206716Y0129841D01*
X0184100Y0134100D02*
X0142850Y0092850D01*
X0141600Y0092850D01*
X0154763Y0089091D02*
X0159699Y0089091D01*
X0158220Y0090290D02*
X0155795Y0090290D01*
X0156310Y0091488D02*
X0157618Y0091488D01*
X0171600Y0105350D02*
X0171600Y0112850D01*
X0175533Y0131039D02*
X0176355Y0131039D01*
X0174904Y0132238D02*
X0161609Y0132238D01*
X0072044Y0153811D02*
X0070173Y0153811D01*
X0070846Y0155009D02*
X0069320Y0155009D01*
X0069647Y0156208D02*
X0067475Y0156208D01*
X0068251Y0157406D02*
X0068449Y0157406D01*
X0066184Y0155009D02*
X0065416Y0155009D01*
X0065416Y0153811D02*
X0066184Y0153811D01*
X0066184Y0152612D02*
X0065416Y0152612D01*
X0065416Y0150215D02*
X0066184Y0150215D01*
X0066184Y0149017D02*
X0065416Y0149017D01*
X0065416Y0147818D02*
X0066184Y0147818D01*
X0063660Y0213737D02*
X0034542Y0213737D01*
X0035599Y0214935D02*
X0064156Y0214935D01*
X0064763Y0216134D02*
X0036096Y0216134D01*
X0036200Y0217332D02*
X0065962Y0217332D01*
X0067794Y0218531D02*
X0036069Y0218531D01*
X0035573Y0219729D02*
X0091556Y0219729D01*
X0092053Y0218531D02*
X0074240Y0218531D01*
X0076073Y0217332D02*
X0092982Y0217332D01*
X0094414Y0216134D02*
X0077271Y0216134D01*
X0091463Y0223325D02*
X0018000Y0223325D01*
X0018000Y0224523D02*
X0091960Y0224523D01*
X0092757Y0225722D02*
X0018000Y0225722D01*
X0018000Y0226920D02*
X0093955Y0226920D01*
X0065751Y0233300D02*
X0065751Y0233300D01*
X0110921Y0073511D02*
X0111271Y0073511D01*
X0102000Y0067518D02*
X0101357Y0067518D01*
X0101357Y0066320D02*
X0102000Y0066320D01*
X0102000Y0065121D02*
X0101357Y0065121D01*
X0092160Y0048342D02*
X0121040Y0048342D01*
X0121104Y0048405D02*
X0117117Y0044419D01*
X0117117Y0038781D01*
X0121104Y0034794D01*
X0126742Y0034794D01*
X0130728Y0038781D01*
X0130728Y0044419D01*
X0126742Y0048405D01*
X0121104Y0048405D01*
X0119842Y0047143D02*
X0093358Y0047143D01*
X0094557Y0045945D02*
X0118643Y0045945D01*
X0117445Y0044746D02*
X0095755Y0044746D01*
X0096083Y0043548D02*
X0117117Y0043548D01*
X0117117Y0042349D02*
X0096083Y0042349D01*
X0096083Y0041151D02*
X0117117Y0041151D01*
X0117117Y0039952D02*
X0096083Y0039952D01*
X0096055Y0038754D02*
X0117145Y0038754D01*
X0118343Y0037555D02*
X0094857Y0037555D01*
X0093658Y0036357D02*
X0119542Y0036357D01*
X0120740Y0035158D02*
X0092460Y0035158D01*
X0127106Y0035158D02*
X0178594Y0035158D01*
X0178958Y0034794D02*
X0184596Y0034794D01*
X0188583Y0038781D01*
X0188583Y0044419D01*
X0184596Y0048405D01*
X0178958Y0048405D01*
X0174972Y0044419D01*
X0174972Y0038781D01*
X0178958Y0034794D01*
X0177396Y0036357D02*
X0128304Y0036357D01*
X0129503Y0037555D02*
X0176197Y0037555D01*
X0174999Y0038754D02*
X0130701Y0038754D01*
X0130728Y0039952D02*
X0174972Y0039952D01*
X0174972Y0041151D02*
X0130728Y0041151D01*
X0130728Y0042349D02*
X0174972Y0042349D01*
X0174972Y0043548D02*
X0130728Y0043548D01*
X0130401Y0044746D02*
X0175299Y0044746D01*
X0176498Y0045945D02*
X0129202Y0045945D01*
X0128004Y0047143D02*
X0177696Y0047143D01*
X0178895Y0048342D02*
X0126805Y0048342D01*
X0184660Y0048342D02*
X0213540Y0048342D01*
X0213604Y0048405D02*
X0209617Y0044419D01*
X0209617Y0038781D01*
X0213604Y0034794D01*
X0219242Y0034794D01*
X0223228Y0038781D01*
X0223228Y0044419D01*
X0219242Y0048405D01*
X0213604Y0048405D01*
X0212342Y0047143D02*
X0185858Y0047143D01*
X0187057Y0045945D02*
X0211143Y0045945D01*
X0209945Y0044746D02*
X0188255Y0044746D01*
X0188583Y0043548D02*
X0209617Y0043548D01*
X0209617Y0042349D02*
X0188583Y0042349D01*
X0188583Y0041151D02*
X0209617Y0041151D01*
X0209617Y0039952D02*
X0188583Y0039952D01*
X0188555Y0038754D02*
X0209645Y0038754D01*
X0210843Y0037555D02*
X0187357Y0037555D01*
X0186158Y0036357D02*
X0212042Y0036357D01*
X0213240Y0035158D02*
X0184960Y0035158D01*
X0219606Y0035158D02*
X0271094Y0035158D01*
X0271458Y0034794D02*
X0277096Y0034794D01*
X0281083Y0038781D01*
X0281083Y0044419D01*
X0277096Y0048405D01*
X0271458Y0048405D01*
X0267472Y0044419D01*
X0267472Y0038781D01*
X0271458Y0034794D01*
X0269896Y0036357D02*
X0220804Y0036357D01*
X0222003Y0037555D02*
X0268697Y0037555D01*
X0267499Y0038754D02*
X0223201Y0038754D01*
X0223228Y0039952D02*
X0267472Y0039952D01*
X0267472Y0041151D02*
X0223228Y0041151D01*
X0223228Y0042349D02*
X0267472Y0042349D01*
X0267472Y0043548D02*
X0223228Y0043548D01*
X0222901Y0044746D02*
X0267799Y0044746D01*
X0268998Y0045945D02*
X0221702Y0045945D01*
X0220504Y0047143D02*
X0270196Y0047143D01*
X0271395Y0048342D02*
X0219305Y0048342D01*
X0203771Y0073511D02*
X0203421Y0073511D01*
X0277160Y0048342D02*
X0306040Y0048342D01*
X0306104Y0048405D02*
X0302117Y0044419D01*
X0302117Y0038781D01*
X0306104Y0034794D01*
X0311742Y0034794D01*
X0315728Y0038781D01*
X0315728Y0044419D01*
X0311742Y0048405D01*
X0306104Y0048405D01*
X0304842Y0047143D02*
X0278358Y0047143D01*
X0279557Y0045945D02*
X0303643Y0045945D01*
X0302445Y0044746D02*
X0280755Y0044746D01*
X0281083Y0043548D02*
X0302117Y0043548D01*
X0302117Y0042349D02*
X0281083Y0042349D01*
X0281083Y0041151D02*
X0302117Y0041151D01*
X0302117Y0039952D02*
X0281083Y0039952D01*
X0281055Y0038754D02*
X0302145Y0038754D01*
X0303343Y0037555D02*
X0279857Y0037555D01*
X0278658Y0036357D02*
X0304542Y0036357D01*
X0305740Y0035158D02*
X0277460Y0035158D01*
X0312106Y0035158D02*
X0380200Y0035158D01*
X0380200Y0036357D02*
X0313304Y0036357D01*
X0314503Y0037555D02*
X0380200Y0037555D01*
X0380200Y0038754D02*
X0315701Y0038754D01*
X0315728Y0039952D02*
X0380200Y0039952D01*
X0380200Y0041151D02*
X0315728Y0041151D01*
X0315728Y0042349D02*
X0380200Y0042349D01*
X0380200Y0043548D02*
X0315728Y0043548D01*
X0315401Y0044746D02*
X0380200Y0044746D01*
X0380200Y0045945D02*
X0314202Y0045945D01*
X0313004Y0047143D02*
X0358239Y0047143D01*
X0357041Y0048342D02*
X0311805Y0048342D01*
X0331667Y0059129D02*
X0052643Y0059129D01*
X0053840Y0057930D02*
X0332866Y0057930D01*
X0334064Y0056732D02*
X0054336Y0056732D01*
X0054600Y0055533D02*
X0335263Y0055533D01*
X0336461Y0054334D02*
X0054600Y0054334D01*
X0054198Y0053136D02*
X0337660Y0053136D01*
X0338858Y0051937D02*
X0053509Y0051937D01*
X0052137Y0050739D02*
X0340057Y0050739D01*
X0364961Y0047143D02*
X0380200Y0047143D01*
X0380200Y0048342D02*
X0366159Y0048342D01*
X0366730Y0049540D02*
X0380200Y0049540D01*
X0380200Y0050739D02*
X0367128Y0050739D01*
X0367128Y0051937D02*
X0380200Y0051937D01*
X0380200Y0053136D02*
X0366947Y0053136D01*
X0366450Y0054334D02*
X0380200Y0054334D01*
X0380200Y0055533D02*
X0365484Y0055533D01*
X0370100Y0079503D02*
X0370900Y0079503D01*
X0370900Y0080702D02*
X0370100Y0080702D01*
X0370100Y0081900D02*
X0370900Y0081900D01*
X0370900Y0083099D02*
X0370100Y0083099D01*
X0370100Y0084297D02*
X0370900Y0084297D01*
X0370900Y0085496D02*
X0370100Y0085496D01*
X0370100Y0086694D02*
X0370900Y0086694D01*
X0370900Y0087893D02*
X0370100Y0087893D01*
D19*
X0301600Y0134100D02*
X0261600Y0134100D01*
X0184100Y0134100D01*
X0177850Y0134100D01*
X0166600Y0145350D01*
X0114100Y0111600D02*
X0108475Y0111600D01*
X0095350Y0124100D01*
X0095350Y0133475D01*
X0067400Y0161425D01*
X0067400Y0161600D01*
D20*
X0070350Y0187225D02*
X0095350Y0162225D01*
X0295975Y0162225D01*
X0307624Y0154100D02*
X0359100Y0205576D01*
X0359100Y0191797D02*
X0311403Y0144100D01*
X0261600Y0144100D01*
X0261600Y0154100D02*
X0307624Y0154100D01*
X0294100Y0099100D02*
X0341600Y0051600D01*
X0346600Y0051600D01*
X0070350Y0187225D02*
X0050975Y0187225D01*
X0031600Y0206600D01*
D21*
X0042850Y0133475D02*
X0019100Y0133475D01*
X0019100Y0094725D01*
X0042850Y0094725D01*
X0042850Y0133475D01*
X0042850Y0133354D02*
X0019100Y0133354D01*
X0019100Y0132556D02*
X0042850Y0132556D01*
X0042850Y0131757D02*
X0019100Y0131757D01*
X0019100Y0130959D02*
X0042850Y0130959D01*
X0042850Y0130160D02*
X0019100Y0130160D01*
X0019100Y0129362D02*
X0042850Y0129362D01*
X0042850Y0128563D02*
X0019100Y0128563D01*
X0019100Y0127765D02*
X0035578Y0127765D01*
X0035131Y0127580D02*
X0034434Y0126882D01*
X0034056Y0125971D01*
X0034056Y0124985D01*
X0034434Y0124073D01*
X0035131Y0123376D01*
X0036043Y0122998D01*
X0037029Y0122998D01*
X0037941Y0123376D01*
X0038638Y0124073D01*
X0039016Y0124985D01*
X0039016Y0125971D01*
X0038638Y0126882D01*
X0037941Y0127580D01*
X0037029Y0127957D01*
X0036043Y0127957D01*
X0035131Y0127580D01*
X0034518Y0126966D02*
X0019100Y0126966D01*
X0019100Y0126168D02*
X0034138Y0126168D01*
X0034056Y0125369D02*
X0019100Y0125369D01*
X0019100Y0124571D02*
X0034228Y0124571D01*
X0034735Y0123772D02*
X0019100Y0123772D01*
X0019100Y0122974D02*
X0042850Y0122974D01*
X0042850Y0123772D02*
X0038337Y0123772D01*
X0038844Y0124571D02*
X0042850Y0124571D01*
X0042850Y0125369D02*
X0039016Y0125369D01*
X0038934Y0126168D02*
X0042850Y0126168D01*
X0042850Y0126966D02*
X0038554Y0126966D01*
X0037494Y0127765D02*
X0042850Y0127765D01*
X0042850Y0122175D02*
X0019100Y0122175D01*
X0019100Y0121377D02*
X0042850Y0121377D01*
X0042850Y0120578D02*
X0019100Y0120578D01*
X0019100Y0119780D02*
X0042850Y0119780D01*
X0042850Y0118981D02*
X0019100Y0118981D01*
X0019100Y0118183D02*
X0042850Y0118183D01*
X0042850Y0117384D02*
X0019100Y0117384D01*
X0019100Y0116586D02*
X0042850Y0116586D01*
X0042850Y0115787D02*
X0019100Y0115787D01*
X0019100Y0114989D02*
X0042850Y0114989D01*
X0042850Y0114190D02*
X0019100Y0114190D01*
X0019100Y0113392D02*
X0042850Y0113392D01*
X0042850Y0112593D02*
X0019100Y0112593D01*
X0019100Y0111795D02*
X0042850Y0111795D01*
X0042850Y0110996D02*
X0019100Y0110996D01*
X0019100Y0110198D02*
X0042850Y0110198D01*
X0042850Y0109399D02*
X0019100Y0109399D01*
X0019100Y0108601D02*
X0042850Y0108601D01*
X0042850Y0107802D02*
X0019100Y0107802D01*
X0019100Y0107003D02*
X0042850Y0107003D01*
X0042850Y0106205D02*
X0019100Y0106205D01*
X0019100Y0105406D02*
X0042850Y0105406D01*
X0042850Y0104608D02*
X0038157Y0104608D01*
X0037941Y0104824D02*
X0037029Y0105202D01*
X0036043Y0105202D01*
X0035131Y0104824D01*
X0034434Y0104127D01*
X0034056Y0103215D01*
X0034056Y0102229D01*
X0034434Y0101318D01*
X0035131Y0100620D01*
X0036043Y0100243D01*
X0037029Y0100243D01*
X0037941Y0100620D01*
X0038638Y0101318D01*
X0039016Y0102229D01*
X0039016Y0103215D01*
X0038638Y0104127D01*
X0037941Y0104824D01*
X0038769Y0103809D02*
X0042850Y0103809D01*
X0042850Y0103011D02*
X0039016Y0103011D01*
X0039009Y0102212D02*
X0042850Y0102212D01*
X0042850Y0101414D02*
X0038678Y0101414D01*
X0037929Y0100615D02*
X0042850Y0100615D01*
X0042850Y0099817D02*
X0019100Y0099817D01*
X0019100Y0100615D02*
X0035143Y0100615D01*
X0034394Y0101414D02*
X0019100Y0101414D01*
X0019100Y0102212D02*
X0034063Y0102212D01*
X0034056Y0103011D02*
X0019100Y0103011D01*
X0019100Y0103809D02*
X0034303Y0103809D01*
X0034915Y0104608D02*
X0019100Y0104608D01*
X0019100Y0099018D02*
X0042850Y0099018D01*
X0042850Y0098220D02*
X0019100Y0098220D01*
X0019100Y0097421D02*
X0042850Y0097421D01*
X0042850Y0096623D02*
X0019100Y0096623D01*
X0019100Y0095824D02*
X0042850Y0095824D01*
X0042850Y0095026D02*
X0019100Y0095026D01*
M02*
