G75*
%MOIN*%
%OFA0B0*%
%FSLAX25Y25*%
%IPPOS*%
%LPD*%
%AMOC8*
5,1,8,0,0,1.08239X$1,22.5*
%
%ADD10C,0.13800*%
%ADD11C,0.07400*%
%ADD12R,0.08200X0.08200*%
%ADD13OC8,0.12611*%
%ADD14C,0.08200*%
%ADD15C,0.08800*%
%ADD16C,0.11600*%
%ADD17C,0.09400*%
%ADD18C,0.00500*%
%ADD19C,0.09855*%
%ADD20C,0.03359*%
D10*
X0031600Y0016600D03*
X0064100Y0091600D03*
X0064100Y0241600D03*
X0031600Y0241600D03*
X0334100Y0241600D03*
X0366600Y0241600D03*
X0334100Y0091600D03*
X0366600Y0016600D03*
D11*
X0161600Y0092850D03*
X0151600Y0092850D03*
X0141600Y0092850D03*
X0065800Y0151600D03*
X0067400Y0161600D03*
X0065800Y0171600D03*
X0067400Y0181600D03*
D12*
X0096757Y0069159D03*
X0106600Y0069159D03*
X0116443Y0069159D03*
X0189257Y0069159D03*
X0199100Y0069159D03*
X0208943Y0069159D03*
X0281757Y0069159D03*
X0291600Y0069159D03*
X0301443Y0069159D03*
D13*
X0308923Y0041600D03*
X0274277Y0041600D03*
X0216423Y0041600D03*
X0181777Y0041600D03*
X0123923Y0041600D03*
X0089277Y0041600D03*
D14*
X0352700Y0083800D03*
X0370500Y0083800D03*
X0370500Y0109400D03*
X0352700Y0109400D03*
X0352700Y0133800D03*
X0370500Y0133800D03*
X0370500Y0159400D03*
X0352700Y0159400D03*
D15*
X0049600Y0055100D03*
X0031600Y0055100D03*
D16*
X0097584Y0201639D03*
X0097584Y0221639D03*
X0071017Y0211639D03*
X0300616Y0221561D03*
X0300616Y0201561D03*
X0327183Y0211561D03*
D17*
X0359100Y0205576D03*
X0359100Y0191797D03*
X0359100Y0178017D03*
X0359100Y0219356D03*
D18*
X0033340Y0217270D02*
X0033293Y0216887D01*
X0033163Y0216523D01*
X0032954Y0216198D01*
X0032679Y0215927D01*
X0032350Y0215724D01*
X0031984Y0215600D01*
X0031600Y0215560D01*
X0031218Y0215594D01*
X0030854Y0215712D01*
X0030525Y0215908D01*
X0030248Y0216172D01*
X0030037Y0216492D01*
X0029902Y0216850D01*
X0029850Y0217230D01*
X0029885Y0217630D01*
X0030008Y0218013D01*
X0030214Y0218359D01*
X0030491Y0218650D01*
X0030826Y0218872D01*
X0031202Y0219015D01*
X0031600Y0219070D01*
X0031993Y0219019D01*
X0032365Y0218881D01*
X0032697Y0218665D01*
X0032972Y0218380D01*
X0033177Y0218041D01*
X0033302Y0217665D01*
X0033340Y0217270D01*
X0033322Y0217455D02*
X0029870Y0217455D01*
X0029887Y0216957D02*
X0033302Y0216957D01*
X0033121Y0216458D02*
X0030059Y0216458D01*
X0030471Y0215960D02*
X0032712Y0215960D01*
X0033206Y0217954D02*
X0029989Y0217954D01*
X0030303Y0218452D02*
X0032902Y0218452D01*
X0032177Y0218951D02*
X0031033Y0218951D01*
X0031640Y0208350D02*
X0032033Y0208299D01*
X0032405Y0208161D01*
X0032737Y0207945D01*
X0033012Y0207660D01*
X0033218Y0207321D01*
X0033342Y0206945D01*
X0033380Y0206550D01*
X0033333Y0206167D01*
X0033203Y0205803D01*
X0032994Y0205478D01*
X0032719Y0205207D01*
X0032390Y0205004D01*
X0032024Y0204880D01*
X0031640Y0204840D01*
X0031259Y0204874D01*
X0030894Y0204992D01*
X0030565Y0205188D01*
X0030288Y0205452D01*
X0030077Y0205772D01*
X0029942Y0206130D01*
X0029890Y0206510D01*
X0029925Y0206910D01*
X0030048Y0207293D01*
X0030254Y0207639D01*
X0030531Y0207930D01*
X0030866Y0208152D01*
X0031242Y0208295D01*
X0031640Y0208350D01*
X0030612Y0207984D02*
X0032677Y0207984D01*
X0033118Y0207485D02*
X0030163Y0207485D01*
X0029950Y0206987D02*
X0033328Y0206987D01*
X0033372Y0206488D02*
X0029893Y0206488D01*
X0029995Y0205990D02*
X0033270Y0205990D01*
X0033003Y0205491D02*
X0030262Y0205491D01*
X0030893Y0204993D02*
X0032356Y0204993D01*
X0031610Y0197650D02*
X0032003Y0197599D01*
X0032375Y0197462D01*
X0032707Y0197245D01*
X0032983Y0196960D01*
X0033188Y0196621D01*
X0033312Y0196245D01*
X0033350Y0195850D01*
X0033304Y0195467D01*
X0033173Y0195103D01*
X0032965Y0194778D01*
X0032689Y0194507D01*
X0032360Y0194305D01*
X0031994Y0194180D01*
X0031610Y0194140D01*
X0031229Y0194174D01*
X0030864Y0194292D01*
X0030535Y0194488D01*
X0030258Y0194753D01*
X0030047Y0195072D01*
X0029912Y0195431D01*
X0029860Y0195810D01*
X0029895Y0196211D01*
X0030019Y0196593D01*
X0030224Y0196939D01*
X0030501Y0197230D01*
X0030836Y0197453D01*
X0031212Y0197595D01*
X0031610Y0197650D01*
X0031000Y0197515D02*
X0032231Y0197515D01*
X0032928Y0197016D02*
X0030297Y0197016D01*
X0029994Y0196518D02*
X0033222Y0196518D01*
X0033334Y0196019D02*
X0029879Y0196019D01*
X0029900Y0195521D02*
X0033310Y0195521D01*
X0033121Y0195022D02*
X0030080Y0195022D01*
X0030498Y0194524D02*
X0032706Y0194524D01*
D19*
X0361600Y0051600D03*
D20*
X0036536Y0102722D03*
X0036536Y0125478D03*
M02*
