%
M48
M72
T01C0.0197
T02C0.0256
T03C0.0394
T04C0.0400
T05C0.0720
T06C0.0787
T07C0.0800
T08C0.0906
T09C0.1300
%
T01
X12973Y9598
X14848Y10348
X17160Y10535
X17160Y11285
X18723Y10410
X21160Y11910
X21010Y12410
X20910Y12910
X18910Y12660
X17410Y12910
X16910Y12910
X16385Y13660
X16660Y14535
X14660Y15410
X14410Y12848
X13410Y12410
X11660Y11660
X11410Y11160
X10160Y11160
X8660Y11410
X7410Y11035
X7410Y11785
X6660Y12660
X7848Y13848
X9160Y14410
X9160Y12910
X10785Y12410
X4660Y12785
X2160Y12660
X2160Y10160
X4660Y10160
X4660Y16410
X23160Y12660
X26160Y13410
X26160Y14410
X26160Y15410
X29598Y16223
X30160Y13410
X31660Y12660
X29410Y9910
X26160Y10910
X26160Y11410
X34660Y5160
T02
X3654Y10272
X3654Y12548
T03
X6580Y15160
X6740Y16160
X6580Y17160
X6740Y18160
X14160Y9285
X15160Y9285
X16160Y9285
X18926Y6916
X19910Y6916
X20894Y6916
X28176Y6916
X29160Y6916
X30144Y6916
X35910Y17802
X35910Y19180
X35910Y20558
X35910Y21936
X11644Y6916
X10660Y6916
X9676Y6916
T04
X3160Y19590
X3160Y20660
X3160Y21730
X35270Y15940
X37050Y15940
X37050Y13380
X35270Y13380
X35270Y10940
X37050Y10940
X37050Y8380
X35270Y8380
T05
X30062Y20156
X30062Y22156
X32718Y21156
X9758Y20164
X9758Y22164
X7102Y21164
T06
X8928Y4160
X12392Y4160
X18178Y4160
X21642Y4160
X27428Y4160
X30892Y4160
T07
X4960Y5510
X3160Y5510
T08
X36160Y5160
T09
X3160Y1660
X6410Y9160
X6410Y24160
X3160Y24160
X33410Y24160
X36660Y24160
X33410Y9160
X36660Y1660
M30
