G75*
%MOIN*%
%OFA0B0*%
%FSLAX25Y25*%
%IPPOS*%
%LPD*%
%AMOC8*
5,1,8,0,0,1.08239X$1,22.5*
%
%ADD10C,0.00800*%
%ADD11C,0.00500*%
%ADD12C,0.00200*%
%ADD13C,0.00600*%
%ADD14C,0.01200*%
%ADD15C,0.00100*%
%ADD16C,0.01000*%
D10*
X0017820Y0037383D02*
X0023726Y0037383D01*
X0017820Y0037383D02*
X0017820Y0045257D01*
X0031600Y0045257D01*
X0039474Y0037383D02*
X0047742Y0037383D01*
X0063883Y0037383D02*
X0070183Y0037383D01*
X0070183Y0072817D01*
X0063490Y0072817D01*
X0047742Y0072817D02*
X0039474Y0072817D01*
X0031600Y0064943D02*
X0017820Y0064943D01*
X0017820Y0072817D01*
X0023726Y0072817D01*
X0017820Y0064943D02*
X0017820Y0045257D01*
X0031600Y0045257D02*
X0031828Y0045270D01*
X0032055Y0045289D01*
X0032282Y0045313D01*
X0032508Y0045342D01*
X0032733Y0045377D01*
X0032957Y0045417D01*
X0033180Y0045463D01*
X0033403Y0045514D01*
X0033623Y0045570D01*
X0033843Y0045632D01*
X0034061Y0045699D01*
X0034277Y0045771D01*
X0034491Y0045849D01*
X0034703Y0045931D01*
X0034914Y0046019D01*
X0035122Y0046112D01*
X0035328Y0046210D01*
X0035531Y0046312D01*
X0035732Y0046420D01*
X0035930Y0046532D01*
X0036126Y0046650D01*
X0036318Y0046771D01*
X0036508Y0046898D01*
X0036695Y0047029D01*
X0036878Y0047164D01*
X0037058Y0047304D01*
X0037234Y0047449D01*
X0037407Y0047597D01*
X0037576Y0047750D01*
X0037742Y0047906D01*
X0037904Y0048067D01*
X0038062Y0048231D01*
X0038215Y0048399D01*
X0038365Y0048571D01*
X0038511Y0048747D01*
X0038652Y0048926D01*
X0038789Y0049108D01*
X0038921Y0049293D01*
X0039049Y0049482D01*
X0039172Y0049674D01*
X0039291Y0049868D01*
X0039405Y0050066D01*
X0039514Y0050266D01*
X0039618Y0050468D01*
X0039717Y0050674D01*
X0039811Y0050881D01*
X0039901Y0051091D01*
X0039985Y0051303D01*
X0040064Y0051516D01*
X0040138Y0051732D01*
X0040206Y0051949D01*
X0040270Y0052168D01*
X0040328Y0052389D01*
X0040380Y0052610D01*
X0040428Y0052833D01*
X0040470Y0053057D01*
X0040506Y0053282D01*
X0040537Y0053508D01*
X0040563Y0053735D01*
X0040583Y0053962D01*
X0040597Y0054189D01*
X0040606Y0054417D01*
X0040610Y0054645D01*
X0040608Y0054872D01*
X0040601Y0055100D01*
X0040608Y0055328D01*
X0040610Y0055555D01*
X0040606Y0055783D01*
X0040597Y0056011D01*
X0040583Y0056238D01*
X0040563Y0056465D01*
X0040537Y0056692D01*
X0040506Y0056918D01*
X0040470Y0057143D01*
X0040428Y0057367D01*
X0040380Y0057590D01*
X0040328Y0057811D01*
X0040270Y0058032D01*
X0040206Y0058251D01*
X0040138Y0058468D01*
X0040064Y0058684D01*
X0039985Y0058897D01*
X0039901Y0059109D01*
X0039811Y0059319D01*
X0039717Y0059526D01*
X0039618Y0059732D01*
X0039514Y0059934D01*
X0039405Y0060134D01*
X0039291Y0060332D01*
X0039172Y0060526D01*
X0039049Y0060718D01*
X0038921Y0060907D01*
X0038789Y0061092D01*
X0038652Y0061274D01*
X0038511Y0061453D01*
X0038365Y0061629D01*
X0038215Y0061801D01*
X0038062Y0061969D01*
X0037904Y0062133D01*
X0037742Y0062294D01*
X0037576Y0062450D01*
X0037407Y0062603D01*
X0037234Y0062751D01*
X0037058Y0062896D01*
X0036878Y0063036D01*
X0036695Y0063171D01*
X0036508Y0063302D01*
X0036318Y0063429D01*
X0036126Y0063550D01*
X0035930Y0063668D01*
X0035732Y0063780D01*
X0035531Y0063888D01*
X0035328Y0063990D01*
X0035122Y0064088D01*
X0034914Y0064181D01*
X0034703Y0064269D01*
X0034491Y0064351D01*
X0034277Y0064429D01*
X0034061Y0064501D01*
X0033843Y0064568D01*
X0033623Y0064630D01*
X0033403Y0064686D01*
X0033180Y0064737D01*
X0032957Y0064783D01*
X0032733Y0064823D01*
X0032508Y0064858D01*
X0032282Y0064887D01*
X0032055Y0064911D01*
X0031828Y0064930D01*
X0031600Y0064943D01*
X0033564Y0097092D02*
X0026477Y0097092D01*
X0065100Y0107100D02*
X0065100Y0111100D01*
X0065100Y0119100D02*
X0065100Y0123100D01*
X0074600Y0129100D02*
X0078600Y0129100D01*
X0078726Y0121974D02*
X0078726Y0120596D01*
X0078726Y0121974D02*
X0080104Y0121974D01*
X0093096Y0121974D02*
X0094474Y0121974D01*
X0094474Y0120596D01*
X0094474Y0107604D02*
X0094474Y0106226D01*
X0093096Y0106226D01*
X0080104Y0106226D02*
X0078726Y0107604D01*
X0077900Y0105900D02*
X0077902Y0105944D01*
X0077908Y0105988D01*
X0077918Y0106031D01*
X0077931Y0106073D01*
X0077948Y0106114D01*
X0077969Y0106153D01*
X0077993Y0106190D01*
X0078020Y0106225D01*
X0078050Y0106257D01*
X0078083Y0106287D01*
X0078119Y0106313D01*
X0078156Y0106337D01*
X0078196Y0106356D01*
X0078237Y0106373D01*
X0078280Y0106385D01*
X0078323Y0106394D01*
X0078367Y0106399D01*
X0078411Y0106400D01*
X0078455Y0106397D01*
X0078499Y0106390D01*
X0078542Y0106379D01*
X0078584Y0106365D01*
X0078624Y0106347D01*
X0078663Y0106325D01*
X0078699Y0106301D01*
X0078733Y0106273D01*
X0078765Y0106242D01*
X0078794Y0106208D01*
X0078820Y0106172D01*
X0078842Y0106134D01*
X0078861Y0106094D01*
X0078876Y0106052D01*
X0078888Y0106010D01*
X0078896Y0105966D01*
X0078900Y0105922D01*
X0078900Y0105878D01*
X0078896Y0105834D01*
X0078888Y0105790D01*
X0078876Y0105748D01*
X0078861Y0105706D01*
X0078842Y0105666D01*
X0078820Y0105628D01*
X0078794Y0105592D01*
X0078765Y0105558D01*
X0078733Y0105527D01*
X0078699Y0105499D01*
X0078663Y0105475D01*
X0078624Y0105453D01*
X0078584Y0105435D01*
X0078542Y0105421D01*
X0078499Y0105410D01*
X0078455Y0105403D01*
X0078411Y0105400D01*
X0078367Y0105401D01*
X0078323Y0105406D01*
X0078280Y0105415D01*
X0078237Y0105427D01*
X0078196Y0105444D01*
X0078156Y0105463D01*
X0078119Y0105487D01*
X0078083Y0105513D01*
X0078050Y0105543D01*
X0078020Y0105575D01*
X0077993Y0105610D01*
X0077969Y0105647D01*
X0077948Y0105686D01*
X0077931Y0105727D01*
X0077918Y0105769D01*
X0077908Y0105812D01*
X0077902Y0105856D01*
X0077900Y0105900D01*
X0081475Y0091600D02*
X0085475Y0091600D01*
X0114725Y0093975D02*
X0114725Y0097975D01*
X0114725Y0101475D02*
X0114725Y0105475D01*
X0140950Y0130729D02*
X0147250Y0130729D01*
X0139966Y0135650D02*
X0139966Y0138800D01*
X0140950Y0143721D02*
X0147250Y0143721D01*
X0139411Y0148301D02*
X0113983Y0148301D01*
X0113983Y0159899D01*
X0139411Y0159899D01*
X0139411Y0148301D01*
X0128600Y0151100D02*
X0128600Y0154100D01*
X0128600Y0157100D01*
X0128600Y0154100D02*
X0125600Y0157100D01*
X0125600Y0151100D01*
X0128600Y0154100D01*
X0127536Y0163926D02*
X0102108Y0163926D01*
X0102108Y0175524D01*
X0127536Y0175524D01*
X0127536Y0163926D01*
X0116725Y0166725D02*
X0116725Y0169725D01*
X0116725Y0172725D01*
X0116725Y0169725D02*
X0113725Y0172725D01*
X0113725Y0166725D01*
X0116725Y0169725D01*
X0108017Y0189739D02*
X0070478Y0189739D01*
X0070478Y0194139D01*
X0056778Y0194139D01*
X0056778Y0229139D01*
X0070478Y0229139D01*
X0070478Y0233539D01*
X0108017Y0233539D01*
X0108017Y0189739D01*
X0141051Y0204500D02*
X0143453Y0204500D01*
X0142252Y0204500D02*
X0142252Y0211706D01*
X0143453Y0211706D01*
X0147163Y0211706D02*
X0147163Y0204500D01*
X0148364Y0204500D02*
X0145962Y0204500D01*
X0150926Y0206902D02*
X0155730Y0206902D01*
X0155730Y0205701D02*
X0155730Y0208103D01*
X0154529Y0209304D01*
X0152127Y0209304D01*
X0150926Y0208103D01*
X0150926Y0206902D01*
X0152127Y0204500D02*
X0154529Y0204500D01*
X0155730Y0205701D01*
X0158292Y0204500D02*
X0161895Y0204500D01*
X0163096Y0205701D01*
X0163096Y0208103D01*
X0161895Y0209304D01*
X0158292Y0209304D01*
X0160054Y0216500D02*
X0156451Y0216500D01*
X0156451Y0223706D01*
X0156451Y0221304D02*
X0160054Y0221304D01*
X0161255Y0220103D01*
X0161255Y0217701D01*
X0160054Y0216500D01*
X0163817Y0218902D02*
X0168621Y0218902D01*
X0168621Y0217701D02*
X0168621Y0220103D01*
X0167420Y0221304D01*
X0165018Y0221304D01*
X0163817Y0220103D01*
X0163817Y0218902D01*
X0165018Y0216500D02*
X0167420Y0216500D01*
X0168621Y0217701D01*
X0171130Y0216500D02*
X0172331Y0217701D01*
X0172331Y0222505D01*
X0173532Y0221304D02*
X0171130Y0221304D01*
X0176094Y0221304D02*
X0179697Y0221304D01*
X0180898Y0220103D01*
X0180898Y0217701D01*
X0179697Y0216500D01*
X0176094Y0216500D01*
X0176628Y0211706D02*
X0174226Y0211706D01*
X0173025Y0210505D01*
X0177829Y0205701D01*
X0176628Y0204500D01*
X0174226Y0204500D01*
X0173025Y0205701D01*
X0173025Y0210505D01*
X0176628Y0211706D02*
X0177829Y0210505D01*
X0177829Y0205701D01*
X0180391Y0205701D02*
X0180391Y0208103D01*
X0181592Y0209304D01*
X0182793Y0209304D01*
X0185195Y0208103D01*
X0185195Y0211706D01*
X0180391Y0211706D01*
X0180391Y0205701D02*
X0181592Y0204500D01*
X0183994Y0204500D01*
X0185195Y0205701D01*
X0187757Y0205701D02*
X0187757Y0206902D01*
X0188958Y0208103D01*
X0192561Y0208103D01*
X0192561Y0205701D01*
X0191360Y0204500D01*
X0188958Y0204500D01*
X0187757Y0205701D01*
X0190159Y0210505D02*
X0192561Y0208103D01*
X0195124Y0206902D02*
X0195124Y0205701D01*
X0196325Y0204500D01*
X0198727Y0204500D01*
X0199928Y0205701D01*
X0199928Y0206902D01*
X0198727Y0208103D01*
X0196325Y0208103D01*
X0195124Y0206902D01*
X0196325Y0208103D02*
X0195124Y0209304D01*
X0195124Y0210505D01*
X0196325Y0211706D01*
X0198727Y0211706D01*
X0199928Y0210505D01*
X0199928Y0209304D01*
X0198727Y0208103D01*
X0202490Y0204500D02*
X0207294Y0204500D01*
X0204892Y0204500D02*
X0204892Y0211706D01*
X0207294Y0209304D01*
X0214046Y0214098D02*
X0214046Y0221304D01*
X0210443Y0221304D01*
X0209242Y0220103D01*
X0209242Y0217701D01*
X0210443Y0216500D01*
X0214046Y0216500D01*
X0206680Y0216500D02*
X0206680Y0221304D01*
X0204278Y0221304D02*
X0203077Y0221304D01*
X0204278Y0221304D02*
X0206680Y0218902D01*
X0200542Y0217701D02*
X0199341Y0216500D01*
X0196939Y0216500D01*
X0195738Y0217701D01*
X0195738Y0220103D01*
X0196939Y0221304D01*
X0199341Y0221304D01*
X0200542Y0220103D01*
X0200542Y0217701D01*
X0193175Y0221304D02*
X0190773Y0221304D01*
X0191974Y0222505D02*
X0191974Y0217701D01*
X0190773Y0216500D01*
X0188264Y0217701D02*
X0188264Y0220103D01*
X0187063Y0221304D01*
X0184661Y0221304D01*
X0183460Y0220103D01*
X0183460Y0218902D01*
X0188264Y0218902D01*
X0188264Y0217701D02*
X0187063Y0216500D01*
X0184661Y0216500D01*
X0187757Y0211706D02*
X0190159Y0210505D01*
X0217223Y0208103D02*
X0217223Y0204500D01*
X0219625Y0204500D02*
X0219625Y0208103D01*
X0218424Y0209304D01*
X0217223Y0208103D01*
X0219625Y0208103D02*
X0220826Y0209304D01*
X0222027Y0209304D01*
X0222027Y0204500D01*
X0224589Y0204500D02*
X0224589Y0209304D01*
X0229393Y0209304D02*
X0229393Y0205701D01*
X0228192Y0204500D01*
X0224589Y0204500D01*
X0231902Y0204500D02*
X0234304Y0204500D01*
X0233103Y0204500D02*
X0233103Y0209304D01*
X0234304Y0209304D01*
X0233103Y0211706D02*
X0233103Y0212907D01*
X0232542Y0216500D02*
X0231341Y0217701D01*
X0232542Y0218902D01*
X0234944Y0218902D01*
X0236145Y0220103D01*
X0234944Y0221304D01*
X0231341Y0221304D01*
X0228779Y0220103D02*
X0228779Y0217701D01*
X0227578Y0216500D01*
X0225176Y0216500D01*
X0223975Y0218902D02*
X0228779Y0218902D01*
X0228779Y0220103D02*
X0227578Y0221304D01*
X0225176Y0221304D01*
X0223975Y0220103D01*
X0223975Y0218902D01*
X0232542Y0216500D02*
X0236145Y0216500D01*
X0238708Y0217701D02*
X0238708Y0223706D01*
X0243512Y0223706D02*
X0243512Y0217701D01*
X0242311Y0216500D01*
X0239909Y0216500D01*
X0238708Y0217701D01*
X0241670Y0211706D02*
X0241670Y0204500D01*
X0244179Y0204500D02*
X0245380Y0205701D01*
X0245380Y0210505D01*
X0246581Y0209304D02*
X0244179Y0209304D01*
X0241670Y0208103D02*
X0240469Y0209304D01*
X0238067Y0209304D01*
X0236866Y0208103D01*
X0236866Y0204500D01*
X0249090Y0204500D02*
X0251492Y0204500D01*
X0250291Y0204500D02*
X0250291Y0209304D01*
X0251492Y0209304D01*
X0250291Y0211706D02*
X0250291Y0212907D01*
X0258858Y0211706D02*
X0258858Y0204500D01*
X0254054Y0204500D01*
X0290183Y0189661D02*
X0327722Y0189661D01*
X0327722Y0194061D01*
X0341422Y0194061D01*
X0341422Y0229061D01*
X0327722Y0229061D01*
X0327722Y0233461D01*
X0290183Y0233461D01*
X0290183Y0189661D01*
X0302781Y0172559D02*
X0307950Y0172559D01*
X0307950Y0168784D01*
X0302750Y0166851D02*
X0302750Y0165044D01*
X0307950Y0163166D02*
X0307950Y0159391D01*
X0302781Y0159391D01*
X0317850Y0159600D02*
X0335350Y0159600D01*
X0335350Y0173600D01*
X0317850Y0173600D01*
X0317850Y0159600D01*
X0231600Y0156100D02*
X0231600Y0152100D01*
X0231600Y0146100D02*
X0231600Y0142100D01*
X0212100Y0161600D02*
X0202100Y0161600D01*
X0202098Y0161492D01*
X0202092Y0161384D01*
X0202082Y0161276D01*
X0202069Y0161168D01*
X0202051Y0161061D01*
X0202030Y0160955D01*
X0202005Y0160850D01*
X0201976Y0160745D01*
X0201943Y0160642D01*
X0201907Y0160540D01*
X0201866Y0160439D01*
X0201823Y0160340D01*
X0201775Y0160243D01*
X0201725Y0160147D01*
X0201671Y0160053D01*
X0201613Y0159962D01*
X0201552Y0159872D01*
X0201488Y0159784D01*
X0201421Y0159699D01*
X0201351Y0159617D01*
X0201278Y0159537D01*
X0201202Y0159460D01*
X0201123Y0159385D01*
X0201042Y0159314D01*
X0200958Y0159245D01*
X0200872Y0159179D01*
X0200784Y0159117D01*
X0200693Y0159058D01*
X0200600Y0159002D01*
X0200505Y0158949D01*
X0200409Y0158900D01*
X0200310Y0158855D01*
X0200210Y0158813D01*
X0200109Y0158775D01*
X0200006Y0158740D01*
X0199903Y0158709D01*
X0199798Y0158682D01*
X0199692Y0158659D01*
X0199585Y0158640D01*
X0199478Y0158624D01*
X0199370Y0158612D01*
X0199262Y0158604D01*
X0199154Y0158600D01*
X0199046Y0158600D01*
X0198938Y0158604D01*
X0198830Y0158612D01*
X0198722Y0158624D01*
X0198615Y0158640D01*
X0198508Y0158659D01*
X0198402Y0158682D01*
X0198297Y0158709D01*
X0198194Y0158740D01*
X0198091Y0158775D01*
X0197990Y0158813D01*
X0197890Y0158855D01*
X0197791Y0158900D01*
X0197695Y0158949D01*
X0197600Y0159002D01*
X0197507Y0159058D01*
X0197416Y0159117D01*
X0197328Y0159179D01*
X0197242Y0159245D01*
X0197158Y0159314D01*
X0197077Y0159385D01*
X0196998Y0159460D01*
X0196922Y0159537D01*
X0196849Y0159617D01*
X0196779Y0159699D01*
X0196712Y0159784D01*
X0196648Y0159872D01*
X0196587Y0159962D01*
X0196529Y0160053D01*
X0196475Y0160147D01*
X0196425Y0160243D01*
X0196377Y0160340D01*
X0196334Y0160439D01*
X0196293Y0160540D01*
X0196257Y0160642D01*
X0196224Y0160745D01*
X0196195Y0160850D01*
X0196170Y0160955D01*
X0196149Y0161061D01*
X0196131Y0161168D01*
X0196118Y0161276D01*
X0196108Y0161384D01*
X0196102Y0161492D01*
X0196100Y0161600D01*
X0186100Y0161600D01*
X0186100Y0091600D01*
X0212100Y0091600D01*
X0212100Y0161600D01*
X0167850Y0125475D02*
X0167850Y0121475D01*
X0160350Y0111100D02*
X0160350Y0107100D01*
X0169600Y0096600D02*
X0173600Y0096600D01*
X0199100Y0088600D02*
X0199100Y0084600D01*
X0231600Y0098100D02*
X0231600Y0102100D01*
X0159225Y0137225D02*
X0155225Y0137225D01*
X0133600Y0137225D02*
X0129600Y0137225D01*
X0118600Y0137225D02*
X0114600Y0137225D01*
X0109850Y0137225D02*
X0105850Y0137225D01*
X0078600Y0165350D02*
X0074600Y0165350D01*
X0048600Y0202850D02*
X0044600Y0202850D01*
X0147163Y0211706D02*
X0148364Y0211706D01*
X0033564Y0131108D02*
X0026477Y0131108D01*
X0058983Y0022399D02*
X0058983Y0010801D01*
X0084411Y0010801D01*
X0084411Y0022399D01*
X0058983Y0022399D01*
X0070600Y0019600D02*
X0070600Y0013600D01*
X0073600Y0016600D01*
X0073600Y0013600D01*
X0073600Y0016600D02*
X0073600Y0019600D01*
X0073600Y0016600D02*
X0070600Y0019600D01*
X0150926Y0013005D02*
X0150926Y0011804D01*
X0152127Y0010603D01*
X0150926Y0009402D01*
X0150926Y0008201D01*
X0152127Y0007000D01*
X0154529Y0007000D01*
X0155730Y0008201D01*
X0153328Y0010603D02*
X0152127Y0010603D01*
X0150926Y0013005D02*
X0152127Y0014206D01*
X0154529Y0014206D01*
X0155730Y0013005D01*
X0158292Y0011804D02*
X0160694Y0007000D01*
X0163096Y0011804D01*
X0173025Y0011804D02*
X0173025Y0005799D01*
X0174226Y0004598D01*
X0175427Y0004598D01*
X0176628Y0007000D02*
X0173025Y0007000D01*
X0176628Y0007000D02*
X0177829Y0008201D01*
X0177829Y0011804D01*
X0180391Y0011804D02*
X0183994Y0011804D01*
X0185195Y0010603D01*
X0185195Y0008201D01*
X0183994Y0007000D01*
X0180391Y0007000D01*
X0180391Y0005799D02*
X0180391Y0011804D01*
X0180391Y0005799D02*
X0181592Y0004598D01*
X0182793Y0004598D01*
X0187757Y0008201D02*
X0187757Y0010603D01*
X0188958Y0011804D01*
X0191360Y0011804D01*
X0192561Y0010603D01*
X0192561Y0008201D01*
X0191360Y0007000D01*
X0188958Y0007000D01*
X0187757Y0008201D01*
X0195070Y0007000D02*
X0197472Y0007000D01*
X0196271Y0007000D02*
X0196271Y0014206D01*
X0197472Y0014206D01*
X0200035Y0010603D02*
X0201236Y0011804D01*
X0204839Y0011804D01*
X0204839Y0014206D02*
X0204839Y0007000D01*
X0201236Y0007000D01*
X0200035Y0008201D01*
X0200035Y0010603D01*
X0207401Y0010603D02*
X0207401Y0008201D01*
X0208602Y0007000D01*
X0211004Y0007000D01*
X0212205Y0008201D01*
X0212205Y0010603D01*
X0211004Y0011804D01*
X0208602Y0011804D01*
X0207401Y0010603D01*
X0214767Y0010603D02*
X0214767Y0007000D01*
X0214767Y0010603D02*
X0215968Y0011804D01*
X0219571Y0011804D01*
X0219571Y0007000D01*
X0222133Y0007000D02*
X0222133Y0010603D01*
X0223334Y0011804D01*
X0225736Y0011804D01*
X0226937Y0010603D01*
X0229500Y0011804D02*
X0233103Y0011804D01*
X0234304Y0010603D01*
X0234304Y0008201D01*
X0233103Y0007000D01*
X0229500Y0007000D01*
X0226937Y0007000D02*
X0226937Y0014206D01*
X0236866Y0010603D02*
X0236866Y0009402D01*
X0241670Y0009402D01*
X0241670Y0008201D02*
X0241670Y0010603D01*
X0240469Y0011804D01*
X0238067Y0011804D01*
X0236866Y0010603D01*
X0240469Y0007000D02*
X0241670Y0008201D01*
X0240469Y0007000D02*
X0238067Y0007000D01*
X0246634Y0007000D02*
X0246634Y0014206D01*
X0249036Y0014206D02*
X0244232Y0014206D01*
D11*
X0163103Y0071720D02*
X0160184Y0071720D01*
X0159600Y0072304D01*
X0159600Y0073472D01*
X0160184Y0074055D01*
X0163103Y0074055D01*
X0163103Y0075403D02*
X0163103Y0077155D01*
X0162519Y0077739D01*
X0161351Y0077739D01*
X0160768Y0077155D01*
X0160768Y0075403D01*
X0159600Y0075403D02*
X0163103Y0075403D01*
X0163103Y0079086D02*
X0163103Y0080838D01*
X0162519Y0081422D01*
X0160184Y0081422D01*
X0159600Y0080838D01*
X0159600Y0079086D01*
X0163103Y0079086D01*
X0163103Y0082770D02*
X0163103Y0083937D01*
X0163103Y0083353D02*
X0159600Y0083353D01*
X0159600Y0082770D02*
X0159600Y0083937D01*
X0153728Y0083293D02*
X0153728Y0081542D01*
X0150225Y0081542D01*
X0150225Y0083293D01*
X0150809Y0083877D01*
X0153144Y0083877D01*
X0153728Y0083293D01*
X0153728Y0080194D02*
X0150225Y0080194D01*
X0153728Y0077859D01*
X0150225Y0077859D01*
X0150809Y0076511D02*
X0151976Y0076511D01*
X0151976Y0075343D01*
X0150809Y0074176D02*
X0150225Y0074759D01*
X0150225Y0075927D01*
X0150809Y0076511D01*
X0153144Y0076511D02*
X0153728Y0075927D01*
X0153728Y0074759D01*
X0153144Y0074176D01*
X0150809Y0074176D01*
X0143144Y0075343D02*
X0140809Y0075343D01*
X0141976Y0074176D02*
X0141976Y0076511D01*
X0141976Y0077859D02*
X0142560Y0079026D01*
X0142560Y0079610D01*
X0141976Y0080194D01*
X0140809Y0080194D01*
X0140225Y0079610D01*
X0140225Y0078443D01*
X0140809Y0077859D01*
X0141976Y0077859D02*
X0143728Y0077859D01*
X0143728Y0080194D01*
X0143728Y0081542D02*
X0141393Y0081542D01*
X0140225Y0082710D01*
X0141393Y0083877D01*
X0143728Y0083877D01*
X0170372Y0086850D02*
X0171640Y0086850D01*
X0171006Y0086850D02*
X0171006Y0088752D01*
X0171640Y0088118D01*
X0172582Y0088435D02*
X0172582Y0087801D01*
X0172899Y0087484D01*
X0173850Y0087484D01*
X0173216Y0087484D02*
X0172582Y0086850D01*
X0173850Y0086850D02*
X0173850Y0088752D01*
X0172899Y0088752D01*
X0172582Y0088435D01*
X0162600Y0113100D02*
X0162600Y0115002D01*
X0161649Y0115002D01*
X0161332Y0114685D01*
X0161332Y0114051D01*
X0161649Y0113734D01*
X0162600Y0113734D01*
X0161966Y0113734D02*
X0161332Y0113100D01*
X0160390Y0113417D02*
X0160073Y0113100D01*
X0159439Y0113100D01*
X0159122Y0113417D01*
X0159122Y0114051D01*
X0159439Y0114368D01*
X0159756Y0114368D01*
X0160390Y0114051D01*
X0160390Y0115002D01*
X0159122Y0115002D01*
X0159149Y0122475D02*
X0158832Y0122792D01*
X0159149Y0122475D02*
X0159783Y0122475D01*
X0160100Y0122792D01*
X0160100Y0124060D01*
X0159783Y0124377D01*
X0159149Y0124377D01*
X0158832Y0124060D01*
X0157890Y0123426D02*
X0157256Y0124060D01*
X0156622Y0124377D01*
X0156939Y0123426D02*
X0157890Y0123426D01*
X0157890Y0122792D01*
X0157573Y0122475D01*
X0156939Y0122475D01*
X0156622Y0122792D01*
X0156622Y0123109D01*
X0156939Y0123426D01*
X0157285Y0144930D02*
X0156017Y0144930D01*
X0155700Y0145247D01*
X0155700Y0145881D01*
X0156017Y0146198D01*
X0156017Y0147140D02*
X0155700Y0147457D01*
X0155700Y0148091D01*
X0156017Y0148408D01*
X0156334Y0148408D01*
X0156651Y0148091D01*
X0156651Y0147774D01*
X0156651Y0148091D02*
X0156968Y0148408D01*
X0157285Y0148408D01*
X0157602Y0148091D01*
X0157602Y0147457D01*
X0157285Y0147140D01*
X0157285Y0146198D02*
X0157602Y0145881D01*
X0157602Y0145247D01*
X0157285Y0144930D01*
X0132602Y0145247D02*
X0132285Y0144930D01*
X0131017Y0144930D01*
X0130700Y0145247D01*
X0130700Y0145881D01*
X0131017Y0146198D01*
X0131651Y0147140D02*
X0131651Y0148408D01*
X0132602Y0148091D02*
X0131651Y0147140D01*
X0132285Y0146198D02*
X0132602Y0145881D01*
X0132602Y0145247D01*
X0132602Y0148091D02*
X0130700Y0148091D01*
X0117752Y0148176D02*
X0117752Y0147542D01*
X0117435Y0147225D01*
X0117118Y0147225D01*
X0116801Y0147542D01*
X0116801Y0148493D01*
X0117435Y0148493D02*
X0117752Y0148176D01*
X0117435Y0148493D02*
X0116167Y0148493D01*
X0115850Y0148176D01*
X0115850Y0147542D01*
X0116167Y0147225D01*
X0115850Y0146283D02*
X0116484Y0145649D01*
X0116484Y0145966D02*
X0116484Y0145015D01*
X0115850Y0145015D02*
X0117752Y0145015D01*
X0117752Y0145966D01*
X0117435Y0146283D01*
X0116801Y0146283D01*
X0116484Y0145966D01*
X0109002Y0145861D02*
X0108685Y0146178D01*
X0108051Y0146178D01*
X0107734Y0145861D01*
X0107734Y0144910D01*
X0107100Y0144910D02*
X0109002Y0144910D01*
X0109002Y0145861D01*
X0107734Y0145544D02*
X0107100Y0146178D01*
X0107100Y0147120D02*
X0107100Y0148388D01*
X0107100Y0147754D02*
X0109002Y0147754D01*
X0108368Y0147120D01*
X0108685Y0149330D02*
X0107417Y0149330D01*
X0108685Y0150598D01*
X0107417Y0150598D01*
X0107100Y0150281D01*
X0107100Y0149647D01*
X0107417Y0149330D01*
X0108685Y0149330D02*
X0109002Y0149647D01*
X0109002Y0150281D01*
X0108685Y0150598D01*
X0081977Y0130591D02*
X0081977Y0129957D01*
X0081660Y0129640D01*
X0081660Y0128698D02*
X0081977Y0128381D01*
X0081977Y0127747D01*
X0081660Y0127430D01*
X0080392Y0127430D01*
X0080075Y0127747D01*
X0080075Y0128381D01*
X0080392Y0128698D01*
X0080075Y0129640D02*
X0081343Y0130908D01*
X0081660Y0130908D01*
X0081977Y0130591D01*
X0080075Y0130908D02*
X0080075Y0129640D01*
X0067350Y0127002D02*
X0067350Y0125100D01*
X0067350Y0125734D02*
X0066399Y0125734D01*
X0066082Y0126051D01*
X0066082Y0126685D01*
X0066399Y0127002D01*
X0067350Y0127002D01*
X0066716Y0125734D02*
X0066082Y0125100D01*
X0065140Y0125417D02*
X0064823Y0125100D01*
X0064189Y0125100D01*
X0063872Y0125417D01*
X0063872Y0125734D01*
X0064189Y0126051D01*
X0064506Y0126051D01*
X0064189Y0126051D02*
X0063872Y0126368D01*
X0063872Y0126685D01*
X0064189Y0127002D01*
X0064823Y0127002D01*
X0065140Y0126685D01*
X0065774Y0105002D02*
X0065457Y0104685D01*
X0065457Y0104051D01*
X0065774Y0103734D01*
X0066725Y0103734D01*
X0066091Y0103734D02*
X0065457Y0103100D01*
X0066725Y0103100D02*
X0066725Y0105002D01*
X0065774Y0105002D01*
X0064515Y0104051D02*
X0063247Y0104051D01*
X0063564Y0105002D02*
X0064515Y0104051D01*
X0063564Y0103100D02*
X0063564Y0105002D01*
X0087475Y0093453D02*
X0087475Y0092185D01*
X0087475Y0092819D02*
X0089377Y0092819D01*
X0088743Y0092185D01*
X0089060Y0091243D02*
X0089377Y0090926D01*
X0089377Y0090292D01*
X0089060Y0089975D01*
X0087792Y0089975D01*
X0087475Y0090292D01*
X0087475Y0090926D01*
X0087792Y0091243D01*
X0102917Y0095392D02*
X0103234Y0095075D01*
X0103868Y0095075D01*
X0104185Y0095392D01*
X0104185Y0095709D01*
X0103868Y0096026D01*
X0103234Y0096026D01*
X0102917Y0095709D01*
X0102917Y0095392D01*
X0103234Y0096026D02*
X0102917Y0096343D01*
X0102917Y0096660D01*
X0103234Y0096977D01*
X0103868Y0096977D01*
X0104185Y0096660D01*
X0104185Y0096343D01*
X0103868Y0096026D01*
X0105127Y0096026D02*
X0105444Y0095709D01*
X0106395Y0095709D01*
X0106395Y0095075D02*
X0106395Y0096977D01*
X0105444Y0096977D01*
X0105127Y0096660D01*
X0105127Y0096026D01*
X0105761Y0095709D02*
X0105127Y0095075D01*
X0105462Y0102575D02*
X0106096Y0103209D01*
X0105779Y0103209D02*
X0106730Y0103209D01*
X0106730Y0102575D02*
X0106730Y0104477D01*
X0105779Y0104477D01*
X0105462Y0104160D01*
X0105462Y0103526D01*
X0105779Y0103209D01*
X0104520Y0103843D02*
X0103886Y0104477D01*
X0103886Y0102575D01*
X0104520Y0102575D02*
X0103252Y0102575D01*
X0102310Y0102575D02*
X0101042Y0102575D01*
X0101676Y0102575D02*
X0101676Y0104477D01*
X0102310Y0103843D01*
X0072285Y0163680D02*
X0071017Y0163680D01*
X0070700Y0163997D01*
X0070700Y0164631D01*
X0071017Y0164948D01*
X0071017Y0165890D02*
X0070700Y0165890D01*
X0071017Y0165890D02*
X0072285Y0167158D01*
X0072602Y0167158D01*
X0072602Y0165890D01*
X0072285Y0164948D02*
X0072602Y0164631D01*
X0072602Y0163997D01*
X0072285Y0163680D01*
X0229792Y0159160D02*
X0230109Y0159477D01*
X0230743Y0159477D01*
X0231060Y0159160D01*
X0232002Y0159160D02*
X0232002Y0158526D01*
X0232319Y0158209D01*
X0233270Y0158209D01*
X0233270Y0157575D02*
X0233270Y0159477D01*
X0232319Y0159477D01*
X0232002Y0159160D01*
X0232636Y0158209D02*
X0232002Y0157575D01*
X0231060Y0157575D02*
X0229792Y0158843D01*
X0229792Y0159160D01*
X0229792Y0157575D02*
X0231060Y0157575D01*
X0232319Y0149477D02*
X0232002Y0149160D01*
X0232002Y0148526D01*
X0232319Y0148209D01*
X0233270Y0148209D01*
X0233270Y0147575D02*
X0233270Y0149477D01*
X0232319Y0149477D01*
X0232636Y0148209D02*
X0232002Y0147575D01*
X0231060Y0147892D02*
X0230743Y0147575D01*
X0230109Y0147575D01*
X0229792Y0147892D01*
X0229792Y0148209D01*
X0230109Y0148526D01*
X0231060Y0148526D01*
X0231060Y0147892D01*
X0231060Y0148526D02*
X0230426Y0149160D01*
X0229792Y0149477D01*
X0229928Y0106252D02*
X0230245Y0105935D01*
X0229928Y0106252D02*
X0229294Y0106252D01*
X0228977Y0105935D01*
X0228977Y0105618D01*
X0230245Y0104350D01*
X0228977Y0104350D01*
X0231187Y0104350D02*
X0232455Y0104350D01*
X0231821Y0104350D02*
X0231821Y0106252D01*
X0232455Y0105618D01*
X0233397Y0105935D02*
X0233397Y0105301D01*
X0233714Y0104984D01*
X0234665Y0104984D01*
X0234665Y0104350D02*
X0234665Y0106252D01*
X0233714Y0106252D01*
X0233397Y0105935D01*
X0234031Y0104984D02*
X0233397Y0104350D01*
X0330792Y0134017D02*
X0331109Y0133700D01*
X0331743Y0133700D01*
X0332060Y0134017D01*
X0332060Y0134651D02*
X0331426Y0134968D01*
X0331109Y0134968D01*
X0330792Y0134651D01*
X0330792Y0134017D01*
X0332060Y0134651D02*
X0332060Y0135602D01*
X0330792Y0135602D01*
X0333002Y0135285D02*
X0333319Y0135602D01*
X0333953Y0135602D01*
X0334270Y0135285D01*
X0334270Y0134017D01*
X0333953Y0133700D01*
X0333319Y0133700D01*
X0333002Y0134017D01*
X0360109Y0059477D02*
X0361060Y0058526D01*
X0359792Y0058526D01*
X0360109Y0057575D02*
X0360109Y0059477D01*
X0362002Y0059160D02*
X0362319Y0059477D01*
X0363270Y0059477D01*
X0363270Y0057575D01*
X0362319Y0057575D01*
X0362002Y0057892D01*
X0362002Y0059160D01*
X0365600Y0055600D02*
X0372500Y0055600D01*
X0372500Y0047600D01*
X0365600Y0047600D01*
X0367769Y0046187D02*
X0367769Y0045603D01*
X0367769Y0044435D02*
X0367769Y0042100D01*
X0368352Y0042100D02*
X0367185Y0042100D01*
X0365897Y0042100D02*
X0365897Y0044435D01*
X0364146Y0044435D01*
X0363562Y0043851D01*
X0363562Y0042100D01*
X0367769Y0044435D02*
X0368352Y0044435D01*
X0369700Y0045019D02*
X0369700Y0043851D01*
X0370284Y0043268D01*
X0372036Y0043268D01*
X0372036Y0042100D02*
X0372036Y0045603D01*
X0370284Y0045603D01*
X0369700Y0045019D01*
X0374100Y0051600D02*
X0374800Y0051600D01*
X0358531Y0044435D02*
X0357363Y0045603D01*
X0357363Y0042100D01*
X0358531Y0042100D02*
X0356195Y0042100D01*
X0354848Y0042684D02*
X0354264Y0042100D01*
X0353096Y0042100D01*
X0352512Y0042684D01*
X0352512Y0045019D01*
X0353096Y0045603D01*
X0354264Y0045603D01*
X0354848Y0045019D01*
X0354848Y0044435D01*
X0354264Y0043851D01*
X0352512Y0043851D01*
X0350700Y0047600D02*
X0357600Y0047600D01*
X0350700Y0047600D02*
X0350700Y0055600D01*
X0357600Y0055600D01*
D12*
X0191234Y0156560D02*
X0189365Y0156560D01*
X0189599Y0156793D02*
X0189599Y0156326D01*
X0189832Y0156093D01*
X0190299Y0156326D02*
X0190299Y0156793D01*
X0190066Y0157027D01*
X0189832Y0157027D01*
X0189599Y0156793D01*
X0189599Y0157566D02*
X0190766Y0157566D01*
X0191000Y0157799D01*
X0191000Y0158266D01*
X0190766Y0158500D01*
X0189599Y0158500D01*
X0190766Y0157027D02*
X0191000Y0156793D01*
X0191000Y0156326D01*
X0190766Y0156093D01*
X0190533Y0156093D01*
X0190299Y0156326D01*
X0190066Y0155553D02*
X0190299Y0155320D01*
X0190299Y0154619D01*
X0189832Y0154619D02*
X0189599Y0154853D01*
X0189599Y0155320D01*
X0189832Y0155553D01*
X0190066Y0155553D01*
X0190766Y0155553D02*
X0191000Y0155320D01*
X0191000Y0154853D01*
X0190766Y0154619D01*
X0189832Y0154619D01*
X0033627Y0115134D02*
X0030825Y0115134D01*
X0030825Y0114200D02*
X0030825Y0116068D01*
X0032693Y0114200D02*
X0033627Y0115134D01*
X0033627Y0113306D02*
X0033627Y0112372D01*
X0033627Y0112839D02*
X0031292Y0112839D01*
X0030825Y0112372D01*
X0030825Y0111905D01*
X0031292Y0111438D01*
D13*
X0077866Y0100176D02*
X0079601Y0100176D01*
X0078733Y0100176D02*
X0078733Y0102779D01*
X0079601Y0101911D01*
X0080813Y0102345D02*
X0081246Y0102779D01*
X0082114Y0102779D01*
X0082547Y0102345D01*
X0082547Y0100610D01*
X0082114Y0100176D01*
X0081246Y0100176D01*
X0080813Y0100610D01*
X0083644Y0100176D02*
X0084512Y0100176D01*
X0084078Y0100176D02*
X0084078Y0102779D01*
X0084512Y0102779D02*
X0083644Y0102779D01*
X0141200Y0124278D02*
X0141634Y0123845D01*
X0143802Y0123845D01*
X0143802Y0125579D02*
X0141634Y0125579D01*
X0141200Y0125146D01*
X0141200Y0124278D01*
X0141200Y0126791D02*
X0141200Y0128526D01*
X0141200Y0127658D02*
X0143802Y0127658D01*
X0142935Y0126791D01*
X0129425Y0161275D02*
X0128124Y0161275D01*
X0127690Y0161709D01*
X0127690Y0163444D01*
X0128124Y0163877D01*
X0129425Y0163877D01*
X0129425Y0161275D01*
X0126478Y0161275D02*
X0124744Y0161275D01*
X0125611Y0161275D02*
X0125611Y0163877D01*
X0126478Y0163010D01*
X0117550Y0176900D02*
X0116249Y0176900D01*
X0115815Y0177334D01*
X0115815Y0179069D01*
X0116249Y0179502D01*
X0117550Y0179502D01*
X0117550Y0176900D01*
X0114603Y0177334D02*
X0114170Y0176900D01*
X0113302Y0176900D01*
X0112869Y0177334D01*
X0112869Y0177767D01*
X0113302Y0178201D01*
X0113736Y0178201D01*
X0113302Y0178201D02*
X0112869Y0178635D01*
X0112869Y0179069D01*
X0113302Y0179502D01*
X0114170Y0179502D01*
X0114603Y0179069D01*
X0052552Y0201007D02*
X0052552Y0202308D01*
X0052119Y0202742D01*
X0051251Y0202742D01*
X0050817Y0202308D01*
X0050817Y0201007D01*
X0049950Y0201007D02*
X0052552Y0201007D01*
X0050817Y0201874D02*
X0049950Y0202742D01*
X0049950Y0203953D02*
X0050384Y0203953D01*
X0052119Y0205688D01*
X0052552Y0205688D01*
X0052552Y0203953D01*
X0033317Y0173805D02*
X0023080Y0173805D01*
X0016387Y0169868D02*
X0016387Y0153332D01*
X0023080Y0149789D02*
X0033317Y0149789D01*
X0033317Y0154120D01*
X0033317Y0169080D02*
X0033317Y0173805D01*
X0193762Y0082119D02*
X0193762Y0081685D01*
X0194195Y0081251D01*
X0195063Y0081251D01*
X0195497Y0081685D01*
X0195497Y0082119D01*
X0195063Y0082552D01*
X0194195Y0082552D01*
X0193762Y0082119D01*
X0194195Y0081251D02*
X0193762Y0080817D01*
X0193762Y0080384D01*
X0194195Y0079950D01*
X0195063Y0079950D01*
X0195497Y0080384D01*
X0195497Y0080817D01*
X0195063Y0081251D01*
X0196708Y0080384D02*
X0197142Y0079950D01*
X0198009Y0079950D01*
X0198443Y0080384D01*
X0198443Y0082119D01*
X0198009Y0082552D01*
X0197142Y0082552D01*
X0196708Y0082119D01*
X0074425Y0026377D02*
X0074425Y0023775D01*
X0073124Y0023775D01*
X0072690Y0024209D01*
X0072690Y0025944D01*
X0073124Y0026377D01*
X0074425Y0026377D01*
X0071478Y0025944D02*
X0071045Y0026377D01*
X0070177Y0026377D01*
X0069744Y0025944D01*
X0069744Y0025510D01*
X0071478Y0023775D01*
X0069744Y0023775D01*
X0303775Y0174209D02*
X0304209Y0173775D01*
X0305944Y0173775D01*
X0306377Y0174209D01*
X0306377Y0175076D01*
X0305944Y0175510D01*
X0304209Y0175510D01*
X0303775Y0175076D01*
X0303775Y0174209D01*
X0304642Y0174642D02*
X0303775Y0175510D01*
X0305076Y0176722D02*
X0305076Y0178456D01*
X0303775Y0178023D02*
X0306377Y0178023D01*
X0305076Y0176722D01*
X0324741Y0175916D02*
X0326476Y0175916D01*
X0325609Y0175916D02*
X0325609Y0178518D01*
X0326476Y0177651D01*
X0327688Y0178084D02*
X0328122Y0178518D01*
X0328989Y0178518D01*
X0329423Y0178084D01*
X0329423Y0176349D01*
X0328989Y0175916D01*
X0328122Y0175916D01*
X0327688Y0176349D01*
X0330634Y0178518D02*
X0332369Y0178518D01*
X0331502Y0178518D02*
X0331502Y0175916D01*
X0333581Y0177217D02*
X0334015Y0176783D01*
X0335316Y0176783D01*
X0335316Y0175916D02*
X0335316Y0178518D01*
X0334015Y0178518D01*
X0333581Y0178084D01*
X0333581Y0177217D01*
D14*
X0280208Y0211604D02*
X0274336Y0211604D01*
X0127208Y0211604D02*
X0121336Y0211604D01*
X0124272Y0214540D02*
X0124272Y0208668D01*
D15*
X0087443Y0210050D02*
X0086692Y0210050D01*
X0086442Y0210300D01*
X0086442Y0210550D01*
X0086692Y0210801D01*
X0087443Y0210801D01*
X0087443Y0211551D02*
X0086692Y0211551D01*
X0086442Y0211301D01*
X0086442Y0211051D01*
X0086692Y0210801D01*
X0085970Y0210801D02*
X0084969Y0210801D01*
X0084969Y0211051D02*
X0084969Y0210050D01*
X0083996Y0210050D02*
X0083996Y0211551D01*
X0083496Y0211551D02*
X0084497Y0211551D01*
X0084969Y0211051D02*
X0085469Y0211551D01*
X0085970Y0211051D01*
X0085970Y0210050D01*
X0087443Y0210050D02*
X0087443Y0211551D01*
X0083023Y0211051D02*
X0082523Y0211551D01*
X0082523Y0210050D01*
X0083023Y0210050D02*
X0082022Y0210050D01*
D16*
X0346600Y0051600D02*
X0349100Y0051600D01*
X0347870Y0050200D02*
X0347870Y0053050D01*
X0347870Y0053060D02*
X0347870Y0050130D01*
X0347860Y0050120D01*
X0374100Y0051600D02*
X0376600Y0051600D01*
M02*
